%TF.GenerationSoftware,KiCad,Pcbnew,10.0.1*%
%TF.CreationDate,2026-06-11T23:50:18-04:00*%
%TF.ProjectId,pcb,7063622e-6b69-4636-9164-5f7063625858,v1.0.0*%
%TF.SameCoordinates,Original*%
%TF.FileFunction,Legend,Top*%
%TF.FilePolarity,Positive*%
%FSLAX46Y46*%
G04 Gerber Fmt 4.6, Leading zero omitted, Abs format (unit mm)*
G04 Created by KiCad (PCBNEW 10.0.1) date 2026-06-11 23:50:18*
%MOMM*%
%LPD*%
G01*
G04 APERTURE LIST*
%ADD10C,0.150000*%
%ADD11C,0.100000*%
%ADD12C,0.120000*%
G04 APERTURE END LIST*
D10*
X193010414Y-132893037D02*
X193094816Y-132957953D01*
X193094816Y-132957953D02*
X193281793Y-132994298D01*
X193281793Y-132994298D02*
X193384367Y-132965726D01*
X193384367Y-132965726D02*
X193449284Y-132881324D01*
X193449284Y-132881324D02*
X193458370Y-132834579D01*
X193458370Y-132834579D02*
X193429798Y-132732005D01*
X193429798Y-132732005D02*
X193345396Y-132667089D01*
X193345396Y-132667089D02*
X193205163Y-132639830D01*
X193205163Y-132639830D02*
X193120761Y-132574914D01*
X193120761Y-132574914D02*
X193092189Y-132472339D01*
X193092189Y-132472339D02*
X193101275Y-132425595D01*
X193101275Y-132425595D02*
X193166192Y-132341193D01*
X193166192Y-132341193D02*
X193268766Y-132312621D01*
X193268766Y-132312621D02*
X193408999Y-132339879D01*
X193408999Y-132339879D02*
X193493401Y-132404796D01*
X193982955Y-133130590D02*
X193898553Y-133065673D01*
X193898553Y-133065673D02*
X193860895Y-133009843D01*
X193860895Y-133009843D02*
X193832323Y-132907269D01*
X193832323Y-132907269D02*
X193886840Y-132626804D01*
X193886840Y-132626804D02*
X193951756Y-132542402D01*
X193951756Y-132542402D02*
X194007587Y-132504744D01*
X194007587Y-132504744D02*
X194110161Y-132476172D01*
X194110161Y-132476172D02*
X194250394Y-132503430D01*
X194250394Y-132503430D02*
X194334796Y-132568347D01*
X194334796Y-132568347D02*
X194372454Y-132624177D01*
X194372454Y-132624177D02*
X194401026Y-132726751D01*
X194401026Y-132726751D02*
X194346509Y-133007216D01*
X194346509Y-133007216D02*
X194281592Y-133091618D01*
X194281592Y-133091618D02*
X194225762Y-133129276D01*
X194225762Y-133129276D02*
X194123188Y-133157848D01*
X194123188Y-133157848D02*
X193982955Y-133130590D01*
X194871094Y-133303227D02*
X194786692Y-133238310D01*
X194786692Y-133238310D02*
X194758120Y-133135736D01*
X194758120Y-133135736D02*
X194921671Y-132294341D01*
X195665745Y-133457691D02*
X195856554Y-132476064D01*
X195674831Y-133410947D02*
X195572257Y-133439519D01*
X195572257Y-133439519D02*
X195385280Y-133403174D01*
X195385280Y-133403174D02*
X195300878Y-133338258D01*
X195300878Y-133338258D02*
X195263220Y-133282427D01*
X195263220Y-133282427D02*
X195234648Y-133179853D01*
X195234648Y-133179853D02*
X195289165Y-132899388D01*
X195289165Y-132899388D02*
X195354081Y-132814986D01*
X195354081Y-132814986D02*
X195409912Y-132777328D01*
X195409912Y-132777328D02*
X195512486Y-132748756D01*
X195512486Y-132748756D02*
X195699463Y-132785101D01*
X195699463Y-132785101D02*
X195783865Y-132850017D01*
X196516226Y-133574497D02*
X196413652Y-133603069D01*
X196413652Y-133603069D02*
X196226675Y-133566725D01*
X196226675Y-133566725D02*
X196142273Y-133501808D01*
X196142273Y-133501808D02*
X196113701Y-133399234D01*
X196113701Y-133399234D02*
X196186390Y-133025281D01*
X196186390Y-133025281D02*
X196251307Y-132940878D01*
X196251307Y-132940878D02*
X196353881Y-132912307D01*
X196353881Y-132912307D02*
X196540858Y-132948651D01*
X196540858Y-132948651D02*
X196625260Y-133013568D01*
X196625260Y-133013568D02*
X196653832Y-133116142D01*
X196653832Y-133116142D02*
X196635659Y-133209630D01*
X196635659Y-133209630D02*
X196150046Y-133212257D01*
X196974582Y-133712103D02*
X197101788Y-133057685D01*
X197065443Y-133244662D02*
X197130359Y-133160259D01*
X197130359Y-133160259D02*
X197186190Y-133122601D01*
X197186190Y-133122601D02*
X197288764Y-133094030D01*
X197288764Y-133094030D02*
X197382253Y-133112202D01*
X198457369Y-133321183D02*
X198293818Y-134162578D01*
X198293818Y-134162578D02*
X198228902Y-134246980D01*
X198228902Y-134246980D02*
X198126327Y-134275552D01*
X198126327Y-134275552D02*
X198079583Y-134266466D01*
X198520972Y-132993974D02*
X198465141Y-133031632D01*
X198465141Y-133031632D02*
X198502799Y-133087462D01*
X198502799Y-133087462D02*
X198558630Y-133049804D01*
X198558630Y-133049804D02*
X198520972Y-132993974D01*
X198520972Y-132993974D02*
X198502799Y-133087462D01*
X199345507Y-133493820D02*
X199218301Y-134148238D01*
X198924810Y-133412045D02*
X198824862Y-133926230D01*
X198824862Y-133926230D02*
X198853434Y-134028805D01*
X198853434Y-134028805D02*
X198937836Y-134093721D01*
X198937836Y-134093721D02*
X199078069Y-134120980D01*
X199078069Y-134120980D02*
X199180643Y-134092408D01*
X199180643Y-134092408D02*
X199236473Y-134054750D01*
X199685743Y-134239099D02*
X199812949Y-133584681D01*
X199794776Y-133678170D02*
X199850607Y-133640512D01*
X199850607Y-133640512D02*
X199953181Y-133611940D01*
X199953181Y-133611940D02*
X200093414Y-133639198D01*
X200093414Y-133639198D02*
X200177816Y-133704115D01*
X200177816Y-133704115D02*
X200206388Y-133806689D01*
X200206388Y-133806689D02*
X200106440Y-134320875D01*
X200206388Y-133806689D02*
X200271304Y-133722287D01*
X200271304Y-133722287D02*
X200373878Y-133693715D01*
X200373878Y-133693715D02*
X200514111Y-133720973D01*
X200514111Y-133720973D02*
X200598513Y-133785890D01*
X200598513Y-133785890D02*
X200627085Y-133888464D01*
X200627085Y-133888464D02*
X200527137Y-134402650D01*
X201121785Y-133839093D02*
X200930976Y-134820720D01*
X201112698Y-133885837D02*
X201215273Y-133857265D01*
X201215273Y-133857265D02*
X201402249Y-133893610D01*
X201402249Y-133893610D02*
X201486652Y-133958526D01*
X201486652Y-133958526D02*
X201524310Y-134014357D01*
X201524310Y-134014357D02*
X201552881Y-134116931D01*
X201552881Y-134116931D02*
X201498365Y-134397396D01*
X201498365Y-134397396D02*
X201433448Y-134481798D01*
X201433448Y-134481798D02*
X201377618Y-134519456D01*
X201377618Y-134519456D02*
X201275043Y-134548028D01*
X201275043Y-134548028D02*
X201088067Y-134511684D01*
X201088067Y-134511684D02*
X201003665Y-134446767D01*
X202265757Y-134692093D02*
X202163182Y-134720665D01*
X202163182Y-134720665D02*
X201976206Y-134684320D01*
X201976206Y-134684320D02*
X201891804Y-134619404D01*
X201891804Y-134619404D02*
X201863232Y-134516829D01*
X201863232Y-134516829D02*
X201935921Y-134142876D01*
X201935921Y-134142876D02*
X202000837Y-134058474D01*
X202000837Y-134058474D02*
X202103412Y-134029902D01*
X202103412Y-134029902D02*
X202290388Y-134066247D01*
X202290388Y-134066247D02*
X202374791Y-134131163D01*
X202374791Y-134131163D02*
X202403362Y-134233738D01*
X202403362Y-134233738D02*
X202385190Y-134327226D01*
X202385190Y-134327226D02*
X201899576Y-134329853D01*
X202724112Y-134829699D02*
X202851318Y-134175281D01*
X202814974Y-134362257D02*
X202879890Y-134277855D01*
X202879890Y-134277855D02*
X202935721Y-134240197D01*
X202935721Y-134240197D02*
X203038295Y-134211625D01*
X203038295Y-134211625D02*
X203131783Y-134229797D01*
X203294129Y-134891988D02*
X203378531Y-134956905D01*
X203378531Y-134956905D02*
X203565507Y-134993249D01*
X203565507Y-134993249D02*
X203668082Y-134964677D01*
X203668082Y-134964677D02*
X203732998Y-134880275D01*
X203732998Y-134880275D02*
X203742085Y-134833531D01*
X203742085Y-134833531D02*
X203713513Y-134730957D01*
X203713513Y-134730957D02*
X203629110Y-134666040D01*
X203629110Y-134666040D02*
X203488878Y-134638782D01*
X203488878Y-134638782D02*
X203404476Y-134573865D01*
X203404476Y-134573865D02*
X203375904Y-134471291D01*
X203375904Y-134471291D02*
X203384990Y-134424547D01*
X203384990Y-134424547D02*
X203449907Y-134340145D01*
X203449907Y-134340145D02*
X203552481Y-134311573D01*
X203552481Y-134311573D02*
X203692713Y-134338831D01*
X203692713Y-134338831D02*
X203777116Y-134403748D01*
X193288784Y-133956589D02*
X193662737Y-134029278D01*
X193301810Y-134638266D02*
X193465361Y-133796871D01*
X193465361Y-133796871D02*
X193530277Y-133712469D01*
X193530277Y-133712469D02*
X193632852Y-133683897D01*
X193632852Y-133683897D02*
X193726340Y-133702069D01*
X194002973Y-134774558D02*
X193918571Y-134709641D01*
X193918571Y-134709641D02*
X193880913Y-134653811D01*
X193880913Y-134653811D02*
X193852341Y-134551237D01*
X193852341Y-134551237D02*
X193906858Y-134270772D01*
X193906858Y-134270772D02*
X193971774Y-134186370D01*
X193971774Y-134186370D02*
X194027604Y-134148712D01*
X194027604Y-134148712D02*
X194130179Y-134120140D01*
X194130179Y-134120140D02*
X194270411Y-134147398D01*
X194270411Y-134147398D02*
X194354813Y-134212315D01*
X194354813Y-134212315D02*
X194392471Y-134268145D01*
X194392471Y-134268145D02*
X194421043Y-134370719D01*
X194421043Y-134370719D02*
X194366526Y-134651184D01*
X194366526Y-134651184D02*
X194301610Y-134735586D01*
X194301610Y-134735586D02*
X194245780Y-134773244D01*
X194245780Y-134773244D02*
X194143205Y-134801816D01*
X194143205Y-134801816D02*
X194002973Y-134774558D01*
X194750879Y-134919936D02*
X194878085Y-134265518D01*
X194841741Y-134452495D02*
X194906657Y-134368093D01*
X194906657Y-134368093D02*
X194962487Y-134330435D01*
X194962487Y-134330435D02*
X195065062Y-134301863D01*
X195065062Y-134301863D02*
X195158550Y-134320035D01*
X196106460Y-135183434D02*
X196233666Y-134529016D01*
X196197322Y-134715993D02*
X196262238Y-134631591D01*
X196262238Y-134631591D02*
X196318069Y-134593933D01*
X196318069Y-134593933D02*
X196420643Y-134565361D01*
X196420643Y-134565361D02*
X196514131Y-134583533D01*
X196714135Y-135301554D02*
X196841341Y-134647136D01*
X196904944Y-134319927D02*
X196849113Y-134357585D01*
X196849113Y-134357585D02*
X196886771Y-134413416D01*
X196886771Y-134413416D02*
X196942602Y-134375757D01*
X196942602Y-134375757D02*
X196904944Y-134319927D01*
X196904944Y-134319927D02*
X196886771Y-134413416D01*
X197729479Y-134819773D02*
X197575015Y-135614423D01*
X197575015Y-135614423D02*
X197510098Y-135698826D01*
X197510098Y-135698826D02*
X197454268Y-135736484D01*
X197454268Y-135736484D02*
X197351693Y-135765055D01*
X197351693Y-135765055D02*
X197211461Y-135737797D01*
X197211461Y-135737797D02*
X197127059Y-135672881D01*
X197611359Y-135427447D02*
X197508785Y-135456019D01*
X197508785Y-135456019D02*
X197321808Y-135419674D01*
X197321808Y-135419674D02*
X197237406Y-135354758D01*
X197237406Y-135354758D02*
X197199748Y-135298927D01*
X197199748Y-135298927D02*
X197171176Y-135196353D01*
X197171176Y-135196353D02*
X197225693Y-134915888D01*
X197225693Y-134915888D02*
X197290609Y-134831486D01*
X197290609Y-134831486D02*
X197346440Y-134793828D01*
X197346440Y-134793828D02*
X197449014Y-134765256D01*
X197449014Y-134765256D02*
X197635991Y-134801601D01*
X197635991Y-134801601D02*
X197720393Y-134866517D01*
X198069715Y-135565052D02*
X198260524Y-134583425D01*
X198490412Y-135646828D02*
X198590360Y-135132642D01*
X198590360Y-135132642D02*
X198561788Y-135030068D01*
X198561788Y-135030068D02*
X198477386Y-134965151D01*
X198477386Y-134965151D02*
X198337153Y-134937893D01*
X198337153Y-134937893D02*
X198234579Y-134966465D01*
X198234579Y-134966465D02*
X198178748Y-135004123D01*
X198944827Y-135056013D02*
X199318780Y-135128702D01*
X199148663Y-134756062D02*
X198985112Y-135597457D01*
X198985112Y-135597457D02*
X199013684Y-135700031D01*
X199013684Y-135700031D02*
X199098086Y-135764948D01*
X199098086Y-135764948D02*
X199191574Y-135783120D01*
X200229033Y-135936271D02*
X200313435Y-136001187D01*
X200313435Y-136001187D02*
X200500411Y-136037532D01*
X200500411Y-136037532D02*
X200602986Y-136008960D01*
X200602986Y-136008960D02*
X200667902Y-135924558D01*
X200667902Y-135924558D02*
X200676988Y-135877814D01*
X200676988Y-135877814D02*
X200648417Y-135775239D01*
X200648417Y-135775239D02*
X200564014Y-135710323D01*
X200564014Y-135710323D02*
X200423782Y-135683065D01*
X200423782Y-135683065D02*
X200339380Y-135618148D01*
X200339380Y-135618148D02*
X200310808Y-135515574D01*
X200310808Y-135515574D02*
X200319894Y-135468829D01*
X200319894Y-135468829D02*
X200384810Y-135384427D01*
X200384810Y-135384427D02*
X200487385Y-135355855D01*
X200487385Y-135355855D02*
X200627617Y-135383114D01*
X200627617Y-135383114D02*
X200712019Y-135448030D01*
X201061341Y-136146566D02*
X201188547Y-135492148D01*
X201252150Y-135164939D02*
X201196320Y-135202597D01*
X201196320Y-135202597D02*
X201233978Y-135258427D01*
X201233978Y-135258427D02*
X201289808Y-135220769D01*
X201289808Y-135220769D02*
X201252150Y-135164939D01*
X201252150Y-135164939D02*
X201233978Y-135258427D01*
X201949480Y-136319202D02*
X202140289Y-135337575D01*
X201958566Y-136272458D02*
X201855991Y-136301030D01*
X201855991Y-136301030D02*
X201669015Y-136264686D01*
X201669015Y-136264686D02*
X201584613Y-136199769D01*
X201584613Y-136199769D02*
X201546955Y-136143939D01*
X201546955Y-136143939D02*
X201518383Y-136041364D01*
X201518383Y-136041364D02*
X201572900Y-135760899D01*
X201572900Y-135760899D02*
X201637816Y-135676497D01*
X201637816Y-135676497D02*
X201693646Y-135638839D01*
X201693646Y-135638839D02*
X201796221Y-135610267D01*
X201796221Y-135610267D02*
X201983197Y-135646612D01*
X201983197Y-135646612D02*
X202067600Y-135711528D01*
X202799961Y-136436009D02*
X202697386Y-136464581D01*
X202697386Y-136464581D02*
X202510410Y-136428236D01*
X202510410Y-136428236D02*
X202426008Y-136363320D01*
X202426008Y-136363320D02*
X202397436Y-136260745D01*
X202397436Y-136260745D02*
X202470125Y-135886792D01*
X202470125Y-135886792D02*
X202535041Y-135802390D01*
X202535041Y-135802390D02*
X202637616Y-135773818D01*
X202637616Y-135773818D02*
X202824592Y-135810163D01*
X202824592Y-135810163D02*
X202908994Y-135875079D01*
X202908994Y-135875079D02*
X202937566Y-135977653D01*
X202937566Y-135977653D02*
X202919394Y-136071142D01*
X202919394Y-136071142D02*
X202433780Y-136073769D01*
X172235751Y-133075728D02*
X172161087Y-133786101D01*
X172161087Y-133786101D02*
X172098797Y-133923198D01*
X172098797Y-133923198D02*
X171994125Y-134007959D01*
X171994125Y-134007959D02*
X171847073Y-134040385D01*
X171847073Y-134040385D02*
X171752357Y-134030430D01*
X173078386Y-134169801D02*
X172604804Y-134120025D01*
X172604804Y-134120025D02*
X172709333Y-133125504D01*
X173988147Y-134169658D02*
X173935811Y-134212039D01*
X173935811Y-134212039D02*
X173788759Y-134244464D01*
X173788759Y-134244464D02*
X173694043Y-134234509D01*
X173694043Y-134234509D02*
X173556946Y-134172218D01*
X173556946Y-134172218D02*
X173472184Y-134067547D01*
X173472184Y-134067547D02*
X173434781Y-133967853D01*
X173434781Y-133967853D02*
X173407333Y-133773443D01*
X173407333Y-133773443D02*
X173422266Y-133631368D01*
X173422266Y-133631368D02*
X173489534Y-133446913D01*
X173489534Y-133446913D02*
X173546848Y-133357174D01*
X173546848Y-133357174D02*
X173651519Y-133272413D01*
X173651519Y-133272413D02*
X173798571Y-133239987D01*
X173798571Y-133239987D02*
X173893288Y-133249942D01*
X173893288Y-133249942D02*
X174030385Y-133312233D01*
X174030385Y-133312233D02*
X174072765Y-133364569D01*
X174793093Y-133344516D02*
X174718430Y-134054888D01*
X174718430Y-134054888D02*
X174656139Y-134191985D01*
X174656139Y-134191985D02*
X174551468Y-134276747D01*
X174551468Y-134276747D02*
X174404415Y-134309172D01*
X174404415Y-134309172D02*
X174309699Y-134299217D01*
X175635729Y-134438588D02*
X175162147Y-134388813D01*
X175162147Y-134388813D02*
X175266675Y-133394291D01*
X176545489Y-134438445D02*
X176493154Y-134480826D01*
X176493154Y-134480826D02*
X176346101Y-134513252D01*
X176346101Y-134513252D02*
X176251385Y-134503297D01*
X176251385Y-134503297D02*
X176114288Y-134441006D01*
X176114288Y-134441006D02*
X176029527Y-134336334D01*
X176029527Y-134336334D02*
X175992124Y-134236640D01*
X175992124Y-134236640D02*
X175964676Y-134042230D01*
X175964676Y-134042230D02*
X175979608Y-133900155D01*
X175979608Y-133900155D02*
X176046877Y-133715700D01*
X176046877Y-133715700D02*
X176104190Y-133625961D01*
X176104190Y-133625961D02*
X176208861Y-133541200D01*
X176208861Y-133541200D02*
X176355914Y-133508775D01*
X176355914Y-133508775D02*
X176450630Y-133518730D01*
X176450630Y-133518730D02*
X176587727Y-133581021D01*
X176587727Y-133581021D02*
X176630108Y-133633356D01*
X177350435Y-133613303D02*
X177275772Y-134323676D01*
X177275772Y-134323676D02*
X177213481Y-134460773D01*
X177213481Y-134460773D02*
X177108810Y-134545534D01*
X177108810Y-134545534D02*
X176961758Y-134577960D01*
X176961758Y-134577960D02*
X176867042Y-134568005D01*
X178193071Y-134707376D02*
X177719489Y-134657600D01*
X177719489Y-134657600D02*
X177824018Y-133663079D01*
X179102832Y-134707233D02*
X179050496Y-134749614D01*
X179050496Y-134749614D02*
X178903444Y-134782039D01*
X178903444Y-134782039D02*
X178808728Y-134772084D01*
X178808728Y-134772084D02*
X178671631Y-134709793D01*
X178671631Y-134709793D02*
X178586869Y-134605122D01*
X178586869Y-134605122D02*
X178549466Y-134505428D01*
X178549466Y-134505428D02*
X178522018Y-134311018D01*
X178522018Y-134311018D02*
X178536951Y-134168943D01*
X178536951Y-134168943D02*
X178604219Y-133984488D01*
X178604219Y-133984488D02*
X178661532Y-133894749D01*
X178661532Y-133894749D02*
X178766204Y-133809988D01*
X178766204Y-133809988D02*
X178913256Y-133777562D01*
X178913256Y-133777562D02*
X179007972Y-133787517D01*
X179007972Y-133787517D02*
X179145069Y-133849808D01*
X179145069Y-133849808D02*
X179187450Y-133902144D01*
X179907778Y-133882091D02*
X179833115Y-134592463D01*
X179833115Y-134592463D02*
X179770824Y-134729560D01*
X179770824Y-134729560D02*
X179666152Y-134814322D01*
X179666152Y-134814322D02*
X179519100Y-134846747D01*
X179519100Y-134846747D02*
X179424384Y-134836792D01*
X180750413Y-134976163D02*
X180276832Y-134926388D01*
X180276832Y-134926388D02*
X180381360Y-133931866D01*
X181660174Y-134976020D02*
X181607838Y-135018401D01*
X181607838Y-135018401D02*
X181460786Y-135050827D01*
X181460786Y-135050827D02*
X181366070Y-135040872D01*
X181366070Y-135040872D02*
X181228973Y-134978581D01*
X181228973Y-134978581D02*
X181144212Y-134873909D01*
X181144212Y-134873909D02*
X181106809Y-134774215D01*
X181106809Y-134774215D02*
X181079361Y-134579805D01*
X181079361Y-134579805D02*
X181094293Y-134437731D01*
X181094293Y-134437731D02*
X181161562Y-134253275D01*
X181161562Y-134253275D02*
X181218875Y-134163537D01*
X181218875Y-134163537D02*
X181323546Y-134078775D01*
X181323546Y-134078775D02*
X181470598Y-134046350D01*
X181470598Y-134046350D02*
X181565315Y-134056305D01*
X181565315Y-134056305D02*
X181702412Y-134118596D01*
X181702412Y-134118596D02*
X181744792Y-134170931D01*
X153542373Y-142156457D02*
X153459040Y-142061219D01*
X153459040Y-142061219D02*
X153280468Y-141965980D01*
X153280468Y-141965980D02*
X153089992Y-141965980D01*
X153089992Y-141965980D02*
X152887611Y-142061219D01*
X152887611Y-142061219D02*
X152780468Y-142156457D01*
X152780468Y-142156457D02*
X152661421Y-142346933D01*
X152661421Y-142346933D02*
X152637611Y-142537409D01*
X152637611Y-142537409D02*
X152709040Y-142727885D01*
X152709040Y-142727885D02*
X152792373Y-142823123D01*
X152792373Y-142823123D02*
X152970945Y-142918361D01*
X152970945Y-142918361D02*
X153161421Y-142918361D01*
X153161421Y-142918361D02*
X153363802Y-142823123D01*
X153363802Y-142823123D02*
X153470945Y-142727885D01*
X153566183Y-141965980D02*
X153470945Y-142727885D01*
X153470945Y-142727885D02*
X153554278Y-142823123D01*
X153554278Y-142823123D02*
X153649516Y-142823123D01*
X153649516Y-142823123D02*
X153851897Y-142727885D01*
X153851897Y-142727885D02*
X153970945Y-142537409D01*
X153970945Y-142537409D02*
X154030468Y-142061219D01*
X154030468Y-142061219D02*
X153875706Y-141775504D01*
X153875706Y-141775504D02*
X153613802Y-141585028D01*
X153613802Y-141585028D02*
X153244754Y-141489790D01*
X153244754Y-141489790D02*
X152851897Y-141585028D01*
X152851897Y-141585028D02*
X152542373Y-141775504D01*
X152542373Y-141775504D02*
X152316183Y-142061219D01*
X152316183Y-142061219D02*
X152173325Y-142442171D01*
X152173325Y-142442171D02*
X152220945Y-142823123D01*
X152220945Y-142823123D02*
X152375706Y-143108838D01*
X152375706Y-143108838D02*
X152637611Y-143299314D01*
X152637611Y-143299314D02*
X153006659Y-143394552D01*
X153006659Y-143394552D02*
X153399516Y-143299314D01*
X153399516Y-143299314D02*
X153709040Y-143108838D01*
X154756659Y-143108838D02*
X154923326Y-141775504D01*
X154875707Y-142156457D02*
X154994754Y-141965980D01*
X154994754Y-141965980D02*
X155101897Y-141870742D01*
X155101897Y-141870742D02*
X155304278Y-141775504D01*
X155304278Y-141775504D02*
X155494754Y-141775504D01*
X156768564Y-143013600D02*
X156566183Y-143108838D01*
X156566183Y-143108838D02*
X156185230Y-143108838D01*
X156185230Y-143108838D02*
X156006659Y-143013600D01*
X156006659Y-143013600D02*
X155935230Y-142823123D01*
X155935230Y-142823123D02*
X156030469Y-142061219D01*
X156030469Y-142061219D02*
X156149516Y-141870742D01*
X156149516Y-141870742D02*
X156351897Y-141775504D01*
X156351897Y-141775504D02*
X156732849Y-141775504D01*
X156732849Y-141775504D02*
X156911421Y-141870742D01*
X156911421Y-141870742D02*
X156982849Y-142061219D01*
X156982849Y-142061219D02*
X156959040Y-142251695D01*
X156959040Y-142251695D02*
X155982849Y-142442171D01*
X157875707Y-141775504D02*
X157661421Y-143489790D01*
X157661421Y-143489790D02*
X157542374Y-143680266D01*
X157542374Y-143680266D02*
X157339993Y-143775504D01*
X157339993Y-143775504D02*
X157244755Y-143775504D01*
X157959040Y-141108838D02*
X157851897Y-141204076D01*
X157851897Y-141204076D02*
X157935231Y-141299314D01*
X157935231Y-141299314D02*
X158042374Y-141204076D01*
X158042374Y-141204076D02*
X157959040Y-141108838D01*
X157959040Y-141108838D02*
X157935231Y-141299314D01*
X158637612Y-141775504D02*
X158947136Y-143108838D01*
X159589993Y-141775504D02*
X158947136Y-143108838D01*
X158947136Y-143108838D02*
X158697136Y-143585028D01*
X158697136Y-143585028D02*
X158589993Y-143680266D01*
X158589993Y-143680266D02*
X158387612Y-143775504D01*
X160185231Y-143108838D02*
X160351898Y-141775504D01*
X160304279Y-142156457D02*
X160423326Y-141965980D01*
X160423326Y-141965980D02*
X160530469Y-141870742D01*
X160530469Y-141870742D02*
X160732850Y-141775504D01*
X160732850Y-141775504D02*
X160923326Y-141775504D01*
X132268578Y-136367414D02*
X131935245Y-139034081D01*
X132220959Y-136748366D02*
X132435245Y-136557890D01*
X132435245Y-136557890D02*
X132840007Y-136367414D01*
X132840007Y-136367414D02*
X133411435Y-136367414D01*
X133411435Y-136367414D02*
X133768578Y-136557890D01*
X133768578Y-136557890D02*
X133911435Y-136938843D01*
X133911435Y-136938843D02*
X133649531Y-139034081D01*
X135554293Y-139034081D02*
X135887626Y-136367414D01*
X136054293Y-135034081D02*
X135840007Y-135224557D01*
X135840007Y-135224557D02*
X136006674Y-135415033D01*
X136006674Y-135415033D02*
X136220960Y-135224557D01*
X136220960Y-135224557D02*
X136054293Y-135034081D01*
X136054293Y-135034081D02*
X136006674Y-135415033D01*
X139506674Y-136367414D02*
X139101912Y-139605509D01*
X139101912Y-139605509D02*
X138863817Y-139986462D01*
X138863817Y-139986462D02*
X138649531Y-140176938D01*
X138649531Y-140176938D02*
X138244769Y-140367414D01*
X138244769Y-140367414D02*
X137673341Y-140367414D01*
X137673341Y-140367414D02*
X137316198Y-140176938D01*
X139197150Y-138843605D02*
X138792388Y-139034081D01*
X138792388Y-139034081D02*
X138030484Y-139034081D01*
X138030484Y-139034081D02*
X137673341Y-138843605D01*
X137673341Y-138843605D02*
X137506674Y-138653128D01*
X137506674Y-138653128D02*
X137363817Y-138272176D01*
X137363817Y-138272176D02*
X137506674Y-137129319D01*
X137506674Y-137129319D02*
X137744769Y-136748366D01*
X137744769Y-136748366D02*
X137959055Y-136557890D01*
X137959055Y-136557890D02*
X138363817Y-136367414D01*
X138363817Y-136367414D02*
X139125722Y-136367414D01*
X139125722Y-136367414D02*
X139482864Y-136557890D01*
X141078103Y-139034081D02*
X141578103Y-135034081D01*
X142792389Y-139034081D02*
X143054293Y-136938843D01*
X143054293Y-136938843D02*
X142911436Y-136557890D01*
X142911436Y-136557890D02*
X142554293Y-136367414D01*
X142554293Y-136367414D02*
X141982865Y-136367414D01*
X141982865Y-136367414D02*
X141578103Y-136557890D01*
X141578103Y-136557890D02*
X141363817Y-136748366D01*
X144459056Y-136367414D02*
X145982865Y-136367414D01*
X145197151Y-135034081D02*
X144768580Y-138462652D01*
X144768580Y-138462652D02*
X144911437Y-138843605D01*
X144911437Y-138843605D02*
X145268580Y-139034081D01*
X145268580Y-139034081D02*
X145649532Y-139034081D01*
X147316198Y-136367414D02*
X146887627Y-139795985D01*
X146887627Y-139795985D02*
X146649532Y-140176938D01*
X146649532Y-140176938D02*
X146244770Y-140367414D01*
X146244770Y-140367414D02*
X146054294Y-140367414D01*
X147482865Y-135034081D02*
X147268579Y-135224557D01*
X147268579Y-135224557D02*
X147435246Y-135415033D01*
X147435246Y-135415033D02*
X147649532Y-135224557D01*
X147649532Y-135224557D02*
X147482865Y-135034081D01*
X147482865Y-135034081D02*
X147435246Y-135415033D01*
X150601913Y-139034081D02*
X150863817Y-136938843D01*
X150863817Y-136938843D02*
X150720960Y-136557890D01*
X150720960Y-136557890D02*
X150363817Y-136367414D01*
X150363817Y-136367414D02*
X149601913Y-136367414D01*
X149601913Y-136367414D02*
X149197151Y-136557890D01*
X150625722Y-138843605D02*
X150220960Y-139034081D01*
X150220960Y-139034081D02*
X149268579Y-139034081D01*
X149268579Y-139034081D02*
X148911436Y-138843605D01*
X148911436Y-138843605D02*
X148768579Y-138462652D01*
X148768579Y-138462652D02*
X148816198Y-138081700D01*
X148816198Y-138081700D02*
X149054294Y-137700747D01*
X149054294Y-137700747D02*
X149459056Y-137510271D01*
X149459056Y-137510271D02*
X150411436Y-137510271D01*
X150411436Y-137510271D02*
X150816198Y-137319795D01*
X152506675Y-139034081D02*
X152840008Y-136367414D01*
X152744770Y-137129319D02*
X152982865Y-136748366D01*
X152982865Y-136748366D02*
X153197151Y-136557890D01*
X153197151Y-136557890D02*
X153601913Y-136367414D01*
X153601913Y-136367414D02*
X153982865Y-136367414D01*
X155101913Y-135034081D02*
X157578103Y-135034081D01*
X157578103Y-135034081D02*
X156054294Y-136557890D01*
X156054294Y-136557890D02*
X156625722Y-136557890D01*
X156625722Y-136557890D02*
X156982865Y-136748366D01*
X156982865Y-136748366D02*
X157149532Y-136938843D01*
X157149532Y-136938843D02*
X157292389Y-137319795D01*
X157292389Y-137319795D02*
X157173341Y-138272176D01*
X157173341Y-138272176D02*
X156935246Y-138653128D01*
X156935246Y-138653128D02*
X156720960Y-138843605D01*
X156720960Y-138843605D02*
X156316198Y-139034081D01*
X156316198Y-139034081D02*
X155173341Y-139034081D01*
X155173341Y-139034081D02*
X154816198Y-138843605D01*
X154816198Y-138843605D02*
X154649532Y-138653128D01*
X160840008Y-136367414D02*
X160506675Y-139034081D01*
X160078103Y-134843605D02*
X158768579Y-137700747D01*
X158768579Y-137700747D02*
X161244770Y-137700747D01*
X177523939Y-73901902D02*
X177543849Y-73712469D01*
X177543849Y-73712469D02*
X177601163Y-73622730D01*
X177601163Y-73622730D02*
X177705834Y-73537969D01*
X177705834Y-73537969D02*
X177900244Y-73510521D01*
X177900244Y-73510521D02*
X178231752Y-73545364D01*
X178231752Y-73545364D02*
X178416207Y-73612632D01*
X178416207Y-73612632D02*
X178500968Y-73717304D01*
X178500968Y-73717304D02*
X178538371Y-73816998D01*
X178538371Y-73816998D02*
X178518461Y-74006430D01*
X178518461Y-74006430D02*
X178461148Y-74096169D01*
X178461148Y-74096169D02*
X178356476Y-74180930D01*
X178356476Y-74180930D02*
X178162066Y-74208378D01*
X178162066Y-74208378D02*
X177830559Y-74173536D01*
X177830559Y-74173536D02*
X177646104Y-74106267D01*
X177646104Y-74106267D02*
X177561342Y-74001596D01*
X177561342Y-74001596D02*
X177523939Y-73901902D01*
X178121960Y-72767723D02*
X178087117Y-73099230D01*
X178608057Y-73153983D02*
X177613535Y-73049455D01*
X177613535Y-73049455D02*
X177663311Y-72575873D01*
X178211556Y-71915275D02*
X178176713Y-72246783D01*
X178697653Y-72301536D02*
X177703131Y-72197007D01*
X177703131Y-72197007D02*
X177752906Y-71723425D01*
X187503998Y-74615679D02*
X187523908Y-74426246D01*
X187523908Y-74426246D02*
X187581221Y-74336507D01*
X187581221Y-74336507D02*
X187685893Y-74251746D01*
X187685893Y-74251746D02*
X187880303Y-74224298D01*
X187880303Y-74224298D02*
X188211811Y-74259141D01*
X188211811Y-74259141D02*
X188396266Y-74326409D01*
X188396266Y-74326409D02*
X188481027Y-74431081D01*
X188481027Y-74431081D02*
X188518430Y-74530775D01*
X188518430Y-74530775D02*
X188498520Y-74720207D01*
X188498520Y-74720207D02*
X188441207Y-74809946D01*
X188441207Y-74809946D02*
X188336535Y-74894708D01*
X188336535Y-74894708D02*
X188142125Y-74922156D01*
X188142125Y-74922156D02*
X187810618Y-74887313D01*
X187810618Y-74887313D02*
X187626162Y-74820044D01*
X187626162Y-74820044D02*
X187541401Y-74715373D01*
X187541401Y-74715373D02*
X187503998Y-74615679D01*
X188588116Y-73867760D02*
X187593594Y-73763232D01*
X187593594Y-73763232D02*
X188647846Y-73299462D01*
X188647846Y-73299462D02*
X187653324Y-73194933D01*
%TO.C,D6*%
D11*
X117364430Y-72753419D02*
X117763456Y-72725517D01*
X117763456Y-72725517D02*
X117725093Y-72176857D01*
X117763456Y-72725517D02*
X117801829Y-73274179D01*
X117763456Y-72725517D02*
X118334091Y-72284637D01*
X118334091Y-72284637D02*
X118389897Y-73082689D01*
X118361994Y-72683663D02*
X118860776Y-72648785D01*
X118389897Y-73082689D02*
X117763456Y-72725517D01*
%TO.C,D1*%
X103710986Y-132553121D02*
X104091414Y-132429514D01*
X104091414Y-132429514D02*
X103921450Y-131906424D01*
X104091414Y-132429514D02*
X104261369Y-132952596D01*
X104091414Y-132429514D02*
X104538435Y-131863681D01*
X104538435Y-131863681D02*
X104785643Y-132624522D01*
X104662042Y-132244104D02*
X105137570Y-132089595D01*
X104785643Y-132624522D02*
X104091414Y-132429514D01*
%TO.C,PWR1*%
D12*
X179750572Y-72761018D02*
X179667994Y-73546692D01*
X181597009Y-74805222D02*
X181398106Y-74784318D01*
X184580575Y-75118807D02*
X182889888Y-74941109D01*
X186121632Y-72415080D02*
X180452859Y-71819268D01*
X186530195Y-74267937D02*
X186612773Y-73482265D01*
%TO.C,D3*%
D11*
X91968345Y-96412966D02*
X92348773Y-96289359D01*
X92348773Y-96289359D02*
X92178809Y-95766269D01*
X92348773Y-96289359D02*
X92518728Y-96812441D01*
X92348773Y-96289359D02*
X92795794Y-95723526D01*
X92795794Y-95723526D02*
X93043002Y-96484367D01*
X92919401Y-96103949D02*
X93394929Y-95949440D01*
X93043002Y-96484367D02*
X92348773Y-96289359D01*
%TO.C,D17*%
X197196900Y-143861157D02*
X197589555Y-143937486D01*
X197589555Y-143937486D02*
X197484608Y-144477376D01*
X197589555Y-143937486D02*
X197694501Y-143397585D01*
X197589555Y-143937486D02*
X198254850Y-143659316D01*
X198102203Y-144444617D02*
X197589555Y-143937486D01*
X198178534Y-144051966D02*
X198669340Y-144147371D01*
X198254850Y-143659316D02*
X198102203Y-144444617D01*
%TO.C,D11*%
X161095468Y-94314095D02*
X161493276Y-94355906D01*
X161493276Y-94355906D02*
X161435789Y-94902893D01*
X161493276Y-94355906D02*
X161550769Y-93808910D01*
X161493276Y-94355906D02*
X162131801Y-94020815D01*
X162048178Y-94816432D02*
X161493276Y-94355906D01*
X162089989Y-94418623D02*
X162587250Y-94470887D01*
X162131801Y-94020815D02*
X162048178Y-94816432D01*
%TO.C,D9*%
X139590001Y-65261405D02*
X139990001Y-65261405D01*
X139990001Y-65261405D02*
X139990002Y-64711396D01*
X139990001Y-65261405D02*
X139990008Y-65811408D01*
X139990001Y-65261405D02*
X140590001Y-64861405D01*
X140590001Y-64861405D02*
X140590001Y-65661405D01*
X140590001Y-65261405D02*
X141090001Y-65261405D01*
X140590001Y-65661405D02*
X139990001Y-65261405D01*
%TO.C,D14*%
X179677797Y-99283700D02*
X180075605Y-99325511D01*
X180075605Y-99325511D02*
X180018118Y-99872498D01*
X180075605Y-99325511D02*
X180133098Y-98778515D01*
X180075605Y-99325511D02*
X180714130Y-98990420D01*
X180630507Y-99786037D02*
X180075605Y-99325511D01*
X180672318Y-99388228D02*
X181169579Y-99440492D01*
X180714130Y-98990420D02*
X180630507Y-99786037D01*
%TO.C,D16*%
X175354010Y-142107542D02*
X175753949Y-142100561D01*
X175753949Y-142100561D02*
X175744350Y-141550638D01*
X175753949Y-142100561D02*
X175763553Y-142650479D01*
X175753949Y-142100561D02*
X176346877Y-141690151D01*
X176346877Y-141690151D02*
X176360839Y-142490029D01*
X176353858Y-142090090D02*
X176853782Y-142081364D01*
X176360839Y-142490029D02*
X175753949Y-142100561D01*
%TO.C,D15*%
X181663846Y-80387787D02*
X182061654Y-80429598D01*
X182061654Y-80429598D02*
X182004167Y-80976585D01*
X182061654Y-80429598D02*
X182119147Y-79882602D01*
X182061654Y-80429598D02*
X182700179Y-80094507D01*
X182616556Y-80890124D02*
X182061654Y-80429598D01*
X182658367Y-80492315D02*
X183155628Y-80544579D01*
X182700179Y-80094507D02*
X182616556Y-80890124D01*
%TO.C,D10*%
X159109429Y-113210027D02*
X159507237Y-113251838D01*
X159507237Y-113251838D02*
X159449750Y-113798825D01*
X159507237Y-113251838D02*
X159564730Y-112704842D01*
X159507237Y-113251838D02*
X160145762Y-112916747D01*
X160062139Y-113712364D02*
X159507237Y-113251838D01*
X160103950Y-113314555D02*
X160601211Y-113366819D01*
X160145762Y-112916747D02*
X160062139Y-113712364D01*
%TO.C,D13*%
X177691761Y-118179627D02*
X178089569Y-118221438D01*
X178089569Y-118221438D02*
X178032082Y-118768425D01*
X178089569Y-118221438D02*
X178147062Y-117674442D01*
X178089569Y-118221438D02*
X178728094Y-117886347D01*
X178644471Y-118681964D02*
X178089569Y-118221438D01*
X178686282Y-118284155D02*
X179183543Y-118336419D01*
X178728094Y-117886347D02*
X178644471Y-118681964D01*
%TO.C,D5*%
X118689810Y-91707137D02*
X119088836Y-91679235D01*
X119088836Y-91679235D02*
X119050473Y-91130575D01*
X119088836Y-91679235D02*
X119127209Y-92227897D01*
X119088836Y-91679235D02*
X119659471Y-91238355D01*
X119659471Y-91238355D02*
X119715277Y-92036407D01*
X119687374Y-91637381D02*
X120186156Y-91602503D01*
X119715277Y-92036407D02*
X119088836Y-91679235D01*
%TO.C,D2*%
X97839670Y-114483045D02*
X98220098Y-114359438D01*
X98220098Y-114359438D02*
X98050134Y-113836348D01*
X98220098Y-114359438D02*
X98390053Y-114882520D01*
X98220098Y-114359438D02*
X98667119Y-113793605D01*
X98667119Y-113793605D02*
X98914327Y-114554446D01*
X98790726Y-114174028D02*
X99266254Y-114019519D01*
X98914327Y-114554446D02*
X98220098Y-114359438D01*
%TO.C,RST1*%
X101595584Y-87533389D02*
X101518329Y-87295625D01*
X101756094Y-87218371D02*
X101518329Y-87295625D01*
X102522635Y-90386559D02*
X102599889Y-90624323D01*
X102837653Y-90547081D02*
X102599889Y-90624323D01*
X105750531Y-85920487D02*
X105988295Y-85843245D01*
X106065549Y-86081009D02*
X105988295Y-85843245D01*
X106832090Y-89249197D02*
X107069855Y-89171943D01*
X106992600Y-88934179D02*
X107069855Y-89171943D01*
%TO.C,D8*%
X139589995Y-84261404D02*
X139989995Y-84261404D01*
X139989995Y-84261404D02*
X139989996Y-83711395D01*
X139989995Y-84261404D02*
X139990002Y-84811407D01*
X139989995Y-84261404D02*
X140589995Y-83861404D01*
X140589995Y-83861404D02*
X140589995Y-84661404D01*
X140589995Y-84261404D02*
X141089995Y-84261404D01*
X140589995Y-84661404D02*
X139989995Y-84261404D01*
%TO.C,JST1*%
D12*
X116458568Y-127319535D02*
X117456132Y-127249779D01*
X116522738Y-128237293D02*
X116458568Y-127319535D01*
X116815721Y-132427063D02*
X116885484Y-133424628D01*
X116885484Y-133424628D02*
X117883041Y-133354871D01*
X124259519Y-126774040D02*
X123261954Y-126843796D01*
X124323695Y-127691799D02*
X124259519Y-126774040D01*
X124622252Y-131961373D02*
X124686428Y-132879132D01*
X124686428Y-132879132D02*
X123688864Y-132948888D01*
D11*
X124941908Y-128791353D02*
X125939468Y-128721602D01*
X125405805Y-128257693D02*
X125475562Y-129255257D01*
X125615075Y-131250385D02*
X125545320Y-130252816D01*
%TO.C,D12*%
X163081507Y-75418181D02*
X163479315Y-75459992D01*
X163479315Y-75459992D02*
X163421828Y-76006979D01*
X163479315Y-75459992D02*
X163536808Y-74912996D01*
X163479315Y-75459992D02*
X164117840Y-75124901D01*
X164034217Y-75920518D02*
X163479315Y-75459992D01*
X164076028Y-75522709D02*
X164573289Y-75574973D01*
X164117840Y-75124901D02*
X164034217Y-75920518D01*
%TO.C,D7*%
X139589997Y-103261409D02*
X139989997Y-103261409D01*
X139989997Y-103261409D02*
X139989998Y-102711400D01*
X139989997Y-103261409D02*
X139990004Y-103811412D01*
X139989997Y-103261409D02*
X140589997Y-102861409D01*
X140589997Y-102861409D02*
X140589997Y-103661409D01*
X140589997Y-103261409D02*
X141089997Y-103261409D01*
X140589997Y-103661409D02*
X139989997Y-103261409D01*
%TO.C,D4*%
X120015173Y-110660843D02*
X120414199Y-110632941D01*
X120414199Y-110632941D02*
X120375836Y-110084281D01*
X120414199Y-110632941D02*
X120452572Y-111181603D01*
X120414199Y-110632941D02*
X120984834Y-110192061D01*
X120984834Y-110192061D02*
X121040640Y-110990113D01*
X121012737Y-110591087D02*
X121511519Y-110556209D01*
X121040640Y-110990113D02*
X120414199Y-110632941D01*
%TO.C,S15*%
D10*
X179100491Y-92817939D02*
X179545488Y-93367464D01*
X179466341Y-89337112D02*
X180015871Y-88892120D01*
X179545488Y-93367464D02*
X182529053Y-93681049D01*
X180015871Y-88892120D02*
X182303266Y-89132531D01*
X182529053Y-93681049D02*
X183078579Y-93236053D01*
X183174745Y-92321092D02*
X183078579Y-93236053D01*
X184150746Y-87818446D02*
X184223916Y-87122281D01*
X184223916Y-87122281D02*
X188699265Y-87592659D01*
X188207981Y-92266912D02*
X183752525Y-91798622D01*
X188270698Y-91670199D02*
X188207981Y-92266912D01*
X188699265Y-87592659D02*
X188647000Y-88089920D01*
X183174745Y-92321092D02*
G75*
G02*
X183752525Y-91798621I550146J-27677D01*
G01*
X184148656Y-87838337D02*
G75*
G02*
X182303266Y-89132531I-1569780J275581D01*
G01*
%TO.C,S9*%
X138339992Y-77891407D02*
X138839992Y-78391407D01*
X138340001Y-74391408D02*
X138839994Y-73891413D01*
X138839992Y-78391407D02*
X141839992Y-78391407D01*
X138839994Y-73891413D02*
X141139992Y-73891407D01*
X141839992Y-78391407D02*
X142339992Y-77891407D01*
X142339985Y-76971410D02*
X142339992Y-77891407D01*
X142839992Y-71691407D02*
X147339992Y-71691407D01*
X142839992Y-72391407D02*
X142839992Y-71691407D01*
X147339992Y-71691407D02*
X147339992Y-72191407D01*
X147339992Y-75791407D02*
X147339999Y-76391407D01*
X147339999Y-76391407D02*
X142859999Y-76391401D01*
X142339985Y-76971410D02*
G75*
G02*
X142859999Y-76391401I550035J29976D01*
G01*
X142839992Y-72411407D02*
G75*
G02*
X141139992Y-73891407I-1589995J109994D01*
G01*
%TO.C,S8*%
X138339992Y-96891409D02*
X138839992Y-97391409D01*
X138340001Y-93391410D02*
X138839994Y-92891415D01*
X138839992Y-97391409D02*
X141839992Y-97391409D01*
X138839994Y-92891415D02*
X141139992Y-92891409D01*
X141839992Y-97391409D02*
X142339992Y-96891409D01*
X142339985Y-95971412D02*
X142339992Y-96891409D01*
X142839992Y-90691409D02*
X147339992Y-90691409D01*
X142839992Y-91391409D02*
X142839992Y-90691409D01*
X147339992Y-90691409D02*
X147339992Y-91191409D01*
X147339992Y-94791409D02*
X147339999Y-95391409D01*
X147339999Y-95391409D02*
X142859999Y-95391403D01*
X142339985Y-95971412D02*
G75*
G02*
X142859999Y-95391403I550035J29976D01*
G01*
X142839992Y-91411409D02*
G75*
G02*
X141139992Y-92891409I-1589995J109994D01*
G01*
%TO.C,S13*%
X175128413Y-130609775D02*
X175573410Y-131159300D01*
X175494263Y-127128948D02*
X176043793Y-126683956D01*
X175573410Y-131159300D02*
X178556975Y-131472885D01*
X176043793Y-126683956D02*
X178331188Y-126924367D01*
X178556975Y-131472885D02*
X179106501Y-131027889D01*
X179202667Y-130112928D02*
X179106501Y-131027889D01*
X180178668Y-125610282D02*
X180251838Y-124914117D01*
X180251838Y-124914117D02*
X184727187Y-125384495D01*
X184235903Y-130058748D02*
X179780447Y-129590458D01*
X184298620Y-129462035D02*
X184235903Y-130058748D01*
X184727187Y-125384495D02*
X184674922Y-125881756D01*
X179202667Y-130112928D02*
G75*
G02*
X179780447Y-129590457I550146J-27677D01*
G01*
X180176578Y-125630173D02*
G75*
G02*
X178331188Y-126924367I-1569780J275581D01*
G01*
%TO.C,S3*%
X93600840Y-105482389D02*
X93921860Y-104852353D01*
X93921860Y-104852353D02*
X96109290Y-104141614D01*
X94682400Y-108811087D02*
X95312437Y-109132107D01*
X95312437Y-109132107D02*
X98165606Y-108205056D01*
X97046249Y-101523960D02*
X101326003Y-100133384D01*
X97262561Y-102189700D02*
X97046249Y-101523960D01*
X98165606Y-108205056D02*
X98486626Y-107575019D01*
X98202330Y-106700047D02*
X98486626Y-107575019D01*
X101326003Y-100133384D02*
X101480512Y-100608912D01*
X102592973Y-104032716D02*
X102778383Y-104603349D01*
X102778383Y-104603349D02*
X98517650Y-105987746D01*
X97268740Y-102208731D02*
G75*
G02*
X96109290Y-104141614I-1546166J-386717D01*
G01*
X98202330Y-106700047D02*
G75*
G02*
X98517650Y-105987746I513810J198491D01*
G01*
%TO.C,S14*%
X177114452Y-111713851D02*
X177559449Y-112263376D01*
X177480302Y-108233024D02*
X178029832Y-107788032D01*
X177559449Y-112263376D02*
X180543014Y-112576961D01*
X178029832Y-107788032D02*
X180317227Y-108028443D01*
X180543014Y-112576961D02*
X181092540Y-112131965D01*
X181188706Y-111217004D02*
X181092540Y-112131965D01*
X182164707Y-106714358D02*
X182237877Y-106018193D01*
X182237877Y-106018193D02*
X186713226Y-106488571D01*
X186221942Y-111162824D02*
X181766486Y-110694534D01*
X186284659Y-110566111D02*
X186221942Y-111162824D01*
X186713226Y-106488571D02*
X186660961Y-106985832D01*
X181188706Y-111217004D02*
G75*
G02*
X181766486Y-110694533I550146J-27677D01*
G01*
X182162617Y-106734249D02*
G75*
G02*
X180317227Y-108028443I-1569780J275581D01*
G01*
%TO.C,S4*%
X119405105Y-119855816D02*
X119869010Y-119322157D01*
X119649247Y-123347289D02*
X120182907Y-123811193D01*
X119869010Y-119322157D02*
X122163400Y-119161715D01*
X120182907Y-123811193D02*
X123175599Y-123601924D01*
X123175599Y-123601924D02*
X123639503Y-123068263D01*
X123575327Y-122150504D02*
X123639503Y-123068263D01*
X123705795Y-116848488D02*
X128194833Y-116534584D01*
X123754624Y-117546783D02*
X123705795Y-116848488D01*
X128194833Y-116534584D02*
X128229711Y-117033366D01*
X128480833Y-120624597D02*
X128522695Y-121223135D01*
X128522695Y-121223135D02*
X124053606Y-121535642D01*
X123575327Y-122150504D02*
G75*
G02*
X124053606Y-121535642I546568J68293D01*
G01*
X123756019Y-117566734D02*
G75*
G02*
X122163400Y-119161714I-1593798J-1182D01*
G01*
%TO.C,S16*%
X174263549Y-151257966D02*
X174754742Y-150749319D01*
X174324620Y-154757433D02*
X174833270Y-155248631D01*
X174754742Y-150749319D02*
X177054384Y-150709176D01*
X174833270Y-155248631D02*
X177832813Y-155196273D01*
X177832813Y-155196273D02*
X178324011Y-154687623D01*
X178307948Y-153767767D02*
X178324011Y-154687623D01*
X178715730Y-148479842D02*
X183215044Y-148401306D01*
X178727947Y-149179735D02*
X178715730Y-148479842D01*
X183215044Y-148401306D02*
X183223771Y-148901230D01*
X183286599Y-152500681D02*
X183297078Y-153100590D01*
X183297078Y-153100590D02*
X178817760Y-153178771D01*
X178307948Y-153767767D02*
G75*
G02*
X178817760Y-153178771I549428J39571D01*
G01*
X178728296Y-149199732D02*
G75*
G02*
X177054384Y-150709176I-1591673J82228D01*
G01*
%TO.C,S2*%
X99472167Y-123552464D02*
X99793187Y-122922428D01*
X99793187Y-122922428D02*
X101980617Y-122211689D01*
X100553727Y-126881162D02*
X101183764Y-127202182D01*
X101183764Y-127202182D02*
X104036933Y-126275131D01*
X102917576Y-119594035D02*
X107197330Y-118203459D01*
X103133888Y-120259775D02*
X102917576Y-119594035D01*
X104036933Y-126275131D02*
X104357953Y-125645094D01*
X104073657Y-124770122D02*
X104357953Y-125645094D01*
X107197330Y-118203459D02*
X107351839Y-118678987D01*
X108464300Y-122102791D02*
X108649710Y-122673424D01*
X108649710Y-122673424D02*
X104388977Y-124057821D01*
X103140067Y-120278806D02*
G75*
G02*
X101980617Y-122211689I-1546166J-386717D01*
G01*
X104073657Y-124770122D02*
G75*
G02*
X104388977Y-124057821I513810J198491D01*
G01*
%TO.C,S17*%
X193559946Y-156020591D02*
X193955354Y-156606809D01*
X193955354Y-156606809D02*
X196900237Y-157179236D01*
X194227778Y-152584896D02*
X194813996Y-152189497D01*
X194813996Y-152189497D02*
X197071738Y-152628348D01*
X196900237Y-157179236D02*
X197486455Y-156783827D01*
X197661999Y-155880730D02*
X197486455Y-156783827D01*
X199026725Y-151480280D02*
X199160283Y-150793143D01*
X199160283Y-150793143D02*
X203577607Y-151651784D01*
X202680814Y-156265433D02*
X198283115Y-155410607D01*
X202795289Y-155676455D02*
X202680814Y-156265433D01*
X203577607Y-151651784D02*
X203482202Y-152142597D01*
X197661999Y-155880730D02*
G75*
G02*
X198283115Y-155410606I545619J-75495D01*
G01*
X199022902Y-151499915D02*
G75*
G02*
X197071738Y-152628348I-1539796J411361D01*
G01*
%TO.C,S11*%
X158532121Y-106744251D02*
X158977118Y-107293776D01*
X158897971Y-103263424D02*
X159447501Y-102818432D01*
X158977118Y-107293776D02*
X161960683Y-107607361D01*
X159447501Y-102818432D02*
X161734896Y-103058843D01*
X161960683Y-107607361D02*
X162510209Y-107162365D01*
X162606375Y-106247404D02*
X162510209Y-107162365D01*
X163582376Y-101744758D02*
X163655546Y-101048593D01*
X163655546Y-101048593D02*
X168130895Y-101518971D01*
X167639611Y-106193224D02*
X163184155Y-105724934D01*
X167702328Y-105596511D02*
X167639611Y-106193224D01*
X168130895Y-101518971D02*
X168078630Y-102016232D01*
X162606375Y-106247404D02*
G75*
G02*
X163184155Y-105724933I550146J-27677D01*
G01*
X163580286Y-101764649D02*
G75*
G02*
X161734896Y-103058843I-1569780J275581D01*
G01*
%TO.C,S10*%
X156546076Y-125640177D02*
X156991073Y-126189702D01*
X156911926Y-122159350D02*
X157461456Y-121714358D01*
X156991073Y-126189702D02*
X159974638Y-126503287D01*
X157461456Y-121714358D02*
X159748851Y-121954769D01*
X159974638Y-126503287D02*
X160524164Y-126058291D01*
X160620330Y-125143330D02*
X160524164Y-126058291D01*
X161596331Y-120640684D02*
X161669501Y-119944519D01*
X161669501Y-119944519D02*
X166144850Y-120414897D01*
X165653566Y-125089150D02*
X161198110Y-124620860D01*
X165716283Y-124492437D02*
X165653566Y-125089150D01*
X166144850Y-120414897D02*
X166092585Y-120912158D01*
X160620330Y-125143330D02*
G75*
G02*
X161198110Y-124620859I550146J-27677D01*
G01*
X161594241Y-120660575D02*
G75*
G02*
X159748851Y-121954769I-1569780J275581D01*
G01*
%TO.C,S5*%
X118079735Y-100902090D02*
X118543640Y-100368431D01*
X118323877Y-104393563D02*
X118857537Y-104857467D01*
X118543640Y-100368431D02*
X120838030Y-100207989D01*
X118857537Y-104857467D02*
X121850229Y-104648198D01*
X121850229Y-104648198D02*
X122314133Y-104114537D01*
X122249957Y-103196778D02*
X122314133Y-104114537D01*
X122380425Y-97894762D02*
X126869463Y-97580858D01*
X122429254Y-98593057D02*
X122380425Y-97894762D01*
X126869463Y-97580858D02*
X126904341Y-98079640D01*
X127155463Y-101670871D02*
X127197325Y-102269409D01*
X127197325Y-102269409D02*
X122728236Y-102581916D01*
X122249957Y-103196778D02*
G75*
G02*
X122728236Y-102581916I546568J68293D01*
G01*
X122430649Y-98613008D02*
G75*
G02*
X120838030Y-100207988I-1593798J-1182D01*
G01*
%TO.C,S6*%
X116754361Y-81948376D02*
X117218266Y-81414717D01*
X116998503Y-85439849D02*
X117532163Y-85903753D01*
X117218266Y-81414717D02*
X119512656Y-81254275D01*
X117532163Y-85903753D02*
X120524855Y-85694484D01*
X120524855Y-85694484D02*
X120988759Y-85160823D01*
X120924583Y-84243064D02*
X120988759Y-85160823D01*
X121055051Y-78941048D02*
X125544089Y-78627144D01*
X121103880Y-79639343D02*
X121055051Y-78941048D01*
X125544089Y-78627144D02*
X125578967Y-79125926D01*
X125830089Y-82717157D02*
X125871951Y-83315695D01*
X125871951Y-83315695D02*
X121402862Y-83628202D01*
X120924583Y-84243064D02*
G75*
G02*
X121402862Y-83628202I546568J68293D01*
G01*
X121105275Y-79659294D02*
G75*
G02*
X119512656Y-81254274I-1593798J-1182D01*
G01*
%TO.C,S12*%
X160518167Y-87848329D02*
X160963164Y-88397854D01*
X160884017Y-84367502D02*
X161433547Y-83922510D01*
X160963164Y-88397854D02*
X163946729Y-88711439D01*
X161433547Y-83922510D02*
X163720942Y-84162921D01*
X163946729Y-88711439D02*
X164496255Y-88266443D01*
X164592421Y-87351482D02*
X164496255Y-88266443D01*
X165568422Y-82848836D02*
X165641592Y-82152671D01*
X165641592Y-82152671D02*
X170116941Y-82623049D01*
X169625657Y-87297302D02*
X165170201Y-86829012D01*
X169688374Y-86700589D02*
X169625657Y-87297302D01*
X170116941Y-82623049D02*
X170064676Y-83120310D01*
X164592421Y-87351482D02*
G75*
G02*
X165170201Y-86829011I550146J-27677D01*
G01*
X165566332Y-82868727D02*
G75*
G02*
X163720942Y-84162921I-1569780J275581D01*
G01*
%TO.C,S7*%
X138340003Y-115891408D02*
X138840003Y-116391408D01*
X138340012Y-112391409D02*
X138840005Y-111891414D01*
X138840003Y-116391408D02*
X141840003Y-116391408D01*
X138840005Y-111891414D02*
X141140003Y-111891408D01*
X141840003Y-116391408D02*
X142340003Y-115891408D01*
X142339996Y-114971411D02*
X142340003Y-115891408D01*
X142840003Y-109691408D02*
X147340003Y-109691408D01*
X142840003Y-110391408D02*
X142840003Y-109691408D01*
X147340003Y-109691408D02*
X147340003Y-110191408D01*
X147340003Y-113791408D02*
X147340010Y-114391408D01*
X147340010Y-114391408D02*
X142860010Y-114391402D01*
X142339996Y-114971411D02*
G75*
G02*
X142860010Y-114391402I550035J29976D01*
G01*
X142840003Y-110411408D02*
G75*
G02*
X141140003Y-111891408I-1589995J109994D01*
G01*
%TO.C,S1*%
X105343499Y-141622536D02*
X105664519Y-140992500D01*
X105664519Y-140992500D02*
X107851949Y-140281761D01*
X106425059Y-144951234D02*
X107055096Y-145272254D01*
X107055096Y-145272254D02*
X109908265Y-144345203D01*
X108788908Y-137664107D02*
X113068662Y-136273531D01*
X109005220Y-138329847D02*
X108788908Y-137664107D01*
X109908265Y-144345203D02*
X110229285Y-143715166D01*
X109944989Y-142840194D02*
X110229285Y-143715166D01*
X113068662Y-136273531D02*
X113223171Y-136749059D01*
X114335632Y-140172863D02*
X114521042Y-140743496D01*
X114521042Y-140743496D02*
X110260309Y-142127893D01*
X109011399Y-138348878D02*
G75*
G02*
X107851949Y-140281761I-1546166J-386717D01*
G01*
X109944989Y-142840194D02*
G75*
G02*
X110260309Y-142127893I513810J198491D01*
G01*
%TD*%
M02*
