M48
; DRILL file KiCad 10.0.1 date 2026-06-11T23:49:42
; FORMAT={-:-/ absolute / metric / decimal}
; #@! TF.CreationDate,2026-06-11T23:49:42-04:00
; #@! TF.GenerationSoftware,Kicad,Pcbnew,10.0.1
; #@! TF.FileFunction,Plated,1,2,PTH
FMAT,2
METRIC
; #@! TA.AperFunction,Plated,PTH,ViaDrill
T1C0.300
; #@! TA.AperFunction,Plated,PTH,ComponentDrill
T2C0.750
; #@! TA.AperFunction,Plated,PTH,ComponentDrill
T3C1.000
; #@! TA.AperFunction,Plated,PTH,ComponentDrill
T4C1.016
; #@! TA.AperFunction,Plated,PTH,ComponentDrill
T5C2.200
%
G90
G05
T1
X89.971Y-97.062
X95.155Y-103.794
X95.392Y-95.301
X95.403Y-104.555
X95.842Y-115.132
X101.027Y-121.864
X101.263Y-113.371
X101.274Y-122.625
X101.535Y-88.237
X101.714Y-133.202
X102.06Y-89.853
X106.528Y-86.614
X106.898Y-139.935
X107.053Y-88.231
X107.135Y-131.441
X107.145Y-140.695
X109.356Y-123.769
X115.27Y-72.9
X116.595Y-91.854
X117.92Y-110.807
X118.671Y-80.687
X118.727Y-81.485
X119.996Y-99.64
X120.052Y-100.438
X120.956Y-72.502
X120.997Y-132.555
X121.322Y-118.594
X121.378Y-119.392
X122.281Y-91.456
X123.606Y-110.41
X123.84Y-125.657
X137.49Y-65.261
X137.49Y-84.261
X137.49Y-103.261
X140.34Y-92.266
X140.34Y-112.066
X140.34Y-93.066
X140.34Y-111.266
X140.34Y-73.266
X140.34Y-74.066
X143.19Y-103.261
X143.19Y-65.261
X143.19Y-84.261
X151.246Y-129.214
X157.021Y-112.991
X158.935Y-122.045
X159.007Y-94.095
X159.019Y-121.25
X160.921Y-103.149
X160.993Y-75.199
X161.005Y-102.354
X162.69Y-113.586
X162.907Y-84.253
X162.991Y-83.458
X164.676Y-94.69
X166.662Y-75.794
X173.254Y-142.144
X175.603Y-117.96
X176.244Y-150.098
X176.258Y-150.898
X177.517Y-127.015
X177.589Y-99.064
X177.601Y-126.219
X178.953Y-142.045
X179.503Y-108.119
X179.575Y-80.168
X179.587Y-107.323
X181.272Y-118.556
X181.489Y-89.223
X181.573Y-88.427
X182.211Y-75.181
X183.258Y-99.66
X185.195Y-75.495
X185.244Y-80.764
X186.573Y-147.445
X192.163Y-147.513
X195.135Y-143.46
X196.253Y-152.647
X196.406Y-151.862
X196.873Y-121.274
X200.731Y-144.548
X204.603Y-118.192
X204.63Y-123.291
T2
X118.059Y-129.273
X118.198Y-131.268
T3
X190.784Y-132.988
X191.268Y-130.494
X191.753Y-128.001
X192.238Y-125.508
X192.722Y-123.014
X193.207Y-120.521
X193.692Y-118.028
X205.744Y-135.896
X206.228Y-133.402
X206.713Y-130.909
X207.198Y-128.416
X207.682Y-125.922
X208.167Y-123.429
X208.652Y-120.936
T4
X195.415Y-125.802
X195.778Y-123.932
X199.622Y-120.798
X200.107Y-118.305
X202.115Y-121.283
X202.6Y-118.789
X204.142Y-127.499
X204.505Y-125.629
T5
X106.117Y-93.845
X121.105Y-139.971
X173.335Y-75.923
X187.926Y-140.46
M30
