%TF.GenerationSoftware,KiCad,Pcbnew,10.0.1*%
%TF.CreationDate,2026-06-11T23:50:18-04:00*%
%TF.ProjectId,pcb,7063622e-6b69-4636-9164-5f7063625858,v1.0.0*%
%TF.SameCoordinates,Original*%
%TF.FileFunction,Legend,Bot*%
%TF.FilePolarity,Positive*%
%FSLAX46Y46*%
G04 Gerber Fmt 4.6, Leading zero omitted, Abs format (unit mm)*
G04 Created by KiCad (PCBNEW 10.0.1) date 2026-06-11 23:50:18*
%MOMM*%
%LPD*%
G01*
G04 APERTURE LIST*
%ADD10C,0.150000*%
%ADD11C,0.100000*%
%ADD12C,0.120000*%
G04 APERTURE END LIST*
D10*
X203714826Y-134973764D02*
X203612252Y-135002335D01*
X203612252Y-135002335D02*
X203425275Y-134965991D01*
X203425275Y-134965991D02*
X203340873Y-134901074D01*
X203340873Y-134901074D02*
X203312301Y-134798500D01*
X203312301Y-134798500D02*
X203321387Y-134751756D01*
X203321387Y-134751756D02*
X203386304Y-134667354D01*
X203386304Y-134667354D02*
X203488878Y-134638782D01*
X203488878Y-134638782D02*
X203629111Y-134666040D01*
X203629111Y-134666040D02*
X203731685Y-134637468D01*
X203731685Y-134637468D02*
X203796602Y-134553066D01*
X203796602Y-134553066D02*
X203805688Y-134506322D01*
X203805688Y-134506322D02*
X203777116Y-134403748D01*
X203777116Y-134403748D02*
X203692714Y-134338831D01*
X203692714Y-134338831D02*
X203552481Y-134311573D01*
X203552481Y-134311573D02*
X203449907Y-134340145D01*
X202724113Y-134829699D02*
X202826687Y-134801127D01*
X202826687Y-134801127D02*
X202882518Y-134763469D01*
X202882518Y-134763469D02*
X202947434Y-134679067D01*
X202947434Y-134679067D02*
X203001951Y-134398602D01*
X203001951Y-134398602D02*
X202973379Y-134296027D01*
X202973379Y-134296027D02*
X202935721Y-134240197D01*
X202935721Y-134240197D02*
X202851319Y-134175281D01*
X202851319Y-134175281D02*
X202711086Y-134148022D01*
X202711086Y-134148022D02*
X202608512Y-134176594D01*
X202608512Y-134176594D02*
X202552682Y-134214252D01*
X202552682Y-134214252D02*
X202487765Y-134298654D01*
X202487765Y-134298654D02*
X202433248Y-134579119D01*
X202433248Y-134579119D02*
X202461820Y-134681694D01*
X202461820Y-134681694D02*
X202499478Y-134737524D01*
X202499478Y-134737524D02*
X202583880Y-134802440D01*
X202583880Y-134802440D02*
X202724113Y-134829699D01*
X201835974Y-134657062D02*
X201938548Y-134628490D01*
X201938548Y-134628490D02*
X202003465Y-134544088D01*
X202003465Y-134544088D02*
X202167015Y-133702693D01*
X201041323Y-134502597D02*
X201232132Y-133520970D01*
X201050409Y-134455853D02*
X201134811Y-134520770D01*
X201134811Y-134520770D02*
X201321788Y-134557114D01*
X201321788Y-134557114D02*
X201424362Y-134528542D01*
X201424362Y-134528542D02*
X201480192Y-134490884D01*
X201480192Y-134490884D02*
X201545109Y-134406482D01*
X201545109Y-134406482D02*
X201599626Y-134126017D01*
X201599626Y-134126017D02*
X201571054Y-134023443D01*
X201571054Y-134023443D02*
X201533396Y-133967613D01*
X201533396Y-133967613D02*
X201448994Y-133902696D01*
X201448994Y-133902696D02*
X201262017Y-133866352D01*
X201262017Y-133866352D02*
X201159443Y-133894923D01*
X200209014Y-134292303D02*
X200293416Y-134357219D01*
X200293416Y-134357219D02*
X200480393Y-134393564D01*
X200480393Y-134393564D02*
X200582967Y-134364992D01*
X200582967Y-134364992D02*
X200647884Y-134280590D01*
X200647884Y-134280590D02*
X200720573Y-133906636D01*
X200720573Y-133906636D02*
X200692001Y-133804062D01*
X200692001Y-133804062D02*
X200607599Y-133739146D01*
X200607599Y-133739146D02*
X200420622Y-133702801D01*
X200420622Y-133702801D02*
X200318048Y-133731373D01*
X200318048Y-133731373D02*
X200253131Y-133815775D01*
X200253131Y-133815775D02*
X200234959Y-133909263D01*
X200234959Y-133909263D02*
X200684228Y-134093613D01*
X199732486Y-134248185D02*
X199859692Y-133593767D01*
X199823348Y-133780744D02*
X199794776Y-133678169D01*
X199794776Y-133678169D02*
X199757118Y-133622339D01*
X199757118Y-133622339D02*
X199672716Y-133557423D01*
X199672716Y-133557423D02*
X199579227Y-133539250D01*
X198504111Y-133330269D02*
X198340561Y-134171664D01*
X198340561Y-134171664D02*
X198369133Y-134274238D01*
X198369133Y-134274238D02*
X198453535Y-134339155D01*
X198453535Y-134339155D02*
X198500279Y-134348241D01*
X198567714Y-133003060D02*
X198605372Y-133058890D01*
X198605372Y-133058890D02*
X198549542Y-133096548D01*
X198549542Y-133096548D02*
X198511884Y-133040718D01*
X198511884Y-133040718D02*
X198567714Y-133003060D01*
X198567714Y-133003060D02*
X198549542Y-133096548D01*
X197615973Y-133157632D02*
X197488767Y-133812051D01*
X198036670Y-133239408D02*
X197936723Y-133753593D01*
X197936723Y-133753593D02*
X197871806Y-133837996D01*
X197871806Y-133837996D02*
X197769232Y-133866567D01*
X197769232Y-133866567D02*
X197628999Y-133839309D01*
X197628999Y-133839309D02*
X197544597Y-133774393D01*
X197544597Y-133774393D02*
X197506939Y-133718562D01*
X197021325Y-133721189D02*
X197148531Y-133066771D01*
X197130359Y-133160259D02*
X197092701Y-133104429D01*
X197092701Y-133104429D02*
X197008299Y-133039513D01*
X197008299Y-133039513D02*
X196868066Y-133012254D01*
X196868066Y-133012254D02*
X196765492Y-133040826D01*
X196765492Y-133040826D02*
X196700575Y-133125228D01*
X196700575Y-133125228D02*
X196600628Y-133639414D01*
X196700575Y-133125228D02*
X196672004Y-133022654D01*
X196672004Y-133022654D02*
X196587601Y-132957737D01*
X196587601Y-132957737D02*
X196447369Y-132930479D01*
X196447369Y-132930479D02*
X196344795Y-132959051D01*
X196344795Y-132959051D02*
X196279878Y-133043453D01*
X196279878Y-133043453D02*
X196179931Y-133557639D01*
X195839695Y-132812359D02*
X195648886Y-133793986D01*
X195830609Y-132859103D02*
X195746207Y-132794187D01*
X195746207Y-132794187D02*
X195559230Y-132757842D01*
X195559230Y-132757842D02*
X195456656Y-132786414D01*
X195456656Y-132786414D02*
X195400826Y-132824072D01*
X195400826Y-132824072D02*
X195335909Y-132908474D01*
X195335909Y-132908474D02*
X195281392Y-133188939D01*
X195281392Y-133188939D02*
X195309964Y-133291514D01*
X195309964Y-133291514D02*
X195347622Y-133347344D01*
X195347622Y-133347344D02*
X195432024Y-133412260D01*
X195432024Y-133412260D02*
X195619001Y-133448605D01*
X195619001Y-133448605D02*
X195721575Y-133420033D01*
X194459483Y-133174707D02*
X194543885Y-133239624D01*
X194543885Y-133239624D02*
X194730862Y-133275968D01*
X194730862Y-133275968D02*
X194833436Y-133247396D01*
X194833436Y-133247396D02*
X194898353Y-133162994D01*
X194898353Y-133162994D02*
X194971042Y-132789041D01*
X194971042Y-132789041D02*
X194942470Y-132686466D01*
X194942470Y-132686466D02*
X194858068Y-132621550D01*
X194858068Y-132621550D02*
X194671091Y-132585205D01*
X194671091Y-132585205D02*
X194568517Y-132613777D01*
X194568517Y-132613777D02*
X194503601Y-132698179D01*
X194503601Y-132698179D02*
X194485428Y-132791668D01*
X194485428Y-132791668D02*
X194934697Y-132976018D01*
X193982955Y-133130590D02*
X194110161Y-132476172D01*
X194073817Y-132663148D02*
X194045245Y-132560574D01*
X194045245Y-132560574D02*
X194007587Y-132504744D01*
X194007587Y-132504744D02*
X193923185Y-132439827D01*
X193923185Y-132439827D02*
X193829697Y-132421655D01*
X193431111Y-132974812D02*
X193328537Y-133003384D01*
X193328537Y-133003384D02*
X193141560Y-132967039D01*
X193141560Y-132967039D02*
X193057158Y-132902123D01*
X193057158Y-132902123D02*
X193028586Y-132799548D01*
X193028586Y-132799548D02*
X193037672Y-132752804D01*
X193037672Y-132752804D02*
X193102589Y-132668402D01*
X193102589Y-132668402D02*
X193205163Y-132639830D01*
X193205163Y-132639830D02*
X193345396Y-132667089D01*
X193345396Y-132667089D02*
X193447970Y-132638517D01*
X193447970Y-132638517D02*
X193512887Y-132554115D01*
X193512887Y-132554115D02*
X193521973Y-132507370D01*
X193521973Y-132507370D02*
X193493401Y-132404796D01*
X193493401Y-132404796D02*
X193408999Y-132339880D01*
X193408999Y-132339880D02*
X193268766Y-132312621D01*
X193268766Y-132312621D02*
X193166192Y-132341193D01*
X202590871Y-135764732D02*
X202216918Y-135692043D01*
X202323433Y-136391891D02*
X202486983Y-135550497D01*
X202486983Y-135550497D02*
X202458411Y-135447922D01*
X202458411Y-135447922D02*
X202374009Y-135383006D01*
X202374009Y-135383006D02*
X202280521Y-135364834D01*
X201622270Y-136255599D02*
X201724844Y-136227027D01*
X201724844Y-136227027D02*
X201780675Y-136189369D01*
X201780675Y-136189369D02*
X201845591Y-136104967D01*
X201845591Y-136104967D02*
X201900108Y-135824502D01*
X201900108Y-135824502D02*
X201871536Y-135721928D01*
X201871536Y-135721928D02*
X201833878Y-135666098D01*
X201833878Y-135666098D02*
X201749476Y-135601181D01*
X201749476Y-135601181D02*
X201609244Y-135573923D01*
X201609244Y-135573923D02*
X201506669Y-135602495D01*
X201506669Y-135602495D02*
X201450839Y-135640153D01*
X201450839Y-135640153D02*
X201385922Y-135724555D01*
X201385922Y-135724555D02*
X201331406Y-136005020D01*
X201331406Y-136005020D02*
X201359977Y-136107594D01*
X201359977Y-136107594D02*
X201397635Y-136163424D01*
X201397635Y-136163424D02*
X201482038Y-136228341D01*
X201482038Y-136228341D02*
X201622270Y-136255599D01*
X200874363Y-136110221D02*
X201001569Y-135455803D01*
X200965225Y-135642779D02*
X200936653Y-135540205D01*
X200936653Y-135540205D02*
X200898995Y-135484375D01*
X200898995Y-135484375D02*
X200814593Y-135419458D01*
X200814593Y-135419458D02*
X200721105Y-135401286D01*
X199378550Y-135819464D02*
X199481124Y-135790892D01*
X199481124Y-135790892D02*
X199546041Y-135706490D01*
X199546041Y-135706490D02*
X199709591Y-134865096D01*
X198639729Y-135627342D02*
X198724131Y-135692258D01*
X198724131Y-135692258D02*
X198911108Y-135728603D01*
X198911108Y-135728603D02*
X199013682Y-135700031D01*
X199013682Y-135700031D02*
X199078599Y-135615629D01*
X199078599Y-135615629D02*
X199151288Y-135241676D01*
X199151288Y-135241676D02*
X199122716Y-135139101D01*
X199122716Y-135139101D02*
X199038314Y-135074185D01*
X199038314Y-135074185D02*
X198851337Y-135037840D01*
X198851337Y-135037840D02*
X198748763Y-135066412D01*
X198748763Y-135066412D02*
X198683847Y-135150814D01*
X198683847Y-135150814D02*
X198665674Y-135244302D01*
X198665674Y-135244302D02*
X199114943Y-135428652D01*
X198430640Y-134956065D02*
X198056687Y-134883376D01*
X198163201Y-135583224D02*
X198326752Y-134741830D01*
X198326752Y-134741830D02*
X198298180Y-134639255D01*
X198298180Y-134639255D02*
X198213778Y-134574339D01*
X198213778Y-134574339D02*
X198120290Y-134556167D01*
X197869710Y-134847031D02*
X197495756Y-134774342D01*
X197793080Y-134492563D02*
X197629530Y-135333958D01*
X197629530Y-135333958D02*
X197564613Y-135418360D01*
X197564613Y-135418360D02*
X197462039Y-135446932D01*
X197462039Y-135446932D02*
X197368550Y-135428760D01*
X196349265Y-135182121D02*
X196246690Y-135210692D01*
X196246690Y-135210692D02*
X196059714Y-135174348D01*
X196059714Y-135174348D02*
X195975311Y-135109431D01*
X195975311Y-135109431D02*
X195946740Y-135006857D01*
X195946740Y-135006857D02*
X195955826Y-134960113D01*
X195955826Y-134960113D02*
X196020742Y-134875711D01*
X196020742Y-134875711D02*
X196123317Y-134847139D01*
X196123317Y-134847139D02*
X196263549Y-134874397D01*
X196263549Y-134874397D02*
X196366123Y-134845825D01*
X196366123Y-134845825D02*
X196431040Y-134761423D01*
X196431040Y-134761423D02*
X196440126Y-134714679D01*
X196440126Y-134714679D02*
X196411554Y-134612105D01*
X196411554Y-134612105D02*
X196327152Y-134547188D01*
X196327152Y-134547188D02*
X196186920Y-134519930D01*
X196186920Y-134519930D02*
X196084345Y-134548502D01*
X195498784Y-135065314D02*
X195625990Y-134410896D01*
X195689593Y-134083687D02*
X195727251Y-134139517D01*
X195727251Y-134139517D02*
X195671420Y-134177175D01*
X195671420Y-134177175D02*
X195633762Y-134121345D01*
X195633762Y-134121345D02*
X195689593Y-134083687D01*
X195689593Y-134083687D02*
X195671420Y-134177175D01*
X194610645Y-134892677D02*
X194801454Y-133911050D01*
X194619731Y-134845933D02*
X194704133Y-134910850D01*
X194704133Y-134910850D02*
X194891110Y-134947194D01*
X194891110Y-134947194D02*
X194993685Y-134918622D01*
X194993685Y-134918622D02*
X195049515Y-134880964D01*
X195049515Y-134880964D02*
X195114431Y-134796562D01*
X195114431Y-134796562D02*
X195168948Y-134516097D01*
X195168948Y-134516097D02*
X195140376Y-134413523D01*
X195140376Y-134413523D02*
X195102718Y-134357693D01*
X195102718Y-134357693D02*
X195018316Y-134292776D01*
X195018316Y-134292776D02*
X194831339Y-134256432D01*
X194831339Y-134256432D02*
X194728765Y-134285003D01*
X193778336Y-134682383D02*
X193862739Y-134747299D01*
X193862739Y-134747299D02*
X194049715Y-134783644D01*
X194049715Y-134783644D02*
X194152290Y-134755072D01*
X194152290Y-134755072D02*
X194217206Y-134670670D01*
X194217206Y-134670670D02*
X194289895Y-134296716D01*
X194289895Y-134296716D02*
X194261323Y-134194142D01*
X194261323Y-134194142D02*
X194176921Y-134129226D01*
X194176921Y-134129226D02*
X193989945Y-134092881D01*
X193989945Y-134092881D02*
X193887370Y-134121453D01*
X193887370Y-134121453D02*
X193822454Y-134205855D01*
X193822454Y-134205855D02*
X193804281Y-134299343D01*
X193804281Y-134299343D02*
X194253551Y-134483693D01*
X181423240Y-134041372D02*
X181348577Y-134751745D01*
X181348577Y-134751745D02*
X181381003Y-134898797D01*
X181381003Y-134898797D02*
X181465764Y-135003468D01*
X181465764Y-135003468D02*
X181602861Y-135065759D01*
X181602861Y-135065759D02*
X181697577Y-135075714D01*
X180371548Y-134936343D02*
X180845130Y-134986119D01*
X180845130Y-134986119D02*
X180949658Y-133991597D01*
X179481697Y-134747053D02*
X179524078Y-134799389D01*
X179524078Y-134799389D02*
X179661175Y-134861680D01*
X179661175Y-134861680D02*
X179755891Y-134871635D01*
X179755891Y-134871635D02*
X179902943Y-134839209D01*
X179902943Y-134839209D02*
X180007615Y-134754448D01*
X180007615Y-134754448D02*
X180064928Y-134664709D01*
X180064928Y-134664709D02*
X180132196Y-134480254D01*
X180132196Y-134480254D02*
X180147129Y-134338180D01*
X180147129Y-134338180D02*
X180119681Y-134143769D01*
X180119681Y-134143769D02*
X180082278Y-134044075D01*
X180082278Y-134044075D02*
X179997517Y-133939404D01*
X179997517Y-133939404D02*
X179860420Y-133877113D01*
X179860420Y-133877113D02*
X179765703Y-133867158D01*
X179765703Y-133867158D02*
X179618651Y-133899584D01*
X179618651Y-133899584D02*
X179566316Y-133941964D01*
X178865898Y-133772585D02*
X178791235Y-134482957D01*
X178791235Y-134482957D02*
X178823660Y-134630010D01*
X178823660Y-134630010D02*
X178908421Y-134734681D01*
X178908421Y-134734681D02*
X179045518Y-134796972D01*
X179045518Y-134796972D02*
X179140235Y-134806927D01*
X177814205Y-134667556D02*
X178287787Y-134717331D01*
X178287787Y-134717331D02*
X178392316Y-133722809D01*
X176924355Y-134478266D02*
X176966735Y-134530602D01*
X176966735Y-134530602D02*
X177103832Y-134592892D01*
X177103832Y-134592892D02*
X177198549Y-134602847D01*
X177198549Y-134602847D02*
X177345601Y-134570422D01*
X177345601Y-134570422D02*
X177450272Y-134485661D01*
X177450272Y-134485661D02*
X177507586Y-134395922D01*
X177507586Y-134395922D02*
X177574854Y-134211467D01*
X177574854Y-134211467D02*
X177589787Y-134069392D01*
X177589787Y-134069392D02*
X177562339Y-133874982D01*
X177562339Y-133874982D02*
X177524936Y-133775288D01*
X177524936Y-133775288D02*
X177440174Y-133670616D01*
X177440174Y-133670616D02*
X177303077Y-133608326D01*
X177303077Y-133608326D02*
X177208361Y-133598370D01*
X177208361Y-133598370D02*
X177061309Y-133630796D01*
X177061309Y-133630796D02*
X177008973Y-133673177D01*
X176308555Y-133503797D02*
X176233892Y-134214170D01*
X176233892Y-134214170D02*
X176266318Y-134361222D01*
X176266318Y-134361222D02*
X176351079Y-134465893D01*
X176351079Y-134465893D02*
X176488176Y-134528184D01*
X176488176Y-134528184D02*
X176582892Y-134538139D01*
X175256863Y-134398768D02*
X175730445Y-134448544D01*
X175730445Y-134448544D02*
X175834973Y-133454022D01*
X174367012Y-134209478D02*
X174409393Y-134261814D01*
X174409393Y-134261814D02*
X174546490Y-134324105D01*
X174546490Y-134324105D02*
X174641206Y-134334060D01*
X174641206Y-134334060D02*
X174788258Y-134301634D01*
X174788258Y-134301634D02*
X174892930Y-134216873D01*
X174892930Y-134216873D02*
X174950243Y-134127134D01*
X174950243Y-134127134D02*
X175017512Y-133942679D01*
X175017512Y-133942679D02*
X175032444Y-133800605D01*
X175032444Y-133800605D02*
X175004996Y-133606194D01*
X175004996Y-133606194D02*
X174967593Y-133506500D01*
X174967593Y-133506500D02*
X174882832Y-133401829D01*
X174882832Y-133401829D02*
X174745735Y-133339538D01*
X174745735Y-133339538D02*
X174651018Y-133329583D01*
X174651018Y-133329583D02*
X174503966Y-133362008D01*
X174503966Y-133362008D02*
X174451631Y-133404389D01*
X173751213Y-133235010D02*
X173676550Y-133945382D01*
X173676550Y-133945382D02*
X173708975Y-134092434D01*
X173708975Y-134092434D02*
X173793737Y-134197106D01*
X173793737Y-134197106D02*
X173930834Y-134259397D01*
X173930834Y-134259397D02*
X174025550Y-134269352D01*
X172699521Y-134129981D02*
X173173102Y-134179756D01*
X173173102Y-134179756D02*
X173277631Y-133185234D01*
X171809670Y-133940691D02*
X171852051Y-133993027D01*
X171852051Y-133993027D02*
X171989148Y-134055317D01*
X171989148Y-134055317D02*
X172083864Y-134065272D01*
X172083864Y-134065272D02*
X172230916Y-134032847D01*
X172230916Y-134032847D02*
X172335587Y-133948086D01*
X172335587Y-133948086D02*
X172392901Y-133858347D01*
X172392901Y-133858347D02*
X172460169Y-133673892D01*
X172460169Y-133673892D02*
X172475102Y-133531817D01*
X172475102Y-133531817D02*
X172447654Y-133337407D01*
X172447654Y-133337407D02*
X172410251Y-133237713D01*
X172410251Y-133237713D02*
X172325489Y-133133041D01*
X172325489Y-133133041D02*
X172188392Y-133070751D01*
X172188392Y-133070751D02*
X172093676Y-133060795D01*
X172093676Y-133060795D02*
X171946624Y-133093221D01*
X171946624Y-133093221D02*
X171894288Y-133135602D01*
X159137612Y-142156457D02*
X159220945Y-142061219D01*
X159220945Y-142061219D02*
X159399517Y-141965980D01*
X159399517Y-141965980D02*
X159589993Y-141965980D01*
X159589993Y-141965980D02*
X159792374Y-142061219D01*
X159792374Y-142061219D02*
X159899517Y-142156457D01*
X159899517Y-142156457D02*
X160018564Y-142346933D01*
X160018564Y-142346933D02*
X160042374Y-142537409D01*
X160042374Y-142537409D02*
X159970945Y-142727885D01*
X159970945Y-142727885D02*
X159887612Y-142823123D01*
X159887612Y-142823123D02*
X159709041Y-142918361D01*
X159709041Y-142918361D02*
X159518564Y-142918361D01*
X159518564Y-142918361D02*
X159316183Y-142823123D01*
X159316183Y-142823123D02*
X159209041Y-142727885D01*
X159113802Y-141965980D02*
X159209041Y-142727885D01*
X159209041Y-142727885D02*
X159125707Y-142823123D01*
X159125707Y-142823123D02*
X159030469Y-142823123D01*
X159030469Y-142823123D02*
X158828088Y-142727885D01*
X158828088Y-142727885D02*
X158709041Y-142537409D01*
X158709041Y-142537409D02*
X158649517Y-142061219D01*
X158649517Y-142061219D02*
X158804279Y-141775504D01*
X158804279Y-141775504D02*
X159066183Y-141585028D01*
X159066183Y-141585028D02*
X159435231Y-141489790D01*
X159435231Y-141489790D02*
X159828088Y-141585028D01*
X159828088Y-141585028D02*
X160137612Y-141775504D01*
X160137612Y-141775504D02*
X160363802Y-142061219D01*
X160363802Y-142061219D02*
X160506660Y-142442171D01*
X160506660Y-142442171D02*
X160459041Y-142823123D01*
X160459041Y-142823123D02*
X160304279Y-143108838D01*
X160304279Y-143108838D02*
X160042374Y-143299314D01*
X160042374Y-143299314D02*
X159673326Y-143394552D01*
X159673326Y-143394552D02*
X159280469Y-143299314D01*
X159280469Y-143299314D02*
X158970945Y-143108838D01*
X157923326Y-143108838D02*
X157756659Y-141775504D01*
X157804278Y-142156457D02*
X157685231Y-141965980D01*
X157685231Y-141965980D02*
X157578088Y-141870742D01*
X157578088Y-141870742D02*
X157375707Y-141775504D01*
X157375707Y-141775504D02*
X157185231Y-141775504D01*
X155911421Y-143013600D02*
X156113802Y-143108838D01*
X156113802Y-143108838D02*
X156494755Y-143108838D01*
X156494755Y-143108838D02*
X156673326Y-143013600D01*
X156673326Y-143013600D02*
X156744755Y-142823123D01*
X156744755Y-142823123D02*
X156649517Y-142061219D01*
X156649517Y-142061219D02*
X156530469Y-141870742D01*
X156530469Y-141870742D02*
X156328088Y-141775504D01*
X156328088Y-141775504D02*
X155947136Y-141775504D01*
X155947136Y-141775504D02*
X155768564Y-141870742D01*
X155768564Y-141870742D02*
X155697136Y-142061219D01*
X155697136Y-142061219D02*
X155720945Y-142251695D01*
X155720945Y-142251695D02*
X156697136Y-142442171D01*
X154804278Y-141775504D02*
X155018564Y-143489790D01*
X155018564Y-143489790D02*
X155137611Y-143680266D01*
X155137611Y-143680266D02*
X155339992Y-143775504D01*
X155339992Y-143775504D02*
X155435231Y-143775504D01*
X154720945Y-141108838D02*
X154828088Y-141204076D01*
X154828088Y-141204076D02*
X154744754Y-141299314D01*
X154744754Y-141299314D02*
X154637611Y-141204076D01*
X154637611Y-141204076D02*
X154720945Y-141108838D01*
X154720945Y-141108838D02*
X154744754Y-141299314D01*
X154042373Y-141775504D02*
X153732850Y-143108838D01*
X153089992Y-141775504D02*
X153732850Y-143108838D01*
X153732850Y-143108838D02*
X153982850Y-143585028D01*
X153982850Y-143585028D02*
X154089992Y-143680266D01*
X154089992Y-143680266D02*
X154292373Y-143775504D01*
X152494754Y-143108838D02*
X152328087Y-141775504D01*
X152375706Y-142156457D02*
X152256659Y-141965980D01*
X152256659Y-141965980D02*
X152149516Y-141870742D01*
X152149516Y-141870742D02*
X151947135Y-141775504D01*
X151947135Y-141775504D02*
X151756659Y-141775504D01*
X160411437Y-136367414D02*
X160744770Y-139034081D01*
X160459056Y-136748366D02*
X160244770Y-136557890D01*
X160244770Y-136557890D02*
X159840008Y-136367414D01*
X159840008Y-136367414D02*
X159268580Y-136367414D01*
X159268580Y-136367414D02*
X158911437Y-136557890D01*
X158911437Y-136557890D02*
X158768580Y-136938843D01*
X158768580Y-136938843D02*
X159030484Y-139034081D01*
X157125722Y-139034081D02*
X156792389Y-136367414D01*
X156625722Y-135034081D02*
X156840008Y-135224557D01*
X156840008Y-135224557D02*
X156673341Y-135415033D01*
X156673341Y-135415033D02*
X156459055Y-135224557D01*
X156459055Y-135224557D02*
X156625722Y-135034081D01*
X156625722Y-135034081D02*
X156673341Y-135415033D01*
X153173341Y-136367414D02*
X153578103Y-139605509D01*
X153578103Y-139605509D02*
X153816198Y-139986462D01*
X153816198Y-139986462D02*
X154030484Y-140176938D01*
X154030484Y-140176938D02*
X154435246Y-140367414D01*
X154435246Y-140367414D02*
X155006674Y-140367414D01*
X155006674Y-140367414D02*
X155363817Y-140176938D01*
X153482865Y-138843605D02*
X153887627Y-139034081D01*
X153887627Y-139034081D02*
X154649532Y-139034081D01*
X154649532Y-139034081D02*
X155006674Y-138843605D01*
X155006674Y-138843605D02*
X155173341Y-138653128D01*
X155173341Y-138653128D02*
X155316198Y-138272176D01*
X155316198Y-138272176D02*
X155173341Y-137129319D01*
X155173341Y-137129319D02*
X154935246Y-136748366D01*
X154935246Y-136748366D02*
X154720960Y-136557890D01*
X154720960Y-136557890D02*
X154316198Y-136367414D01*
X154316198Y-136367414D02*
X153554293Y-136367414D01*
X153554293Y-136367414D02*
X153197151Y-136557890D01*
X151601912Y-139034081D02*
X151101912Y-135034081D01*
X149887626Y-139034081D02*
X149625722Y-136938843D01*
X149625722Y-136938843D02*
X149768579Y-136557890D01*
X149768579Y-136557890D02*
X150125722Y-136367414D01*
X150125722Y-136367414D02*
X150697150Y-136367414D01*
X150697150Y-136367414D02*
X151101912Y-136557890D01*
X151101912Y-136557890D02*
X151316198Y-136748366D01*
X148220959Y-136367414D02*
X146697150Y-136367414D01*
X147482864Y-135034081D02*
X147911436Y-138462652D01*
X147911436Y-138462652D02*
X147768578Y-138843605D01*
X147768578Y-138843605D02*
X147411436Y-139034081D01*
X147411436Y-139034081D02*
X147030483Y-139034081D01*
X145363817Y-136367414D02*
X145792388Y-139795985D01*
X145792388Y-139795985D02*
X146030483Y-140176938D01*
X146030483Y-140176938D02*
X146435245Y-140367414D01*
X146435245Y-140367414D02*
X146625722Y-140367414D01*
X145197150Y-135034081D02*
X145411436Y-135224557D01*
X145411436Y-135224557D02*
X145244769Y-135415033D01*
X145244769Y-135415033D02*
X145030483Y-135224557D01*
X145030483Y-135224557D02*
X145197150Y-135034081D01*
X145197150Y-135034081D02*
X145244769Y-135415033D01*
X142078102Y-139034081D02*
X141816198Y-136938843D01*
X141816198Y-136938843D02*
X141959055Y-136557890D01*
X141959055Y-136557890D02*
X142316198Y-136367414D01*
X142316198Y-136367414D02*
X143078102Y-136367414D01*
X143078102Y-136367414D02*
X143482864Y-136557890D01*
X142054293Y-138843605D02*
X142459055Y-139034081D01*
X142459055Y-139034081D02*
X143411436Y-139034081D01*
X143411436Y-139034081D02*
X143768579Y-138843605D01*
X143768579Y-138843605D02*
X143911436Y-138462652D01*
X143911436Y-138462652D02*
X143863817Y-138081700D01*
X143863817Y-138081700D02*
X143625721Y-137700747D01*
X143625721Y-137700747D02*
X143220960Y-137510271D01*
X143220960Y-137510271D02*
X142268579Y-137510271D01*
X142268579Y-137510271D02*
X141863817Y-137319795D01*
X140173340Y-139034081D02*
X139840007Y-136367414D01*
X139935245Y-137129319D02*
X139697150Y-136748366D01*
X139697150Y-136748366D02*
X139482864Y-136557890D01*
X139482864Y-136557890D02*
X139078102Y-136367414D01*
X139078102Y-136367414D02*
X138697150Y-136367414D01*
X137578102Y-135034081D02*
X135101912Y-135034081D01*
X135101912Y-135034081D02*
X136625722Y-136557890D01*
X136625722Y-136557890D02*
X136054293Y-136557890D01*
X136054293Y-136557890D02*
X135697150Y-136748366D01*
X135697150Y-136748366D02*
X135530483Y-136938843D01*
X135530483Y-136938843D02*
X135387626Y-137319795D01*
X135387626Y-137319795D02*
X135506674Y-138272176D01*
X135506674Y-138272176D02*
X135744769Y-138653128D01*
X135744769Y-138653128D02*
X135959055Y-138843605D01*
X135959055Y-138843605D02*
X136363817Y-139034081D01*
X136363817Y-139034081D02*
X137506674Y-139034081D01*
X137506674Y-139034081D02*
X137863817Y-138843605D01*
X137863817Y-138843605D02*
X138030483Y-138653128D01*
X131840007Y-136367414D02*
X132173340Y-139034081D01*
X132601912Y-134843605D02*
X133911436Y-137700747D01*
X133911436Y-137700747D02*
X131435245Y-137700747D01*
X177723041Y-72007575D02*
X177703131Y-72197008D01*
X177703131Y-72197008D02*
X177740534Y-72296702D01*
X177740534Y-72296702D02*
X177825295Y-72401373D01*
X177825295Y-72401373D02*
X178009750Y-72468642D01*
X178009750Y-72468642D02*
X178341258Y-72503485D01*
X178341258Y-72503485D02*
X178535668Y-72476037D01*
X178535668Y-72476037D02*
X178640339Y-72391275D01*
X178640339Y-72391275D02*
X178697653Y-72301536D01*
X178697653Y-72301536D02*
X178717563Y-72112104D01*
X178717563Y-72112104D02*
X178680160Y-72012410D01*
X178680160Y-72012410D02*
X178595399Y-71907738D01*
X178595399Y-71907738D02*
X178410943Y-71840470D01*
X178410943Y-71840470D02*
X178079436Y-71805627D01*
X178079436Y-71805627D02*
X177885026Y-71833075D01*
X177885026Y-71833075D02*
X177780354Y-71917836D01*
X177780354Y-71917836D02*
X177723041Y-72007575D01*
X178072184Y-73241305D02*
X178107027Y-72909798D01*
X178627967Y-72964551D02*
X177633445Y-72860023D01*
X177633445Y-72860023D02*
X177583670Y-73333604D01*
X177982588Y-74093753D02*
X178017431Y-73762245D01*
X178538371Y-73816998D02*
X177543849Y-73712470D01*
X177543849Y-73712470D02*
X177494074Y-74186052D01*
X187633414Y-73384366D02*
X187613504Y-73573799D01*
X187613504Y-73573799D02*
X187650907Y-73673493D01*
X187650907Y-73673493D02*
X187735668Y-73778164D01*
X187735668Y-73778164D02*
X187920124Y-73845433D01*
X187920124Y-73845433D02*
X188251631Y-73880276D01*
X188251631Y-73880276D02*
X188446041Y-73852828D01*
X188446041Y-73852828D02*
X188550713Y-73768066D01*
X188550713Y-73768066D02*
X188608026Y-73678327D01*
X188608026Y-73678327D02*
X188627936Y-73488895D01*
X188627936Y-73488895D02*
X188590533Y-73389201D01*
X188590533Y-73389201D02*
X188505772Y-73284529D01*
X188505772Y-73284529D02*
X188321317Y-73217261D01*
X188321317Y-73217261D02*
X187989809Y-73182418D01*
X187989809Y-73182418D02*
X187795399Y-73209866D01*
X187795399Y-73209866D02*
X187690727Y-73294627D01*
X187690727Y-73294627D02*
X187633414Y-73384366D01*
X188538340Y-74341342D02*
X187543818Y-74236814D01*
X187543818Y-74236814D02*
X188478610Y-74909640D01*
X188478610Y-74909640D02*
X187484088Y-74805112D01*
%TO.C,D6*%
D11*
X117364430Y-72753419D02*
X117763456Y-72725517D01*
X117763456Y-72725517D02*
X117725093Y-72176857D01*
X117763456Y-72725517D02*
X117801829Y-73274179D01*
X117763456Y-72725517D02*
X118334091Y-72284637D01*
X118334091Y-72284637D02*
X118389897Y-73082689D01*
X118361994Y-72683663D02*
X118860776Y-72648785D01*
X118389897Y-73082689D02*
X117763456Y-72725517D01*
%TO.C,D1*%
X103710986Y-132553121D02*
X104091414Y-132429514D01*
X104091414Y-132429514D02*
X103921450Y-131906424D01*
X104091414Y-132429514D02*
X104261369Y-132952596D01*
X104091414Y-132429514D02*
X104538435Y-131863681D01*
X104538435Y-131863681D02*
X104785643Y-132624522D01*
X104662042Y-132244104D02*
X105137570Y-132089595D01*
X104785643Y-132624522D02*
X104091414Y-132429514D01*
%TO.C,PWR1*%
D12*
X179667994Y-73546692D02*
X179750572Y-72761018D01*
X180452859Y-71819268D02*
X186121632Y-72415080D01*
X181398106Y-74784318D02*
X183088792Y-74962015D01*
X184381671Y-75097902D02*
X184580575Y-75118807D01*
X186612773Y-73482265D02*
X186530195Y-74267937D01*
%TO.C,D3*%
D11*
X91968345Y-96412966D02*
X92348773Y-96289359D01*
X92348773Y-96289359D02*
X92178809Y-95766269D01*
X92348773Y-96289359D02*
X92518728Y-96812441D01*
X92348773Y-96289359D02*
X92795794Y-95723526D01*
X92795794Y-95723526D02*
X93043002Y-96484367D01*
X92919401Y-96103949D02*
X93394929Y-95949440D01*
X93043002Y-96484367D02*
X92348773Y-96289359D01*
%TO.C,D17*%
X197196900Y-143861157D02*
X197589555Y-143937486D01*
X197589555Y-143937486D02*
X197484608Y-144477376D01*
X197589555Y-143937486D02*
X197694501Y-143397585D01*
X197589555Y-143937486D02*
X198254850Y-143659316D01*
X198102203Y-144444617D02*
X197589555Y-143937486D01*
X198178534Y-144051966D02*
X198669340Y-144147371D01*
X198254850Y-143659316D02*
X198102203Y-144444617D01*
%TO.C,D11*%
X161095468Y-94314095D02*
X161493276Y-94355906D01*
X161493276Y-94355906D02*
X161435789Y-94902893D01*
X161493276Y-94355906D02*
X161550769Y-93808910D01*
X161493276Y-94355906D02*
X162131801Y-94020815D01*
X162048178Y-94816432D02*
X161493276Y-94355906D01*
X162089989Y-94418623D02*
X162587250Y-94470887D01*
X162131801Y-94020815D02*
X162048178Y-94816432D01*
%TO.C,D9*%
X139590001Y-65261405D02*
X139990001Y-65261405D01*
X139990001Y-65261405D02*
X139990002Y-64711396D01*
X139990001Y-65261405D02*
X139990008Y-65811408D01*
X139990001Y-65261405D02*
X140590001Y-64861405D01*
X140590001Y-64861405D02*
X140590001Y-65661405D01*
X140590001Y-65261405D02*
X141090001Y-65261405D01*
X140590001Y-65661405D02*
X139990001Y-65261405D01*
%TO.C,D14*%
X179677797Y-99283700D02*
X180075605Y-99325511D01*
X180075605Y-99325511D02*
X180018118Y-99872498D01*
X180075605Y-99325511D02*
X180133098Y-98778515D01*
X180075605Y-99325511D02*
X180714130Y-98990420D01*
X180630507Y-99786037D02*
X180075605Y-99325511D01*
X180672318Y-99388228D02*
X181169579Y-99440492D01*
X180714130Y-98990420D02*
X180630507Y-99786037D01*
%TO.C,D16*%
X175354010Y-142107542D02*
X175753949Y-142100561D01*
X175753949Y-142100561D02*
X175744350Y-141550638D01*
X175753949Y-142100561D02*
X175763553Y-142650479D01*
X175753949Y-142100561D02*
X176346877Y-141690151D01*
X176346877Y-141690151D02*
X176360839Y-142490029D01*
X176353858Y-142090090D02*
X176853782Y-142081364D01*
X176360839Y-142490029D02*
X175753949Y-142100561D01*
%TO.C,D15*%
X181663846Y-80387787D02*
X182061654Y-80429598D01*
X182061654Y-80429598D02*
X182004167Y-80976585D01*
X182061654Y-80429598D02*
X182119147Y-79882602D01*
X182061654Y-80429598D02*
X182700179Y-80094507D01*
X182616556Y-80890124D02*
X182061654Y-80429598D01*
X182658367Y-80492315D02*
X183155628Y-80544579D01*
X182700179Y-80094507D02*
X182616556Y-80890124D01*
%TO.C,D10*%
X159109429Y-113210027D02*
X159507237Y-113251838D01*
X159507237Y-113251838D02*
X159449750Y-113798825D01*
X159507237Y-113251838D02*
X159564730Y-112704842D01*
X159507237Y-113251838D02*
X160145762Y-112916747D01*
X160062139Y-113712364D02*
X159507237Y-113251838D01*
X160103950Y-113314555D02*
X160601211Y-113366819D01*
X160145762Y-112916747D02*
X160062139Y-113712364D01*
%TO.C,D13*%
X177691761Y-118179627D02*
X178089569Y-118221438D01*
X178089569Y-118221438D02*
X178032082Y-118768425D01*
X178089569Y-118221438D02*
X178147062Y-117674442D01*
X178089569Y-118221438D02*
X178728094Y-117886347D01*
X178644471Y-118681964D02*
X178089569Y-118221438D01*
X178686282Y-118284155D02*
X179183543Y-118336419D01*
X178728094Y-117886347D02*
X178644471Y-118681964D01*
%TO.C,D5*%
X118689810Y-91707137D02*
X119088836Y-91679235D01*
X119088836Y-91679235D02*
X119050473Y-91130575D01*
X119088836Y-91679235D02*
X119127209Y-92227897D01*
X119088836Y-91679235D02*
X119659471Y-91238355D01*
X119659471Y-91238355D02*
X119715277Y-92036407D01*
X119687374Y-91637381D02*
X120186156Y-91602503D01*
X119715277Y-92036407D02*
X119088836Y-91679235D01*
%TO.C,D2*%
X97839670Y-114483045D02*
X98220098Y-114359438D01*
X98220098Y-114359438D02*
X98050134Y-113836348D01*
X98220098Y-114359438D02*
X98390053Y-114882520D01*
X98220098Y-114359438D02*
X98667119Y-113793605D01*
X98667119Y-113793605D02*
X98914327Y-114554446D01*
X98790726Y-114174028D02*
X99266254Y-114019519D01*
X98914327Y-114554446D02*
X98220098Y-114359438D01*
%TO.C,RST1*%
X101595584Y-87533389D02*
X101518329Y-87295625D01*
X101756094Y-87218371D02*
X101518329Y-87295625D01*
X102522635Y-90386559D02*
X102599889Y-90624323D01*
X102837653Y-90547081D02*
X102599889Y-90624323D01*
X105750531Y-85920487D02*
X105988295Y-85843245D01*
X106065549Y-86081009D02*
X105988295Y-85843245D01*
X106832090Y-89249197D02*
X107069855Y-89171943D01*
X106992600Y-88934179D02*
X107069855Y-89171943D01*
%TO.C,D8*%
X139589995Y-84261404D02*
X139989995Y-84261404D01*
X139989995Y-84261404D02*
X139989996Y-83711395D01*
X139989995Y-84261404D02*
X139990002Y-84811407D01*
X139989995Y-84261404D02*
X140589995Y-83861404D01*
X140589995Y-83861404D02*
X140589995Y-84661404D01*
X140589995Y-84261404D02*
X141089995Y-84261404D01*
X140589995Y-84661404D02*
X139989995Y-84261404D01*
%TO.C,JST1*%
D12*
X116458568Y-127319535D02*
X117456132Y-127249779D01*
X116522738Y-128237293D02*
X116458568Y-127319535D01*
X116815721Y-132427063D02*
X116885484Y-133424628D01*
X116885484Y-133424628D02*
X117883041Y-133354871D01*
X124259519Y-126774040D02*
X123261954Y-126843796D01*
X124323695Y-127691799D02*
X124259519Y-126774040D01*
X124622252Y-131961373D02*
X124686428Y-132879132D01*
X124686428Y-132879132D02*
X123688864Y-132948888D01*
D11*
X125081414Y-130786481D02*
X126078980Y-130716717D01*
X125405805Y-128257693D02*
X125475562Y-129255257D01*
X125615075Y-131250385D02*
X125545320Y-130252816D01*
%TO.C,D12*%
X163081507Y-75418181D02*
X163479315Y-75459992D01*
X163479315Y-75459992D02*
X163421828Y-76006979D01*
X163479315Y-75459992D02*
X163536808Y-74912996D01*
X163479315Y-75459992D02*
X164117840Y-75124901D01*
X164034217Y-75920518D02*
X163479315Y-75459992D01*
X164076028Y-75522709D02*
X164573289Y-75574973D01*
X164117840Y-75124901D02*
X164034217Y-75920518D01*
%TO.C,D7*%
X139589997Y-103261409D02*
X139989997Y-103261409D01*
X139989997Y-103261409D02*
X139989998Y-102711400D01*
X139989997Y-103261409D02*
X139990004Y-103811412D01*
X139989997Y-103261409D02*
X140589997Y-102861409D01*
X140589997Y-102861409D02*
X140589997Y-103661409D01*
X140589997Y-103261409D02*
X141089997Y-103261409D01*
X140589997Y-103661409D02*
X139989997Y-103261409D01*
%TO.C,D4*%
X120015173Y-110660843D02*
X120414199Y-110632941D01*
X120414199Y-110632941D02*
X120375836Y-110084281D01*
X120414199Y-110632941D02*
X120452572Y-111181603D01*
X120414199Y-110632941D02*
X120984834Y-110192061D01*
X120984834Y-110192061D02*
X121040640Y-110990113D01*
X121012737Y-110591087D02*
X121511519Y-110556209D01*
X121040640Y-110990113D02*
X120414199Y-110632941D01*
%TO.C,S15*%
D10*
X174284666Y-90803514D02*
X174347393Y-90206800D01*
X174723694Y-86626522D02*
X174775958Y-86129261D01*
X174775958Y-86129261D02*
X179251307Y-86599639D01*
X178740130Y-91271800D02*
X174284666Y-90803514D01*
X179100491Y-92817939D02*
X179196660Y-91902982D01*
X179100491Y-92817939D02*
X179545488Y-93367464D01*
X179251307Y-86599639D02*
X179178137Y-87295804D01*
X179545488Y-93367464D02*
X182529053Y-93681049D01*
X180712031Y-88965285D02*
X182999432Y-89205701D01*
X182529053Y-93681049D02*
X183078579Y-93236053D01*
X182999432Y-89205701D02*
X183444427Y-89755236D01*
X178740130Y-91271800D02*
G75*
G02*
X179196657Y-91902982I-87324J-543852D01*
G01*
X180712031Y-88965285D02*
G75*
G02*
X179176046Y-87315694I56803J1592788D01*
G01*
%TO.C,S9*%
X133339983Y-76391407D02*
X133339992Y-75791407D01*
X133339992Y-71691407D02*
X137839992Y-71691407D01*
X133339992Y-72191407D02*
X133339992Y-71691407D01*
X137819988Y-76391401D02*
X133339983Y-76391407D01*
X137839992Y-71691407D02*
X137839992Y-72391407D01*
X138339992Y-77891407D02*
X138339998Y-76971409D01*
X138339992Y-77891407D02*
X138839992Y-78391407D01*
X138839992Y-78391407D02*
X141839992Y-78391407D01*
X139539992Y-73891407D02*
X141839987Y-73891415D01*
X141839987Y-73891415D02*
X142339981Y-74391407D01*
X141839992Y-78391407D02*
X142339992Y-77891407D01*
X137819988Y-76391401D02*
G75*
G02*
X138340001Y-76971409I-30026J-550036D01*
G01*
X139539992Y-73891407D02*
G75*
G02*
X137839991Y-72411407I-110005J1589995D01*
G01*
%TO.C,S8*%
X133339983Y-95391409D02*
X133339992Y-94791409D01*
X133339992Y-90691409D02*
X137839992Y-90691409D01*
X133339992Y-91191409D02*
X133339992Y-90691409D01*
X137819988Y-95391403D02*
X133339983Y-95391409D01*
X137839992Y-90691409D02*
X137839992Y-91391409D01*
X138339992Y-96891409D02*
X138339998Y-95971411D01*
X138339992Y-96891409D02*
X138839992Y-97391409D01*
X138839992Y-97391409D02*
X141839992Y-97391409D01*
X139539992Y-92891409D02*
X141839987Y-92891417D01*
X141839987Y-92891417D02*
X142339981Y-93391409D01*
X141839992Y-97391409D02*
X142339992Y-96891409D01*
X137819988Y-95391403D02*
G75*
G02*
X138340001Y-95971411I-30026J-550036D01*
G01*
X139539992Y-92891409D02*
G75*
G02*
X137839991Y-91411409I-110005J1589995D01*
G01*
%TO.C,S13*%
X170312588Y-128595350D02*
X170375315Y-127998636D01*
X170751616Y-124418358D02*
X170803880Y-123921097D01*
X170803880Y-123921097D02*
X175279229Y-124391475D01*
X174768052Y-129063636D02*
X170312588Y-128595350D01*
X175128413Y-130609775D02*
X175224582Y-129694818D01*
X175128413Y-130609775D02*
X175573410Y-131159300D01*
X175279229Y-124391475D02*
X175206059Y-125087640D01*
X175573410Y-131159300D02*
X178556975Y-131472885D01*
X176739953Y-126757121D02*
X179027354Y-126997537D01*
X178556975Y-131472885D02*
X179106501Y-131027889D01*
X179027354Y-126997537D02*
X179472349Y-127547072D01*
X174768052Y-129063636D02*
G75*
G02*
X175224579Y-129694818I-87324J-543852D01*
G01*
X176739953Y-126757121D02*
G75*
G02*
X175203968Y-125107530I56803J1592788D01*
G01*
%TO.C,S3*%
X88011212Y-104459622D02*
X92290966Y-103069045D01*
X88165720Y-104935150D02*
X88011212Y-104459622D01*
X89463592Y-108929587D02*
X89278183Y-108358953D01*
X92290966Y-103069045D02*
X92507278Y-103734785D01*
X93724325Y-107545191D02*
X89463592Y-108929587D01*
X94587600Y-104636041D02*
X96775030Y-103925302D01*
X94682400Y-108811087D02*
X94398105Y-107936116D01*
X94682400Y-108811087D02*
X95312437Y-109132107D01*
X95312437Y-109132107D02*
X98165606Y-108205056D01*
X96775030Y-103925302D02*
X97405066Y-104246321D01*
X98165606Y-108205056D02*
X98486626Y-107575019D01*
X93724325Y-107545191D02*
G75*
G02*
X94398105Y-107936116I141428J-532352D01*
G01*
X94587600Y-104636041D02*
G75*
G02*
X92513458Y-103753806I-595954J1478188D01*
G01*
%TO.C,S14*%
X172298627Y-109699426D02*
X172361354Y-109102712D01*
X172737655Y-105522434D02*
X172789919Y-105025173D01*
X172789919Y-105025173D02*
X177265268Y-105495551D01*
X176754091Y-110167712D02*
X172298627Y-109699426D01*
X177114452Y-111713851D02*
X177210621Y-110798894D01*
X177114452Y-111713851D02*
X177559449Y-112263376D01*
X177265268Y-105495551D02*
X177192098Y-106191716D01*
X177559449Y-112263376D02*
X180543014Y-112576961D01*
X178725992Y-107861197D02*
X181013393Y-108101613D01*
X180543014Y-112576961D02*
X181092540Y-112131965D01*
X181013393Y-108101613D02*
X181458388Y-108651148D01*
X176754091Y-110167712D02*
G75*
G02*
X177210618Y-110798894I-87324J-543852D01*
G01*
X178725992Y-107861197D02*
G75*
G02*
X177190007Y-106211606I56803J1592788D01*
G01*
%TO.C,S4*%
X114228936Y-117511174D02*
X118717975Y-117197270D01*
X114263815Y-118009956D02*
X114228936Y-117511174D01*
X114556792Y-122199725D02*
X114514938Y-121601187D01*
X118717975Y-117197270D02*
X118766804Y-117895565D01*
X119025874Y-121887212D02*
X114556792Y-122199725D01*
X119649247Y-123347289D02*
X119585077Y-122429532D01*
X119649247Y-123347289D02*
X120182907Y-123811193D01*
X120182907Y-123811193D02*
X123175599Y-123601924D01*
X120567298Y-119273325D02*
X122861694Y-119112898D01*
X122861694Y-119112898D02*
X123395355Y-119576789D01*
X123175599Y-123601924D02*
X123639503Y-123068263D01*
X119025874Y-121887212D02*
G75*
G02*
X119585075Y-122429532I8444J-550757D01*
G01*
X120567298Y-119273325D02*
G75*
G02*
X118768200Y-117915516I-220632J1578470D01*
G01*
%TO.C,S16*%
X169217177Y-148645639D02*
X173716491Y-148567104D01*
X169225903Y-149145563D02*
X169217177Y-148645639D01*
X169299196Y-153344924D02*
X169288732Y-152745015D01*
X173716491Y-148567104D02*
X173728708Y-149266997D01*
X173778516Y-153266732D02*
X169299196Y-153344924D01*
X174324620Y-154757433D02*
X174308570Y-153837575D01*
X174324620Y-154757433D02*
X174833270Y-155248631D01*
X174833270Y-155248631D02*
X177832813Y-155196273D01*
X175454628Y-150737099D02*
X177754270Y-150696962D01*
X177754270Y-150696962D02*
X178262916Y-151188157D01*
X177832813Y-155196273D02*
X178324011Y-154687623D01*
X173778516Y-153266732D02*
G75*
G02*
X174308572Y-153837575I-20421J-550475D01*
G01*
X175454628Y-150737099D02*
G75*
G02*
X173729057Y-149286994I-137738J1587832D01*
G01*
%TO.C,S2*%
X93882539Y-122529697D02*
X98162293Y-121139120D01*
X94037047Y-123005225D02*
X93882539Y-122529697D01*
X95334919Y-126999662D02*
X95149510Y-126429028D01*
X98162293Y-121139120D02*
X98378605Y-121804860D01*
X99595652Y-125615266D02*
X95334919Y-126999662D01*
X100458927Y-122706116D02*
X102646357Y-121995377D01*
X100553727Y-126881162D02*
X100269432Y-126006191D01*
X100553727Y-126881162D02*
X101183764Y-127202182D01*
X101183764Y-127202182D02*
X104036933Y-126275131D01*
X102646357Y-121995377D02*
X103276393Y-122316396D01*
X104036933Y-126275131D02*
X104357953Y-125645094D01*
X99595652Y-125615266D02*
G75*
G02*
X100269432Y-126006191I141428J-532352D01*
G01*
X100458927Y-122706116D02*
G75*
G02*
X98384785Y-121823881I-595954J1478188D01*
G01*
%TO.C,S17*%
X188938024Y-153594106D02*
X189052510Y-153005129D01*
X189739422Y-149471271D02*
X189834826Y-148980458D01*
X189834826Y-148980458D02*
X194252149Y-149839098D01*
X193335714Y-154448930D02*
X188938024Y-153594106D01*
X193559946Y-156020591D02*
X193735491Y-155117494D01*
X193559946Y-156020591D02*
X193955354Y-156606809D01*
X193955354Y-156606809D02*
X196900237Y-157179236D01*
X194252149Y-149839098D02*
X194118582Y-150526237D01*
X195501134Y-152323052D02*
X197758877Y-152761914D01*
X196900237Y-157179236D02*
X197486455Y-156783827D01*
X197758877Y-152761914D02*
X198154287Y-153348132D01*
X193335714Y-154448930D02*
G75*
G02*
X193735491Y-155117494I-134394J-534171D01*
G01*
X195501134Y-152323052D02*
G75*
G02*
X194114766Y-150545877I195408J1581775D01*
G01*
%TO.C,S11*%
X153716296Y-104729826D02*
X153779023Y-104133112D01*
X154155324Y-100552834D02*
X154207588Y-100055573D01*
X154207588Y-100055573D02*
X158682937Y-100525951D01*
X158171760Y-105198112D02*
X153716296Y-104729826D01*
X158532121Y-106744251D02*
X158628290Y-105829294D01*
X158532121Y-106744251D02*
X158977118Y-107293776D01*
X158682937Y-100525951D02*
X158609767Y-101222116D01*
X158977118Y-107293776D02*
X161960683Y-107607361D01*
X160143661Y-102891597D02*
X162431062Y-103132013D01*
X161960683Y-107607361D02*
X162510209Y-107162365D01*
X162431062Y-103132013D02*
X162876057Y-103681548D01*
X158171760Y-105198112D02*
G75*
G02*
X158628287Y-105829294I-87324J-543852D01*
G01*
X160143661Y-102891597D02*
G75*
G02*
X158607676Y-101242006I56803J1592788D01*
G01*
%TO.C,S10*%
X151730251Y-123625752D02*
X151792978Y-123029038D01*
X152169279Y-119448760D02*
X152221543Y-118951499D01*
X152221543Y-118951499D02*
X156696892Y-119421877D01*
X156185715Y-124094038D02*
X151730251Y-123625752D01*
X156546076Y-125640177D02*
X156642245Y-124725220D01*
X156546076Y-125640177D02*
X156991073Y-126189702D01*
X156696892Y-119421877D02*
X156623722Y-120118042D01*
X156991073Y-126189702D02*
X159974638Y-126503287D01*
X158157616Y-121787523D02*
X160445017Y-122027939D01*
X159974638Y-126503287D02*
X160524164Y-126058291D01*
X160445017Y-122027939D02*
X160890012Y-122577474D01*
X156185715Y-124094038D02*
G75*
G02*
X156642242Y-124725220I-87324J-543852D01*
G01*
X158157616Y-121787523D02*
G75*
G02*
X156621631Y-120137932I56803J1592788D01*
G01*
%TO.C,S5*%
X112903566Y-98557448D02*
X117392605Y-98243544D01*
X112938445Y-99056230D02*
X112903566Y-98557448D01*
X113231422Y-103245999D02*
X113189568Y-102647461D01*
X117392605Y-98243544D02*
X117441434Y-98941839D01*
X117700504Y-102933486D02*
X113231422Y-103245999D01*
X118323877Y-104393563D02*
X118259707Y-103475806D01*
X118323877Y-104393563D02*
X118857537Y-104857467D01*
X118857537Y-104857467D02*
X121850229Y-104648198D01*
X119241928Y-100319599D02*
X121536324Y-100159172D01*
X121536324Y-100159172D02*
X122069985Y-100623063D01*
X121850229Y-104648198D02*
X122314133Y-104114537D01*
X117700504Y-102933486D02*
G75*
G02*
X118259705Y-103475806I8444J-550757D01*
G01*
X119241928Y-100319599D02*
G75*
G02*
X117442830Y-98961790I-220632J1578470D01*
G01*
%TO.C,S6*%
X111578192Y-79603734D02*
X116067231Y-79289830D01*
X111613071Y-80102516D02*
X111578192Y-79603734D01*
X111906048Y-84292285D02*
X111864194Y-83693747D01*
X116067231Y-79289830D02*
X116116060Y-79988125D01*
X116375130Y-83979772D02*
X111906048Y-84292285D01*
X116998503Y-85439849D02*
X116934333Y-84522092D01*
X116998503Y-85439849D02*
X117532163Y-85903753D01*
X117532163Y-85903753D02*
X120524855Y-85694484D01*
X117916554Y-81365885D02*
X120210950Y-81205458D01*
X120210950Y-81205458D02*
X120744611Y-81669349D01*
X120524855Y-85694484D02*
X120988759Y-85160823D01*
X116375130Y-83979772D02*
G75*
G02*
X116934331Y-84522092I8444J-550757D01*
G01*
X117916554Y-81365885D02*
G75*
G02*
X116117456Y-80008076I-220632J1578470D01*
G01*
%TO.C,S12*%
X155702342Y-85833904D02*
X155765069Y-85237190D01*
X156141370Y-81656912D02*
X156193634Y-81159651D01*
X156193634Y-81159651D02*
X160668983Y-81630029D01*
X160157806Y-86302190D02*
X155702342Y-85833904D01*
X160518167Y-87848329D02*
X160614336Y-86933372D01*
X160518167Y-87848329D02*
X160963164Y-88397854D01*
X160668983Y-81630029D02*
X160595813Y-82326194D01*
X160963164Y-88397854D02*
X163946729Y-88711439D01*
X162129707Y-83995675D02*
X164417108Y-84236091D01*
X163946729Y-88711439D02*
X164496255Y-88266443D01*
X164417108Y-84236091D02*
X164862103Y-84785626D01*
X160157806Y-86302190D02*
G75*
G02*
X160614333Y-86933372I-87324J-543852D01*
G01*
X162129707Y-83995675D02*
G75*
G02*
X160593722Y-82346084I56803J1592788D01*
G01*
%TO.C,S7*%
X133339994Y-114391408D02*
X133340003Y-113791408D01*
X133340003Y-109691408D02*
X137840003Y-109691408D01*
X133340003Y-110191408D02*
X133340003Y-109691408D01*
X137819999Y-114391402D02*
X133339994Y-114391408D01*
X137840003Y-109691408D02*
X137840003Y-110391408D01*
X138340003Y-115891408D02*
X138340009Y-114971410D01*
X138340003Y-115891408D02*
X138840003Y-116391408D01*
X138840003Y-116391408D02*
X141840003Y-116391408D01*
X139540003Y-111891408D02*
X141839998Y-111891416D01*
X141839998Y-111891416D02*
X142339992Y-112391408D01*
X141840003Y-116391408D02*
X142340003Y-115891408D01*
X137819999Y-114391402D02*
G75*
G02*
X138340012Y-114971410I-30026J-550036D01*
G01*
X139540003Y-111891408D02*
G75*
G02*
X137840002Y-110411408I-110005J1589995D01*
G01*
%TO.C,S1*%
X99753871Y-140599769D02*
X104033625Y-139209192D01*
X99908379Y-141075297D02*
X99753871Y-140599769D01*
X101206251Y-145069734D02*
X101020842Y-144499100D01*
X104033625Y-139209192D02*
X104249937Y-139874932D01*
X105466984Y-143685338D02*
X101206251Y-145069734D01*
X106330259Y-140776188D02*
X108517689Y-140065449D01*
X106425059Y-144951234D02*
X106140764Y-144076263D01*
X106425059Y-144951234D02*
X107055096Y-145272254D01*
X107055096Y-145272254D02*
X109908265Y-144345203D01*
X108517689Y-140065449D02*
X109147725Y-140386468D01*
X109908265Y-144345203D02*
X110229285Y-143715166D01*
X105466984Y-143685338D02*
G75*
G02*
X106140764Y-144076263I141428J-532352D01*
G01*
X106330259Y-140776188D02*
G75*
G02*
X104256117Y-139893953I-595954J1478188D01*
G01*
%TD*%
M02*
