%TF.GenerationSoftware,KiCad,Pcbnew,10.0.1*%
%TF.CreationDate,2026-06-11T23:50:18-04:00*%
%TF.ProjectId,pcb,7063622e-6b69-4636-9164-5f7063625858,v1.0.0*%
%TF.SameCoordinates,Original*%
%TF.FileFunction,Soldermask,Bot*%
%TF.FilePolarity,Negative*%
%FSLAX46Y46*%
G04 Gerber Fmt 4.6, Leading zero omitted, Abs format (unit mm)*
G04 Created by KiCad (PCBNEW 10.0.1) date 2026-06-11 23:50:18*
%MOMM*%
%LPD*%
G01*
G04 APERTURE LIST*
G04 Aperture macros list*
%AMHorizOval*
0 Thick line with rounded ends*
0 $1 width*
0 $2 $3 position (X,Y) of the first rounded end (center of the circle)*
0 $4 $5 position (X,Y) of the second rounded end (center of the circle)*
0 Add line between two ends*
20,1,$1,$2,$3,$4,$5,0*
0 Add two circle primitives to create the rounded ends*
1,1,$1,$2,$3*
1,1,$1,$4,$5*%
%AMRotRect*
0 Rectangle, with rotation*
0 The origin of the aperture is its center*
0 $1 length*
0 $2 width*
0 $3 Rotation angle, in degrees counterclockwise*
0 Add horizontal line*
21,1,$1,$2,0,0,$3*%
%AMOutline5P*
0 Free polygon, 5 corners , with rotation*
0 The origin of the aperture is its center*
0 number of corners: always 5*
0 $1 to $10 corner X, Y*
0 $11 Rotation angle, in degrees counterclockwise*
0 create outline with 5 corners*
4,1,5,$1,$2,$3,$4,$5,$6,$7,$8,$9,$10,$1,$2,$11*%
%AMOutline6P*
0 Free polygon, 6 corners , with rotation*
0 The origin of the aperture is its center*
0 number of corners: always 6*
0 $1 to $12 corner X, Y*
0 $13 Rotation angle, in degrees counterclockwise*
0 create outline with 6 corners*
4,1,6,$1,$2,$3,$4,$5,$6,$7,$8,$9,$10,$11,$12,$1,$2,$13*%
%AMOutline7P*
0 Free polygon, 7 corners , with rotation*
0 The origin of the aperture is its center*
0 number of corners: always 7*
0 $1 to $14 corner X, Y*
0 $15 Rotation angle, in degrees counterclockwise*
0 create outline with 7 corners*
4,1,7,$1,$2,$3,$4,$5,$6,$7,$8,$9,$10,$11,$12,$13,$14,$1,$2,$15*%
%AMOutline8P*
0 Free polygon, 8 corners , with rotation*
0 The origin of the aperture is its center*
0 number of corners: always 8*
0 $1 to $16 corner X, Y*
0 $17 Rotation angle, in degrees counterclockwise*
0 create outline with 8 corners*
4,1,8,$1,$2,$3,$4,$5,$6,$7,$8,$9,$10,$11,$12,$13,$14,$15,$16,$1,$2,$17*%
%AMFreePoly0*
4,1,6,0.600000,-1.000000,0.000000,-0.400000,-0.600000,-1.000000,-0.600000,0.250000,0.600000,0.250000,0.600000,-1.000000,0.600000,-1.000000,$1*%
%AMFreePoly1*
4,1,6,0.600000,-0.200000,0.600000,-0.400000,-0.600000,-0.400000,-0.600000,-0.200000,0.000000,0.400000,0.600000,-0.200000,0.600000,-0.200000,$1*%
G04 Aperture macros list end*
%ADD10RotRect,0.600000X1.200000X349.000000*%
%ADD11RotRect,0.900000X1.200000X4.000000*%
%ADD12C,3.800000*%
%ADD13RotRect,0.900000X1.200000X18.000000*%
%ADD14RotRect,1.000000X0.800000X354.000000*%
%ADD15C,0.900000*%
%ADD16RotRect,0.700000X1.500000X354.000000*%
%ADD17RotRect,0.900000X1.200000X349.000000*%
%ADD18RotRect,0.900000X1.200000X354.000000*%
%ADD19R,0.900000X1.200000*%
%ADD20RotRect,0.900000X1.200000X1.000000*%
%ADD21RotRect,0.600000X1.200000X169.000000*%
%ADD22HorizOval,1.800000X0.466273X-0.090634X-0.466273X0.090634X0*%
%ADD23HorizOval,1.800000X-0.466273X0.090634X0.466273X-0.090634X0*%
%ADD24C,1.397000*%
%ADD25RotRect,1.550000X1.000000X198.000000*%
%ADD26FreePoly0,274.000000*%
%ADD27HorizOval,1.200000X0.274330X0.019183X-0.274330X-0.019183X0*%
%ADD28FreePoly1,274.000000*%
%ADD29RotRect,0.600000X1.200000X79.000000*%
%ADD30C,3.000000*%
%ADD31C,5.000000*%
%ADD32Outline5P,-1.300000X1.300000X1.300000X1.300000X1.300000X-1.300000X-0.117000X-1.300000X-1.300000X-0.117000X174.000000*%
%ADD33RotRect,2.600000X2.600000X174.000000*%
%ADD34Outline5P,-1.300000X1.300000X1.300000X1.300000X1.300000X-1.300000X-0.117000X-1.300000X-1.300000X-0.117000X180.000000*%
%ADD35R,2.600000X2.600000*%
%ADD36Outline5P,-1.300000X1.300000X1.300000X1.300000X1.300000X-1.300000X-0.117000X-1.300000X-1.300000X-0.117000X198.000000*%
%ADD37RotRect,2.600000X2.600000X198.000000*%
%ADD38Outline5P,-1.300000X1.300000X1.300000X1.300000X1.300000X-1.300000X-0.117000X-1.300000X-1.300000X-0.117000X184.000000*%
%ADD39RotRect,2.600000X2.600000X184.000000*%
%ADD40Outline5P,-1.300000X1.300000X1.300000X1.300000X1.300000X-1.300000X-0.117000X-1.300000X-1.300000X-0.117000X181.000000*%
%ADD41RotRect,2.600000X2.600000X181.000000*%
%ADD42Outline5P,-1.300000X1.300000X1.300000X1.300000X1.300000X-1.300000X-0.117000X-1.300000X-1.300000X-0.117000X169.000000*%
%ADD43RotRect,2.600000X2.600000X169.000000*%
G04 APERTURE END LIST*
D10*
%TO.C,_1*%
X194831166Y-120918223D03*
X195714616Y-121089951D03*
%TD*%
D11*
%TO.C,D6*%
X116466622Y-72816200D03*
X119758584Y-72586004D03*
%TD*%
D12*
%TO.C,H2*%
X121104623Y-139971252D03*
%TD*%
%TO.C,H4*%
X187925609Y-140459615D03*
%TD*%
D13*
%TO.C,D1*%
X102855035Y-132831236D03*
X105993521Y-131811480D03*
%TD*%
D14*
%TO.C,PWR1*%
X179394875Y-74231895D03*
X186654885Y-74994953D03*
D15*
X184632689Y-73666300D03*
X181649123Y-73352712D03*
D14*
X179625883Y-72034002D03*
X186885892Y-72797060D03*
D16*
X180719262Y-75024674D03*
X183702828Y-75338260D03*
X185194610Y-75495054D03*
%TD*%
D13*
%TO.C,D3*%
X91112394Y-96691081D03*
X94250880Y-95671325D03*
%TD*%
D17*
%TO.C,D17*%
X196313435Y-143689429D03*
X199552805Y-144319099D03*
%TD*%
D18*
%TO.C,D11*%
X160200398Y-94220019D03*
X163482320Y-94564963D03*
%TD*%
D19*
%TO.C,D9*%
X138690001Y-65261405D03*
X141990001Y-65261405D03*
%TD*%
D18*
%TO.C,D14*%
X178782727Y-99189624D03*
X182064649Y-99534568D03*
%TD*%
D20*
%TO.C,D16*%
X174454147Y-142123249D03*
X177753645Y-142065657D03*
%TD*%
D21*
%TO.C,_2*%
X206512503Y-123188856D03*
X205629053Y-123017128D03*
%TD*%
D18*
%TO.C,D15*%
X180768776Y-80293711D03*
X184050698Y-80638655D03*
%TD*%
%TO.C,D10*%
X158214359Y-113115951D03*
X161496281Y-113460895D03*
%TD*%
D22*
%TO.C,MCU1*%
X193225475Y-117937062D03*
X192740823Y-120430401D03*
X192256168Y-122923734D03*
X191771513Y-125417067D03*
X191286858Y-127910401D03*
X190802203Y-130403734D03*
X190317542Y-132897069D03*
D23*
X206210095Y-135986270D03*
X206694747Y-133492931D03*
X207179402Y-130999598D03*
X207664057Y-128506265D03*
X208148712Y-126012931D03*
X208633367Y-123519598D03*
X209118028Y-121026263D03*
D24*
X200106734Y-118304832D03*
X202600059Y-118789488D03*
X199622078Y-120798163D03*
X202115408Y-121282818D03*
X195414939Y-125802344D03*
X204141604Y-127498636D03*
X195778430Y-123932344D03*
X204505095Y-125628636D03*
%TD*%
D18*
%TO.C,D13*%
X176796691Y-118085551D03*
X180078613Y-118430495D03*
%TD*%
D11*
%TO.C,D5*%
X117792002Y-91769918D03*
X121083964Y-91539722D03*
%TD*%
D13*
%TO.C,D2*%
X96983719Y-114761160D03*
X100122205Y-113741404D03*
%TD*%
D12*
%TO.C,H1*%
X106117303Y-93845016D03*
%TD*%
D25*
%TO.C,RST1*%
X101534904Y-88236556D03*
X102060233Y-89853352D03*
X106527951Y-86614216D03*
X107053280Y-88231012D03*
%TD*%
D19*
%TO.C,D8*%
X138689995Y-84261404D03*
X141989995Y-84261404D03*
%TD*%
D26*
%TO.C,JST1*%
X120867842Y-129076239D03*
X121007363Y-131071367D03*
D27*
X118198222Y-131267801D03*
X118058710Y-129272673D03*
D28*
X119993838Y-131142239D03*
X119854325Y-129147111D03*
%TD*%
D18*
%TO.C,D12*%
X162186437Y-75324105D03*
X165468359Y-75669049D03*
%TD*%
D19*
%TO.C,D7*%
X138689997Y-103261409D03*
X141989997Y-103261409D03*
%TD*%
D12*
%TO.C,H3*%
X173334943Y-75922726D03*
%TD*%
D11*
%TO.C,D4*%
X119117365Y-110723624D03*
X122409327Y-110493428D03*
%TD*%
D29*
%TO.C,_4*%
X204007882Y-120613622D03*
X204179610Y-119730172D03*
%TD*%
D30*
%TO.C,S15*%
X186475032Y-89621276D03*
X181272460Y-91286582D03*
D31*
X181894404Y-85369177D03*
D30*
X176529813Y-88575992D03*
D32*
X184529519Y-91628913D03*
D33*
X173272756Y-88233658D03*
%TD*%
D30*
%TO.C,S9*%
X145339992Y-73941407D03*
D31*
X140339992Y-70191407D03*
D30*
X140339991Y-76141416D03*
X135339992Y-73941407D03*
D34*
X143614992Y-76141407D03*
D35*
X132064994Y-73941404D03*
%TD*%
D30*
%TO.C,S8*%
X145339992Y-92941409D03*
D31*
X140339992Y-89191409D03*
D30*
X140339991Y-95141418D03*
X135339992Y-92941409D03*
D34*
X143614992Y-95141409D03*
D35*
X132064994Y-92941406D03*
%TD*%
D30*
%TO.C,S13*%
X182502954Y-127413112D03*
X177300382Y-129078418D03*
D31*
X177922326Y-123161013D03*
D30*
X172557735Y-126367828D03*
D32*
X180557441Y-129420749D03*
D33*
X169300678Y-126025494D03*
%TD*%
D30*
%TO.C,S3*%
X100119178Y-102891295D03*
X96043737Y-106528710D03*
D31*
X94205082Y-100869918D03*
D30*
X90608613Y-105981465D03*
D36*
X99158443Y-105516674D03*
D37*
X87493903Y-106993496D03*
%TD*%
D30*
%TO.C,S14*%
X184488993Y-108517188D03*
X179286421Y-110182494D03*
D31*
X179908365Y-104265089D03*
D30*
X174543774Y-107471904D03*
D32*
X182543480Y-110524825D03*
D33*
X171286717Y-107129570D03*
%TD*%
D30*
%TO.C,S4*%
X126356657Y-118918616D03*
D31*
X121107250Y-115526533D03*
D30*
X121522300Y-121462052D03*
X116381010Y-119616184D03*
D38*
X124789323Y-121233587D03*
D39*
X113113997Y-119844631D03*
%TD*%
D30*
%TO.C,S16*%
X181254617Y-150685868D03*
D31*
X176189932Y-147023701D03*
D30*
X176293773Y-152972807D03*
X171256140Y-150860392D03*
D40*
X179568275Y-152915638D03*
D41*
X167981641Y-150917545D03*
%TD*%
D30*
%TO.C,S2*%
X105990505Y-120961370D03*
X101915064Y-124598785D03*
D31*
X100076409Y-118939993D03*
D30*
X96479940Y-124051540D03*
D36*
X105029770Y-123586749D03*
D37*
X93365230Y-125063571D03*
%TD*%
D30*
%TO.C,S17*%
X201185032Y-153478827D03*
D31*
X196992430Y-148843680D03*
D30*
X195857114Y-154684368D03*
X191368760Y-151570737D03*
D42*
X199071946Y-155309261D03*
D43*
X188153923Y-150945838D03*
%TD*%
D30*
%TO.C,S11*%
X165906662Y-103547588D03*
X160704090Y-105212894D03*
D31*
X161326034Y-99295489D03*
D30*
X155961443Y-102502304D03*
D32*
X163961149Y-105555225D03*
D33*
X152704386Y-102159970D03*
%TD*%
D30*
%TO.C,S10*%
X163920617Y-122443514D03*
X158718045Y-124108820D03*
D31*
X159339989Y-118191415D03*
D30*
X153975398Y-121398230D03*
D32*
X161975104Y-124451151D03*
D33*
X150718341Y-121055896D03*
%TD*%
D30*
%TO.C,S5*%
X125031287Y-99964890D03*
D31*
X119781880Y-96572807D03*
D30*
X120196930Y-102508326D03*
X115055640Y-100662458D03*
D38*
X123463953Y-102279861D03*
D39*
X111788627Y-100890905D03*
%TD*%
D30*
%TO.C,S6*%
X123705913Y-81011176D03*
D31*
X118456506Y-77619093D03*
D30*
X118871556Y-83554612D03*
X113730266Y-81708744D03*
D38*
X122138579Y-83326147D03*
D39*
X110463253Y-81937191D03*
%TD*%
D30*
%TO.C,S12*%
X167892708Y-84651666D03*
X162690136Y-86316972D03*
D31*
X163312080Y-80399567D03*
D30*
X157947489Y-83606382D03*
D32*
X165947195Y-86659303D03*
D33*
X154690432Y-83264048D03*
%TD*%
D30*
%TO.C,S7*%
X145340003Y-111941408D03*
D31*
X140340003Y-108191408D03*
D30*
X140340002Y-114141417D03*
X135340003Y-111941408D03*
D34*
X143615003Y-114141408D03*
D35*
X132065005Y-111941405D03*
%TD*%
D30*
%TO.C,S1*%
X111861837Y-139031442D03*
X107786396Y-142668857D03*
D31*
X105947741Y-137010065D03*
D30*
X102351272Y-142121612D03*
D36*
X110901102Y-141656821D03*
D37*
X99236562Y-143133643D03*
%TD*%
M02*
