%TF.GenerationSoftware,KiCad,Pcbnew,10.0.4*%
%TF.CreationDate,2026-07-09T16:36:33-04:00*%
%TF.ProjectId,pcb,7063622e-6b69-4636-9164-5f7063625858,v1.0.0*%
%TF.SameCoordinates,Original*%
%TF.FileFunction,Legend,Top*%
%TF.FilePolarity,Positive*%
%FSLAX46Y46*%
G04 Gerber Fmt 4.6, Leading zero omitted, Abs format (unit mm)*
G04 Created by KiCad (PCBNEW 10.0.4) date 2026-07-09 16:36:33*
%MOMM*%
%LPD*%
G01*
G04 APERTURE LIST*
%ADD10C,0.150000*%
%ADD11C,0.100000*%
%ADD12C,0.120000*%
G04 APERTURE END LIST*
D10*
X201773658Y-121612067D02*
X201858060Y-121676983D01*
X201858060Y-121676983D02*
X202045037Y-121713328D01*
X202045037Y-121713328D02*
X202147611Y-121684756D01*
X202147611Y-121684756D02*
X202212528Y-121600354D01*
X202212528Y-121600354D02*
X202221614Y-121553609D01*
X202221614Y-121553609D02*
X202193042Y-121451035D01*
X202193042Y-121451035D02*
X202108640Y-121386119D01*
X202108640Y-121386119D02*
X201968407Y-121358860D01*
X201968407Y-121358860D02*
X201884005Y-121293944D01*
X201884005Y-121293944D02*
X201855433Y-121191369D01*
X201855433Y-121191369D02*
X201864519Y-121144625D01*
X201864519Y-121144625D02*
X201929436Y-121060223D01*
X201929436Y-121060223D02*
X202032010Y-121031651D01*
X202032010Y-121031651D02*
X202172243Y-121058909D01*
X202172243Y-121058909D02*
X202256645Y-121123826D01*
X202746199Y-121849620D02*
X202661797Y-121784703D01*
X202661797Y-121784703D02*
X202624139Y-121728873D01*
X202624139Y-121728873D02*
X202595567Y-121626299D01*
X202595567Y-121626299D02*
X202650084Y-121345834D01*
X202650084Y-121345834D02*
X202715000Y-121261432D01*
X202715000Y-121261432D02*
X202770831Y-121223774D01*
X202770831Y-121223774D02*
X202873405Y-121195202D01*
X202873405Y-121195202D02*
X203013638Y-121222460D01*
X203013638Y-121222460D02*
X203098040Y-121287377D01*
X203098040Y-121287377D02*
X203135698Y-121343207D01*
X203135698Y-121343207D02*
X203164270Y-121445781D01*
X203164270Y-121445781D02*
X203109753Y-121726246D01*
X203109753Y-121726246D02*
X203044836Y-121810648D01*
X203044836Y-121810648D02*
X202989006Y-121848306D01*
X202989006Y-121848306D02*
X202886432Y-121876878D01*
X202886432Y-121876878D02*
X202746199Y-121849620D01*
X203634338Y-122022257D02*
X203549936Y-121957340D01*
X203549936Y-121957340D02*
X203521364Y-121854766D01*
X203521364Y-121854766D02*
X203684915Y-121013371D01*
X204428989Y-122176721D02*
X204619798Y-121195094D01*
X204438075Y-122129977D02*
X204335501Y-122158549D01*
X204335501Y-122158549D02*
X204148524Y-122122204D01*
X204148524Y-122122204D02*
X204064122Y-122057288D01*
X204064122Y-122057288D02*
X204026464Y-122001457D01*
X204026464Y-122001457D02*
X203997892Y-121898883D01*
X203997892Y-121898883D02*
X204052409Y-121618418D01*
X204052409Y-121618418D02*
X204117325Y-121534016D01*
X204117325Y-121534016D02*
X204173156Y-121496358D01*
X204173156Y-121496358D02*
X204275730Y-121467786D01*
X204275730Y-121467786D02*
X204462707Y-121504131D01*
X204462707Y-121504131D02*
X204547109Y-121569047D01*
X205279470Y-122293527D02*
X205176896Y-122322099D01*
X205176896Y-122322099D02*
X204989919Y-122285755D01*
X204989919Y-122285755D02*
X204905517Y-122220838D01*
X204905517Y-122220838D02*
X204876945Y-122118264D01*
X204876945Y-122118264D02*
X204949634Y-121744311D01*
X204949634Y-121744311D02*
X205014551Y-121659908D01*
X205014551Y-121659908D02*
X205117125Y-121631337D01*
X205117125Y-121631337D02*
X205304102Y-121667681D01*
X205304102Y-121667681D02*
X205388504Y-121732598D01*
X205388504Y-121732598D02*
X205417076Y-121835172D01*
X205417076Y-121835172D02*
X205398903Y-121928660D01*
X205398903Y-121928660D02*
X204913290Y-121931287D01*
X205737826Y-122431133D02*
X205865032Y-121776715D01*
X205828687Y-121963692D02*
X205893603Y-121879289D01*
X205893603Y-121879289D02*
X205949434Y-121841631D01*
X205949434Y-121841631D02*
X206052008Y-121813060D01*
X206052008Y-121813060D02*
X206145497Y-121831232D01*
X207220613Y-122040213D02*
X207057062Y-122881608D01*
X207057062Y-122881608D02*
X206992146Y-122966010D01*
X206992146Y-122966010D02*
X206889571Y-122994582D01*
X206889571Y-122994582D02*
X206842827Y-122985496D01*
X207284216Y-121713004D02*
X207228385Y-121750662D01*
X207228385Y-121750662D02*
X207266043Y-121806492D01*
X207266043Y-121806492D02*
X207321874Y-121768834D01*
X207321874Y-121768834D02*
X207284216Y-121713004D01*
X207284216Y-121713004D02*
X207266043Y-121806492D01*
X208108751Y-122212850D02*
X207981545Y-122867268D01*
X207688054Y-122131075D02*
X207588106Y-122645260D01*
X207588106Y-122645260D02*
X207616678Y-122747835D01*
X207616678Y-122747835D02*
X207701080Y-122812751D01*
X207701080Y-122812751D02*
X207841313Y-122840010D01*
X207841313Y-122840010D02*
X207943887Y-122811438D01*
X207943887Y-122811438D02*
X207999717Y-122773780D01*
X208448987Y-122958129D02*
X208576193Y-122303711D01*
X208558020Y-122397200D02*
X208613851Y-122359542D01*
X208613851Y-122359542D02*
X208716425Y-122330970D01*
X208716425Y-122330970D02*
X208856658Y-122358228D01*
X208856658Y-122358228D02*
X208941060Y-122423145D01*
X208941060Y-122423145D02*
X208969632Y-122525719D01*
X208969632Y-122525719D02*
X208869684Y-123039905D01*
X208969632Y-122525719D02*
X209034548Y-122441317D01*
X209034548Y-122441317D02*
X209137122Y-122412745D01*
X209137122Y-122412745D02*
X209277355Y-122440003D01*
X209277355Y-122440003D02*
X209361757Y-122504920D01*
X209361757Y-122504920D02*
X209390329Y-122607494D01*
X209390329Y-122607494D02*
X209290381Y-123121680D01*
X209885029Y-122558123D02*
X209694220Y-123539750D01*
X209875942Y-122604867D02*
X209978517Y-122576295D01*
X209978517Y-122576295D02*
X210165493Y-122612640D01*
X210165493Y-122612640D02*
X210249896Y-122677556D01*
X210249896Y-122677556D02*
X210287554Y-122733387D01*
X210287554Y-122733387D02*
X210316125Y-122835961D01*
X210316125Y-122835961D02*
X210261609Y-123116426D01*
X210261609Y-123116426D02*
X210196692Y-123200828D01*
X210196692Y-123200828D02*
X210140862Y-123238486D01*
X210140862Y-123238486D02*
X210038287Y-123267058D01*
X210038287Y-123267058D02*
X209851311Y-123230714D01*
X209851311Y-123230714D02*
X209766909Y-123165797D01*
X211029001Y-123411123D02*
X210926426Y-123439695D01*
X210926426Y-123439695D02*
X210739450Y-123403350D01*
X210739450Y-123403350D02*
X210655048Y-123338434D01*
X210655048Y-123338434D02*
X210626476Y-123235859D01*
X210626476Y-123235859D02*
X210699165Y-122861906D01*
X210699165Y-122861906D02*
X210764081Y-122777504D01*
X210764081Y-122777504D02*
X210866656Y-122748932D01*
X210866656Y-122748932D02*
X211053632Y-122785277D01*
X211053632Y-122785277D02*
X211138035Y-122850193D01*
X211138035Y-122850193D02*
X211166606Y-122952768D01*
X211166606Y-122952768D02*
X211148434Y-123046256D01*
X211148434Y-123046256D02*
X210662820Y-123048883D01*
X211487356Y-123548729D02*
X211614562Y-122894311D01*
X211578218Y-123081287D02*
X211643134Y-122996885D01*
X211643134Y-122996885D02*
X211698965Y-122959227D01*
X211698965Y-122959227D02*
X211801539Y-122930655D01*
X211801539Y-122930655D02*
X211895027Y-122948827D01*
X212057373Y-123611018D02*
X212141775Y-123675935D01*
X212141775Y-123675935D02*
X212328751Y-123712279D01*
X212328751Y-123712279D02*
X212431326Y-123683707D01*
X212431326Y-123683707D02*
X212496242Y-123599305D01*
X212496242Y-123599305D02*
X212505329Y-123552561D01*
X212505329Y-123552561D02*
X212476757Y-123449987D01*
X212476757Y-123449987D02*
X212392354Y-123385070D01*
X212392354Y-123385070D02*
X212252122Y-123357812D01*
X212252122Y-123357812D02*
X212167720Y-123292895D01*
X212167720Y-123292895D02*
X212139148Y-123190321D01*
X212139148Y-123190321D02*
X212148234Y-123143577D01*
X212148234Y-123143577D02*
X212213151Y-123059175D01*
X212213151Y-123059175D02*
X212315725Y-123030603D01*
X212315725Y-123030603D02*
X212455957Y-123057861D01*
X212455957Y-123057861D02*
X212540360Y-123122778D01*
X202052028Y-122675619D02*
X202425981Y-122748308D01*
X202065054Y-123357296D02*
X202228605Y-122515901D01*
X202228605Y-122515901D02*
X202293521Y-122431499D01*
X202293521Y-122431499D02*
X202396096Y-122402927D01*
X202396096Y-122402927D02*
X202489584Y-122421099D01*
X202766217Y-123493588D02*
X202681815Y-123428671D01*
X202681815Y-123428671D02*
X202644157Y-123372841D01*
X202644157Y-123372841D02*
X202615585Y-123270267D01*
X202615585Y-123270267D02*
X202670102Y-122989802D01*
X202670102Y-122989802D02*
X202735018Y-122905400D01*
X202735018Y-122905400D02*
X202790848Y-122867742D01*
X202790848Y-122867742D02*
X202893423Y-122839170D01*
X202893423Y-122839170D02*
X203033655Y-122866428D01*
X203033655Y-122866428D02*
X203118057Y-122931345D01*
X203118057Y-122931345D02*
X203155715Y-122987175D01*
X203155715Y-122987175D02*
X203184287Y-123089749D01*
X203184287Y-123089749D02*
X203129770Y-123370214D01*
X203129770Y-123370214D02*
X203064854Y-123454616D01*
X203064854Y-123454616D02*
X203009024Y-123492274D01*
X203009024Y-123492274D02*
X202906449Y-123520846D01*
X202906449Y-123520846D02*
X202766217Y-123493588D01*
X203514123Y-123638966D02*
X203641329Y-122984548D01*
X203604985Y-123171525D02*
X203669901Y-123087123D01*
X203669901Y-123087123D02*
X203725731Y-123049465D01*
X203725731Y-123049465D02*
X203828306Y-123020893D01*
X203828306Y-123020893D02*
X203921794Y-123039065D01*
X204869704Y-123902464D02*
X204996910Y-123248046D01*
X204960566Y-123435023D02*
X205025482Y-123350621D01*
X205025482Y-123350621D02*
X205081313Y-123312963D01*
X205081313Y-123312963D02*
X205183887Y-123284391D01*
X205183887Y-123284391D02*
X205277375Y-123302563D01*
X205477379Y-124020584D02*
X205604585Y-123366166D01*
X205668188Y-123038957D02*
X205612357Y-123076615D01*
X205612357Y-123076615D02*
X205650015Y-123132446D01*
X205650015Y-123132446D02*
X205705846Y-123094787D01*
X205705846Y-123094787D02*
X205668188Y-123038957D01*
X205668188Y-123038957D02*
X205650015Y-123132446D01*
X206492723Y-123538803D02*
X206338259Y-124333453D01*
X206338259Y-124333453D02*
X206273342Y-124417856D01*
X206273342Y-124417856D02*
X206217512Y-124455514D01*
X206217512Y-124455514D02*
X206114937Y-124484085D01*
X206114937Y-124484085D02*
X205974705Y-124456827D01*
X205974705Y-124456827D02*
X205890303Y-124391911D01*
X206374603Y-124146477D02*
X206272029Y-124175049D01*
X206272029Y-124175049D02*
X206085052Y-124138704D01*
X206085052Y-124138704D02*
X206000650Y-124073788D01*
X206000650Y-124073788D02*
X205962992Y-124017957D01*
X205962992Y-124017957D02*
X205934420Y-123915383D01*
X205934420Y-123915383D02*
X205988937Y-123634918D01*
X205988937Y-123634918D02*
X206053853Y-123550516D01*
X206053853Y-123550516D02*
X206109684Y-123512858D01*
X206109684Y-123512858D02*
X206212258Y-123484286D01*
X206212258Y-123484286D02*
X206399235Y-123520631D01*
X206399235Y-123520631D02*
X206483637Y-123585547D01*
X206832959Y-124284082D02*
X207023768Y-123302455D01*
X207253656Y-124365858D02*
X207353604Y-123851672D01*
X207353604Y-123851672D02*
X207325032Y-123749098D01*
X207325032Y-123749098D02*
X207240630Y-123684181D01*
X207240630Y-123684181D02*
X207100397Y-123656923D01*
X207100397Y-123656923D02*
X206997823Y-123685495D01*
X206997823Y-123685495D02*
X206941992Y-123723153D01*
X207708071Y-123775043D02*
X208082024Y-123847732D01*
X207911907Y-123475092D02*
X207748356Y-124316487D01*
X207748356Y-124316487D02*
X207776928Y-124419061D01*
X207776928Y-124419061D02*
X207861330Y-124483978D01*
X207861330Y-124483978D02*
X207954818Y-124502150D01*
X208992277Y-124655301D02*
X209076679Y-124720217D01*
X209076679Y-124720217D02*
X209263655Y-124756562D01*
X209263655Y-124756562D02*
X209366230Y-124727990D01*
X209366230Y-124727990D02*
X209431146Y-124643588D01*
X209431146Y-124643588D02*
X209440232Y-124596844D01*
X209440232Y-124596844D02*
X209411661Y-124494269D01*
X209411661Y-124494269D02*
X209327258Y-124429353D01*
X209327258Y-124429353D02*
X209187026Y-124402095D01*
X209187026Y-124402095D02*
X209102624Y-124337178D01*
X209102624Y-124337178D02*
X209074052Y-124234604D01*
X209074052Y-124234604D02*
X209083138Y-124187859D01*
X209083138Y-124187859D02*
X209148054Y-124103457D01*
X209148054Y-124103457D02*
X209250629Y-124074885D01*
X209250629Y-124074885D02*
X209390861Y-124102144D01*
X209390861Y-124102144D02*
X209475263Y-124167060D01*
X209824585Y-124865596D02*
X209951791Y-124211178D01*
X210015394Y-123883969D02*
X209959564Y-123921627D01*
X209959564Y-123921627D02*
X209997222Y-123977457D01*
X209997222Y-123977457D02*
X210053052Y-123939799D01*
X210053052Y-123939799D02*
X210015394Y-123883969D01*
X210015394Y-123883969D02*
X209997222Y-123977457D01*
X210712724Y-125038232D02*
X210903533Y-124056605D01*
X210721810Y-124991488D02*
X210619235Y-125020060D01*
X210619235Y-125020060D02*
X210432259Y-124983716D01*
X210432259Y-124983716D02*
X210347857Y-124918799D01*
X210347857Y-124918799D02*
X210310199Y-124862969D01*
X210310199Y-124862969D02*
X210281627Y-124760394D01*
X210281627Y-124760394D02*
X210336144Y-124479929D01*
X210336144Y-124479929D02*
X210401060Y-124395527D01*
X210401060Y-124395527D02*
X210456890Y-124357869D01*
X210456890Y-124357869D02*
X210559465Y-124329297D01*
X210559465Y-124329297D02*
X210746441Y-124365642D01*
X210746441Y-124365642D02*
X210830844Y-124430558D01*
X211563205Y-125155039D02*
X211460630Y-125183611D01*
X211460630Y-125183611D02*
X211273654Y-125147266D01*
X211273654Y-125147266D02*
X211189252Y-125082350D01*
X211189252Y-125082350D02*
X211160680Y-124979775D01*
X211160680Y-124979775D02*
X211233369Y-124605822D01*
X211233369Y-124605822D02*
X211298285Y-124521420D01*
X211298285Y-124521420D02*
X211400860Y-124492848D01*
X211400860Y-124492848D02*
X211587836Y-124529193D01*
X211587836Y-124529193D02*
X211672238Y-124594109D01*
X211672238Y-124594109D02*
X211700810Y-124696683D01*
X211700810Y-124696683D02*
X211682638Y-124790172D01*
X211682638Y-124790172D02*
X211197024Y-124792799D01*
X180998996Y-121794757D02*
X180924332Y-122505130D01*
X180924332Y-122505130D02*
X180862042Y-122642227D01*
X180862042Y-122642227D02*
X180757370Y-122726988D01*
X180757370Y-122726988D02*
X180610318Y-122759414D01*
X180610318Y-122759414D02*
X180515602Y-122749459D01*
X181841631Y-122888830D02*
X181368049Y-122839054D01*
X181368049Y-122839054D02*
X181472578Y-121844533D01*
X182751392Y-122888687D02*
X182699056Y-122931068D01*
X182699056Y-122931068D02*
X182552004Y-122963493D01*
X182552004Y-122963493D02*
X182457288Y-122953538D01*
X182457288Y-122953538D02*
X182320191Y-122891247D01*
X182320191Y-122891247D02*
X182235429Y-122786576D01*
X182235429Y-122786576D02*
X182198026Y-122686882D01*
X182198026Y-122686882D02*
X182170578Y-122492472D01*
X182170578Y-122492472D02*
X182185511Y-122350397D01*
X182185511Y-122350397D02*
X182252779Y-122165942D01*
X182252779Y-122165942D02*
X182310093Y-122076203D01*
X182310093Y-122076203D02*
X182414764Y-121991442D01*
X182414764Y-121991442D02*
X182561816Y-121959016D01*
X182561816Y-121959016D02*
X182656533Y-121968971D01*
X182656533Y-121968971D02*
X182793630Y-122031262D01*
X182793630Y-122031262D02*
X182836010Y-122083598D01*
X183556338Y-122063545D02*
X183481675Y-122773917D01*
X183481675Y-122773917D02*
X183419384Y-122911014D01*
X183419384Y-122911014D02*
X183314713Y-122995776D01*
X183314713Y-122995776D02*
X183167660Y-123028201D01*
X183167660Y-123028201D02*
X183072944Y-123018246D01*
X184398974Y-123157617D02*
X183925392Y-123107842D01*
X183925392Y-123107842D02*
X184029920Y-122113320D01*
X185308734Y-123157474D02*
X185256399Y-123199855D01*
X185256399Y-123199855D02*
X185109346Y-123232281D01*
X185109346Y-123232281D02*
X185014630Y-123222326D01*
X185014630Y-123222326D02*
X184877533Y-123160035D01*
X184877533Y-123160035D02*
X184792772Y-123055363D01*
X184792772Y-123055363D02*
X184755369Y-122955669D01*
X184755369Y-122955669D02*
X184727921Y-122761259D01*
X184727921Y-122761259D02*
X184742853Y-122619184D01*
X184742853Y-122619184D02*
X184810122Y-122434729D01*
X184810122Y-122434729D02*
X184867435Y-122344990D01*
X184867435Y-122344990D02*
X184972106Y-122260229D01*
X184972106Y-122260229D02*
X185119159Y-122227804D01*
X185119159Y-122227804D02*
X185213875Y-122237759D01*
X185213875Y-122237759D02*
X185350972Y-122300050D01*
X185350972Y-122300050D02*
X185393353Y-122352385D01*
X186113680Y-122332332D02*
X186039017Y-123042705D01*
X186039017Y-123042705D02*
X185976726Y-123179802D01*
X185976726Y-123179802D02*
X185872055Y-123264563D01*
X185872055Y-123264563D02*
X185725003Y-123296989D01*
X185725003Y-123296989D02*
X185630287Y-123287034D01*
X186956316Y-123426405D02*
X186482734Y-123376629D01*
X186482734Y-123376629D02*
X186587263Y-122382108D01*
X187866077Y-123426262D02*
X187813741Y-123468643D01*
X187813741Y-123468643D02*
X187666689Y-123501068D01*
X187666689Y-123501068D02*
X187571973Y-123491113D01*
X187571973Y-123491113D02*
X187434876Y-123428822D01*
X187434876Y-123428822D02*
X187350114Y-123324151D01*
X187350114Y-123324151D02*
X187312711Y-123224457D01*
X187312711Y-123224457D02*
X187285263Y-123030047D01*
X187285263Y-123030047D02*
X187300196Y-122887972D01*
X187300196Y-122887972D02*
X187367464Y-122703517D01*
X187367464Y-122703517D02*
X187424777Y-122613778D01*
X187424777Y-122613778D02*
X187529449Y-122529017D01*
X187529449Y-122529017D02*
X187676501Y-122496591D01*
X187676501Y-122496591D02*
X187771217Y-122506546D01*
X187771217Y-122506546D02*
X187908314Y-122568837D01*
X187908314Y-122568837D02*
X187950695Y-122621173D01*
X188671023Y-122601120D02*
X188596360Y-123311492D01*
X188596360Y-123311492D02*
X188534069Y-123448589D01*
X188534069Y-123448589D02*
X188429397Y-123533351D01*
X188429397Y-123533351D02*
X188282345Y-123565776D01*
X188282345Y-123565776D02*
X188187629Y-123555821D01*
X189513658Y-123695192D02*
X189040077Y-123645417D01*
X189040077Y-123645417D02*
X189144605Y-122650895D01*
X190423419Y-123695049D02*
X190371083Y-123737430D01*
X190371083Y-123737430D02*
X190224031Y-123769856D01*
X190224031Y-123769856D02*
X190129315Y-123759901D01*
X190129315Y-123759901D02*
X189992218Y-123697610D01*
X189992218Y-123697610D02*
X189907457Y-123592938D01*
X189907457Y-123592938D02*
X189870054Y-123493244D01*
X189870054Y-123493244D02*
X189842606Y-123298834D01*
X189842606Y-123298834D02*
X189857538Y-123156760D01*
X189857538Y-123156760D02*
X189924807Y-122972304D01*
X189924807Y-122972304D02*
X189982120Y-122882566D01*
X189982120Y-122882566D02*
X190086791Y-122797804D01*
X190086791Y-122797804D02*
X190233843Y-122765379D01*
X190233843Y-122765379D02*
X190328560Y-122775334D01*
X190328560Y-122775334D02*
X190465657Y-122837625D01*
X190465657Y-122837625D02*
X190508037Y-122889960D01*
X162305617Y-130875485D02*
X162222284Y-130780247D01*
X162222284Y-130780247D02*
X162043712Y-130685008D01*
X162043712Y-130685008D02*
X161853236Y-130685008D01*
X161853236Y-130685008D02*
X161650855Y-130780247D01*
X161650855Y-130780247D02*
X161543712Y-130875485D01*
X161543712Y-130875485D02*
X161424665Y-131065961D01*
X161424665Y-131065961D02*
X161400855Y-131256437D01*
X161400855Y-131256437D02*
X161472284Y-131446913D01*
X161472284Y-131446913D02*
X161555617Y-131542151D01*
X161555617Y-131542151D02*
X161734189Y-131637389D01*
X161734189Y-131637389D02*
X161924665Y-131637389D01*
X161924665Y-131637389D02*
X162127046Y-131542151D01*
X162127046Y-131542151D02*
X162234189Y-131446913D01*
X162329427Y-130685008D02*
X162234189Y-131446913D01*
X162234189Y-131446913D02*
X162317522Y-131542151D01*
X162317522Y-131542151D02*
X162412760Y-131542151D01*
X162412760Y-131542151D02*
X162615141Y-131446913D01*
X162615141Y-131446913D02*
X162734189Y-131256437D01*
X162734189Y-131256437D02*
X162793712Y-130780247D01*
X162793712Y-130780247D02*
X162638950Y-130494532D01*
X162638950Y-130494532D02*
X162377046Y-130304056D01*
X162377046Y-130304056D02*
X162007998Y-130208818D01*
X162007998Y-130208818D02*
X161615141Y-130304056D01*
X161615141Y-130304056D02*
X161305617Y-130494532D01*
X161305617Y-130494532D02*
X161079427Y-130780247D01*
X161079427Y-130780247D02*
X160936569Y-131161199D01*
X160936569Y-131161199D02*
X160984189Y-131542151D01*
X160984189Y-131542151D02*
X161138950Y-131827866D01*
X161138950Y-131827866D02*
X161400855Y-132018342D01*
X161400855Y-132018342D02*
X161769903Y-132113580D01*
X161769903Y-132113580D02*
X162162760Y-132018342D01*
X162162760Y-132018342D02*
X162472284Y-131827866D01*
X163519903Y-131827866D02*
X163686570Y-130494532D01*
X163638951Y-130875485D02*
X163757998Y-130685008D01*
X163757998Y-130685008D02*
X163865141Y-130589770D01*
X163865141Y-130589770D02*
X164067522Y-130494532D01*
X164067522Y-130494532D02*
X164257998Y-130494532D01*
X165531808Y-131732628D02*
X165329427Y-131827866D01*
X165329427Y-131827866D02*
X164948474Y-131827866D01*
X164948474Y-131827866D02*
X164769903Y-131732628D01*
X164769903Y-131732628D02*
X164698474Y-131542151D01*
X164698474Y-131542151D02*
X164793713Y-130780247D01*
X164793713Y-130780247D02*
X164912760Y-130589770D01*
X164912760Y-130589770D02*
X165115141Y-130494532D01*
X165115141Y-130494532D02*
X165496093Y-130494532D01*
X165496093Y-130494532D02*
X165674665Y-130589770D01*
X165674665Y-130589770D02*
X165746093Y-130780247D01*
X165746093Y-130780247D02*
X165722284Y-130970723D01*
X165722284Y-130970723D02*
X164746093Y-131161199D01*
X166638951Y-130494532D02*
X166424665Y-132208818D01*
X166424665Y-132208818D02*
X166305618Y-132399294D01*
X166305618Y-132399294D02*
X166103237Y-132494532D01*
X166103237Y-132494532D02*
X166007999Y-132494532D01*
X166722284Y-129827866D02*
X166615141Y-129923104D01*
X166615141Y-129923104D02*
X166698475Y-130018342D01*
X166698475Y-130018342D02*
X166805618Y-129923104D01*
X166805618Y-129923104D02*
X166722284Y-129827866D01*
X166722284Y-129827866D02*
X166698475Y-130018342D01*
X167400856Y-130494532D02*
X167710380Y-131827866D01*
X168353237Y-130494532D02*
X167710380Y-131827866D01*
X167710380Y-131827866D02*
X167460380Y-132304056D01*
X167460380Y-132304056D02*
X167353237Y-132399294D01*
X167353237Y-132399294D02*
X167150856Y-132494532D01*
X168948475Y-131827866D02*
X169115142Y-130494532D01*
X169067523Y-130875485D02*
X169186570Y-130685008D01*
X169186570Y-130685008D02*
X169293713Y-130589770D01*
X169293713Y-130589770D02*
X169496094Y-130494532D01*
X169496094Y-130494532D02*
X169686570Y-130494532D01*
X141031821Y-125086440D02*
X140698488Y-127753107D01*
X140984202Y-125467392D02*
X141198488Y-125276916D01*
X141198488Y-125276916D02*
X141603250Y-125086440D01*
X141603250Y-125086440D02*
X142174678Y-125086440D01*
X142174678Y-125086440D02*
X142531821Y-125276916D01*
X142531821Y-125276916D02*
X142674678Y-125657869D01*
X142674678Y-125657869D02*
X142412774Y-127753107D01*
X144317536Y-127753107D02*
X144650869Y-125086440D01*
X144817536Y-123753107D02*
X144603250Y-123943583D01*
X144603250Y-123943583D02*
X144769917Y-124134059D01*
X144769917Y-124134059D02*
X144984203Y-123943583D01*
X144984203Y-123943583D02*
X144817536Y-123753107D01*
X144817536Y-123753107D02*
X144769917Y-124134059D01*
X148269917Y-125086440D02*
X147865155Y-128324535D01*
X147865155Y-128324535D02*
X147627060Y-128705488D01*
X147627060Y-128705488D02*
X147412774Y-128895964D01*
X147412774Y-128895964D02*
X147008012Y-129086440D01*
X147008012Y-129086440D02*
X146436584Y-129086440D01*
X146436584Y-129086440D02*
X146079441Y-128895964D01*
X147960393Y-127562631D02*
X147555631Y-127753107D01*
X147555631Y-127753107D02*
X146793727Y-127753107D01*
X146793727Y-127753107D02*
X146436584Y-127562631D01*
X146436584Y-127562631D02*
X146269917Y-127372154D01*
X146269917Y-127372154D02*
X146127060Y-126991202D01*
X146127060Y-126991202D02*
X146269917Y-125848345D01*
X146269917Y-125848345D02*
X146508012Y-125467392D01*
X146508012Y-125467392D02*
X146722298Y-125276916D01*
X146722298Y-125276916D02*
X147127060Y-125086440D01*
X147127060Y-125086440D02*
X147888965Y-125086440D01*
X147888965Y-125086440D02*
X148246107Y-125276916D01*
X149841346Y-127753107D02*
X150341346Y-123753107D01*
X151555632Y-127753107D02*
X151817536Y-125657869D01*
X151817536Y-125657869D02*
X151674679Y-125276916D01*
X151674679Y-125276916D02*
X151317536Y-125086440D01*
X151317536Y-125086440D02*
X150746108Y-125086440D01*
X150746108Y-125086440D02*
X150341346Y-125276916D01*
X150341346Y-125276916D02*
X150127060Y-125467392D01*
X153222299Y-125086440D02*
X154746108Y-125086440D01*
X153960394Y-123753107D02*
X153531823Y-127181678D01*
X153531823Y-127181678D02*
X153674680Y-127562631D01*
X153674680Y-127562631D02*
X154031823Y-127753107D01*
X154031823Y-127753107D02*
X154412775Y-127753107D01*
X156079441Y-125086440D02*
X155650870Y-128515011D01*
X155650870Y-128515011D02*
X155412775Y-128895964D01*
X155412775Y-128895964D02*
X155008013Y-129086440D01*
X155008013Y-129086440D02*
X154817537Y-129086440D01*
X156246108Y-123753107D02*
X156031822Y-123943583D01*
X156031822Y-123943583D02*
X156198489Y-124134059D01*
X156198489Y-124134059D02*
X156412775Y-123943583D01*
X156412775Y-123943583D02*
X156246108Y-123753107D01*
X156246108Y-123753107D02*
X156198489Y-124134059D01*
X159365156Y-127753107D02*
X159627060Y-125657869D01*
X159627060Y-125657869D02*
X159484203Y-125276916D01*
X159484203Y-125276916D02*
X159127060Y-125086440D01*
X159127060Y-125086440D02*
X158365156Y-125086440D01*
X158365156Y-125086440D02*
X157960394Y-125276916D01*
X159388965Y-127562631D02*
X158984203Y-127753107D01*
X158984203Y-127753107D02*
X158031822Y-127753107D01*
X158031822Y-127753107D02*
X157674679Y-127562631D01*
X157674679Y-127562631D02*
X157531822Y-127181678D01*
X157531822Y-127181678D02*
X157579441Y-126800726D01*
X157579441Y-126800726D02*
X157817537Y-126419773D01*
X157817537Y-126419773D02*
X158222299Y-126229297D01*
X158222299Y-126229297D02*
X159174679Y-126229297D01*
X159174679Y-126229297D02*
X159579441Y-126038821D01*
X161269918Y-127753107D02*
X161603251Y-125086440D01*
X161508013Y-125848345D02*
X161746108Y-125467392D01*
X161746108Y-125467392D02*
X161960394Y-125276916D01*
X161960394Y-125276916D02*
X162365156Y-125086440D01*
X162365156Y-125086440D02*
X162746108Y-125086440D01*
X163865156Y-123753107D02*
X166341346Y-123753107D01*
X166341346Y-123753107D02*
X164817537Y-125276916D01*
X164817537Y-125276916D02*
X165388965Y-125276916D01*
X165388965Y-125276916D02*
X165746108Y-125467392D01*
X165746108Y-125467392D02*
X165912775Y-125657869D01*
X165912775Y-125657869D02*
X166055632Y-126038821D01*
X166055632Y-126038821D02*
X165936584Y-126991202D01*
X165936584Y-126991202D02*
X165698489Y-127372154D01*
X165698489Y-127372154D02*
X165484203Y-127562631D01*
X165484203Y-127562631D02*
X165079441Y-127753107D01*
X165079441Y-127753107D02*
X163936584Y-127753107D01*
X163936584Y-127753107D02*
X163579441Y-127562631D01*
X163579441Y-127562631D02*
X163412775Y-127372154D01*
X169603251Y-125086440D02*
X169269918Y-127753107D01*
X168841346Y-123562631D02*
X167531822Y-126419773D01*
X167531822Y-126419773D02*
X170008013Y-126419773D01*
X186287186Y-62620930D02*
X186307096Y-62431497D01*
X186307096Y-62431497D02*
X186364410Y-62341758D01*
X186364410Y-62341758D02*
X186469081Y-62256997D01*
X186469081Y-62256997D02*
X186663491Y-62229549D01*
X186663491Y-62229549D02*
X186994999Y-62264392D01*
X186994999Y-62264392D02*
X187179454Y-62331660D01*
X187179454Y-62331660D02*
X187264215Y-62436332D01*
X187264215Y-62436332D02*
X187301618Y-62536026D01*
X187301618Y-62536026D02*
X187281708Y-62725458D01*
X187281708Y-62725458D02*
X187224395Y-62815197D01*
X187224395Y-62815197D02*
X187119723Y-62899958D01*
X187119723Y-62899958D02*
X186925313Y-62927406D01*
X186925313Y-62927406D02*
X186593806Y-62892564D01*
X186593806Y-62892564D02*
X186409351Y-62825295D01*
X186409351Y-62825295D02*
X186324589Y-62720624D01*
X186324589Y-62720624D02*
X186287186Y-62620930D01*
X186885207Y-61486751D02*
X186850364Y-61818258D01*
X187371304Y-61873011D02*
X186376782Y-61768483D01*
X186376782Y-61768483D02*
X186426558Y-61294901D01*
X186974803Y-60634303D02*
X186939960Y-60965811D01*
X187460900Y-61020564D02*
X186466378Y-60916035D01*
X186466378Y-60916035D02*
X186516153Y-60442453D01*
X196267243Y-63334707D02*
X196287153Y-63145274D01*
X196287153Y-63145274D02*
X196344466Y-63055535D01*
X196344466Y-63055535D02*
X196449138Y-62970774D01*
X196449138Y-62970774D02*
X196643548Y-62943326D01*
X196643548Y-62943326D02*
X196975056Y-62978169D01*
X196975056Y-62978169D02*
X197159511Y-63045437D01*
X197159511Y-63045437D02*
X197244272Y-63150109D01*
X197244272Y-63150109D02*
X197281675Y-63249803D01*
X197281675Y-63249803D02*
X197261765Y-63439235D01*
X197261765Y-63439235D02*
X197204452Y-63528974D01*
X197204452Y-63528974D02*
X197099780Y-63613736D01*
X197099780Y-63613736D02*
X196905370Y-63641184D01*
X196905370Y-63641184D02*
X196573863Y-63606341D01*
X196573863Y-63606341D02*
X196389407Y-63539072D01*
X196389407Y-63539072D02*
X196304646Y-63434401D01*
X196304646Y-63434401D02*
X196267243Y-63334707D01*
X197351361Y-62586788D02*
X196356839Y-62482260D01*
X196356839Y-62482260D02*
X197411091Y-62018490D01*
X197411091Y-62018490D02*
X196416569Y-61913961D01*
%TO.C,D6*%
D11*
X126127676Y-61472448D02*
X126526702Y-61444546D01*
X126526702Y-61444546D02*
X126488339Y-60895886D01*
X126526702Y-61444546D02*
X126565076Y-61993208D01*
X126526702Y-61444546D02*
X127097337Y-61003666D01*
X127097337Y-61003666D02*
X127153143Y-61801718D01*
X127125240Y-61402692D02*
X127624022Y-61367814D01*
X127153143Y-61801718D02*
X126526702Y-61444546D01*
%TO.C,D1*%
X112474232Y-121272149D02*
X112854660Y-121148542D01*
X112854660Y-121148542D02*
X112684696Y-120625450D01*
X112854660Y-121148542D02*
X113024615Y-121671624D01*
X112854660Y-121148542D02*
X113301681Y-120582709D01*
X113301681Y-120582709D02*
X113548887Y-121343550D01*
X113425288Y-120963132D02*
X113900816Y-120808623D01*
X113548887Y-121343550D02*
X112854660Y-121148542D01*
%TO.C,PWR1*%
D12*
X188513818Y-61480046D02*
X188431240Y-62265721D01*
X190360255Y-63524250D02*
X190161352Y-63503346D01*
X193343821Y-63837835D02*
X191653134Y-63660137D01*
X194884878Y-61134108D02*
X189216105Y-60538296D01*
X195293441Y-62986965D02*
X195376019Y-62201293D01*
%TO.C,D3*%
D11*
X100731590Y-85131991D02*
X101112018Y-85008384D01*
X101112018Y-85008384D02*
X100942054Y-84485292D01*
X101112018Y-85008384D02*
X101281973Y-85531466D01*
X101112018Y-85008384D02*
X101559039Y-84442551D01*
X101559039Y-84442551D02*
X101806245Y-85203392D01*
X101682646Y-84822974D02*
X102158174Y-84668465D01*
X101806245Y-85203392D02*
X101112018Y-85008384D01*
%TO.C,D17*%
X205960142Y-132580186D02*
X206352797Y-132656515D01*
X206352797Y-132656515D02*
X206247850Y-133196405D01*
X206352797Y-132656515D02*
X206457744Y-132116614D01*
X206352797Y-132656515D02*
X207018092Y-132378345D01*
X206865445Y-133163646D02*
X206352797Y-132656515D01*
X206941776Y-132770995D02*
X207432582Y-132866400D01*
X207018092Y-132378345D02*
X206865445Y-133163646D01*
%TO.C,D11*%
X169858711Y-83033123D02*
X170256519Y-83074934D01*
X170256519Y-83074934D02*
X170199032Y-83621921D01*
X170256519Y-83074934D02*
X170314013Y-82527936D01*
X170256519Y-83074934D02*
X170895044Y-82739843D01*
X170811421Y-83535460D02*
X170256519Y-83074934D01*
X170853232Y-83137651D02*
X171350493Y-83189915D01*
X170895044Y-82739843D02*
X170811421Y-83535460D01*
%TO.C,D9*%
X148353245Y-53980433D02*
X148753245Y-53980433D01*
X148753245Y-53980433D02*
X148753247Y-53430423D01*
X148753245Y-53980433D02*
X148753253Y-54530436D01*
X148753245Y-53980433D02*
X149353245Y-53580433D01*
X149353245Y-53580433D02*
X149353245Y-54380433D01*
X149353245Y-53980433D02*
X149853245Y-53980433D01*
X149353245Y-54380433D02*
X148753245Y-53980433D01*
%TO.C,D14*%
X188441041Y-88002728D02*
X188838849Y-88044539D01*
X188838849Y-88044539D02*
X188781362Y-88591526D01*
X188838849Y-88044539D02*
X188896343Y-87497541D01*
X188838849Y-88044539D02*
X189477374Y-87709448D01*
X189393751Y-88505065D02*
X188838849Y-88044539D01*
X189435562Y-88107256D02*
X189932823Y-88159520D01*
X189477374Y-87709448D02*
X189393751Y-88505065D01*
%TO.C,D16*%
X184117257Y-130826569D02*
X184517196Y-130819588D01*
X184517196Y-130819588D02*
X184507598Y-130269664D01*
X184517196Y-130819588D02*
X184526801Y-131369507D01*
X184517196Y-130819588D02*
X185110124Y-130409178D01*
X185110124Y-130409178D02*
X185124086Y-131209056D01*
X185117105Y-130809117D02*
X185617029Y-130800391D01*
X185124086Y-131209056D02*
X184517196Y-130819588D01*
%TO.C,D15*%
X190427090Y-69106812D02*
X190824898Y-69148623D01*
X190824898Y-69148623D02*
X190767411Y-69695610D01*
X190824898Y-69148623D02*
X190882392Y-68601625D01*
X190824898Y-69148623D02*
X191463423Y-68813532D01*
X191379800Y-69609149D02*
X190824898Y-69148623D01*
X191421611Y-69211340D02*
X191918872Y-69263604D01*
X191463423Y-68813532D02*
X191379800Y-69609149D01*
%TO.C,D10*%
X167872673Y-101929055D02*
X168270481Y-101970866D01*
X168270481Y-101970866D02*
X168212994Y-102517853D01*
X168270481Y-101970866D02*
X168327975Y-101423868D01*
X168270481Y-101970866D02*
X168909006Y-101635775D01*
X168825383Y-102431392D02*
X168270481Y-101970866D01*
X168867194Y-102033583D02*
X169364455Y-102085847D01*
X168909006Y-101635775D02*
X168825383Y-102431392D01*
%TO.C,D13*%
X186455003Y-106898655D02*
X186852811Y-106940466D01*
X186852811Y-106940466D02*
X186795324Y-107487453D01*
X186852811Y-106940466D02*
X186910305Y-106393468D01*
X186852811Y-106940466D02*
X187491336Y-106605375D01*
X187407713Y-107400992D02*
X186852811Y-106940466D01*
X187449524Y-107003183D02*
X187946785Y-107055447D01*
X187491336Y-106605375D02*
X187407713Y-107400992D01*
%TO.C,D5*%
X127453054Y-80426167D02*
X127852080Y-80398265D01*
X127852080Y-80398265D02*
X127813717Y-79849605D01*
X127852080Y-80398265D02*
X127890454Y-80946927D01*
X127852080Y-80398265D02*
X128422715Y-79957385D01*
X128422715Y-79957385D02*
X128478521Y-80755437D01*
X128450618Y-80356411D02*
X128949400Y-80321533D01*
X128478521Y-80755437D02*
X127852080Y-80398265D01*
%TO.C,D2*%
X106602914Y-103202073D02*
X106983342Y-103078466D01*
X106983342Y-103078466D02*
X106813378Y-102555374D01*
X106983342Y-103078466D02*
X107153297Y-103601548D01*
X106983342Y-103078466D02*
X107430363Y-102512633D01*
X107430363Y-102512633D02*
X107677569Y-103273474D01*
X107553970Y-102893056D02*
X108029498Y-102738547D01*
X107677569Y-103273474D02*
X106983342Y-103078466D01*
%TO.C,RST1*%
X110358826Y-76252416D02*
X110281571Y-76014652D01*
X110519336Y-75937398D02*
X110281571Y-76014652D01*
X111285877Y-79105586D02*
X111363131Y-79343350D01*
X111600895Y-79266108D02*
X111363131Y-79343350D01*
X114513773Y-74639514D02*
X114751537Y-74562272D01*
X114828791Y-74800036D02*
X114751537Y-74562272D01*
X115595332Y-77968224D02*
X115833097Y-77890970D01*
X115755842Y-77653206D02*
X115833097Y-77890970D01*
%TO.C,D8*%
X148353239Y-72980432D02*
X148753239Y-72980432D01*
X148753239Y-72980432D02*
X148753241Y-72430422D01*
X148753239Y-72980432D02*
X148753247Y-73530435D01*
X148753239Y-72980432D02*
X149353239Y-72580432D01*
X149353239Y-72580432D02*
X149353239Y-73380432D01*
X149353239Y-72980432D02*
X149853239Y-72980432D01*
X149353239Y-73380432D02*
X148753239Y-72980432D01*
%TO.C,JST1*%
D12*
X125221813Y-116038564D02*
X126219377Y-115968808D01*
X125285983Y-116956322D02*
X125221813Y-116038564D01*
X125578966Y-121146092D02*
X125648729Y-122143657D01*
X125648729Y-122143657D02*
X126646286Y-122073900D01*
X133022764Y-115493069D02*
X132025199Y-115562825D01*
X133086940Y-116410828D02*
X133022764Y-115493069D01*
X133385497Y-120680402D02*
X133449673Y-121598161D01*
X133449673Y-121598161D02*
X132452109Y-121667917D01*
D11*
X133705154Y-117510382D02*
X134702713Y-117440630D01*
X134169050Y-116976722D02*
X134238807Y-117974286D01*
X134378320Y-119969414D02*
X134308567Y-118971845D01*
%TO.C,D12*%
X171844750Y-64137208D02*
X172242558Y-64179019D01*
X172242558Y-64179019D02*
X172185071Y-64726006D01*
X172242558Y-64179019D02*
X172300052Y-63632021D01*
X172242558Y-64179019D02*
X172881083Y-63843928D01*
X172797460Y-64639545D02*
X172242558Y-64179019D01*
X172839271Y-64241736D02*
X173336532Y-64294000D01*
X172881083Y-63843928D02*
X172797460Y-64639545D01*
%TO.C,D7*%
X148353243Y-91980437D02*
X148753243Y-91980437D01*
X148753243Y-91980437D02*
X148753245Y-91430427D01*
X148753243Y-91980437D02*
X148753251Y-92530440D01*
X148753243Y-91980437D02*
X149353243Y-91580437D01*
X149353243Y-91580437D02*
X149353243Y-92380437D01*
X149353243Y-91980437D02*
X149853243Y-91980437D01*
X149353243Y-92380437D02*
X148753243Y-91980437D01*
%TO.C,D4*%
X128778415Y-99379872D02*
X129177441Y-99351970D01*
X129177441Y-99351970D02*
X129139078Y-98803310D01*
X129177441Y-99351970D02*
X129215815Y-99900632D01*
X129177441Y-99351970D02*
X129748076Y-98911090D01*
X129748076Y-98911090D02*
X129803882Y-99709142D01*
X129775979Y-99310116D02*
X130274761Y-99275238D01*
X129803882Y-99709142D02*
X129177441Y-99351970D01*
%TO.C,S15*%
D10*
X187863735Y-81536966D02*
X188308732Y-82086491D01*
X188229585Y-78056139D02*
X188779116Y-77611147D01*
X188308732Y-82086491D02*
X191292297Y-82400076D01*
X188779116Y-77611147D02*
X191066510Y-77851558D01*
X191292297Y-82400076D02*
X191841823Y-81955080D01*
X191937989Y-81040119D02*
X191841823Y-81955080D01*
X192913990Y-76537473D02*
X192987160Y-75841308D01*
X192987160Y-75841308D02*
X197462509Y-76311686D01*
X196971225Y-80985939D02*
X192515769Y-80517649D01*
X197033942Y-80389226D02*
X196971225Y-80985939D01*
X197462509Y-76311686D02*
X197410244Y-76808947D01*
X191937989Y-81040119D02*
G75*
G02*
X192515769Y-80517648I550146J-27677D01*
G01*
X192911900Y-76557364D02*
G75*
G02*
X191066510Y-77851558I-1569780J275581D01*
G01*
%TO.C,S9*%
X147103237Y-66610435D02*
X147603237Y-67110435D01*
X147103246Y-63110436D02*
X147603239Y-62610441D01*
X147603237Y-67110435D02*
X150603237Y-67110435D01*
X147603239Y-62610441D02*
X149903237Y-62610435D01*
X150603237Y-67110435D02*
X151103237Y-66610435D01*
X151103231Y-65690438D02*
X151103237Y-66610435D01*
X151603237Y-60410435D02*
X156103237Y-60410435D01*
X151603237Y-61110435D02*
X151603237Y-60410435D01*
X156103237Y-60410435D02*
X156103237Y-60910435D01*
X156103237Y-64510435D02*
X156103244Y-65110435D01*
X156103244Y-65110435D02*
X151623244Y-65110429D01*
X151103231Y-65690438D02*
G75*
G02*
X151623244Y-65110428I550034J29978D01*
G01*
X151603237Y-61130435D02*
G75*
G02*
X149903237Y-62610435I-1589995J109994D01*
G01*
%TO.C,S8*%
X147103236Y-85610439D02*
X147603236Y-86110439D01*
X147103245Y-82110440D02*
X147603238Y-81610445D01*
X147603236Y-86110439D02*
X150603236Y-86110439D01*
X147603238Y-81610445D02*
X149903236Y-81610439D01*
X150603236Y-86110439D02*
X151103236Y-85610439D01*
X151103230Y-84690442D02*
X151103236Y-85610439D01*
X151603236Y-79410439D02*
X156103236Y-79410439D01*
X151603236Y-80110439D02*
X151603236Y-79410439D01*
X156103236Y-79410439D02*
X156103236Y-79910439D01*
X156103236Y-83510439D02*
X156103243Y-84110439D01*
X156103243Y-84110439D02*
X151623243Y-84110433D01*
X151103230Y-84690442D02*
G75*
G02*
X151623243Y-84110432I550034J29978D01*
G01*
X151603236Y-80130439D02*
G75*
G02*
X149903236Y-81610439I-1589995J109994D01*
G01*
%TO.C,S13*%
X183891656Y-119328805D02*
X184336653Y-119878330D01*
X184257506Y-115847978D02*
X184807037Y-115402986D01*
X184336653Y-119878330D02*
X187320218Y-120191915D01*
X184807037Y-115402986D02*
X187094431Y-115643397D01*
X187320218Y-120191915D02*
X187869744Y-119746919D01*
X187965910Y-118831958D02*
X187869744Y-119746919D01*
X188941911Y-114329312D02*
X189015081Y-113633147D01*
X189015081Y-113633147D02*
X193490430Y-114103525D01*
X192999146Y-118777778D02*
X188543690Y-118309488D01*
X193061863Y-118181065D02*
X192999146Y-118777778D01*
X193490430Y-114103525D02*
X193438165Y-114600786D01*
X187965910Y-118831958D02*
G75*
G02*
X188543690Y-118309487I550146J-27677D01*
G01*
X188939821Y-114349203D02*
G75*
G02*
X187094431Y-115643397I-1569780J275581D01*
G01*
%TO.C,S3*%
X102364086Y-94201417D02*
X102685106Y-93571381D01*
X102685106Y-93571381D02*
X104872536Y-92860642D01*
X103445646Y-97530115D02*
X104075683Y-97851135D01*
X104075683Y-97851135D02*
X106928852Y-96924084D01*
X105809495Y-90242988D02*
X110089249Y-88852412D01*
X106025807Y-90908728D02*
X105809495Y-90242988D01*
X106928852Y-96924084D02*
X107249872Y-96294047D01*
X106965576Y-95419075D02*
X107249872Y-96294047D01*
X110089249Y-88852412D02*
X110243758Y-89327940D01*
X111356219Y-92751744D02*
X111541629Y-93322377D01*
X111541629Y-93322377D02*
X107280896Y-94706774D01*
X106031986Y-90927760D02*
G75*
G02*
X104872536Y-92860642I-1546166J-386716D01*
G01*
X106965576Y-95419075D02*
G75*
G02*
X107280896Y-94706774I513810J198491D01*
G01*
%TO.C,S14*%
X185877694Y-100432879D02*
X186322691Y-100982404D01*
X186243544Y-96952052D02*
X186793075Y-96507060D01*
X186322691Y-100982404D02*
X189306256Y-101295989D01*
X186793075Y-96507060D02*
X189080469Y-96747471D01*
X189306256Y-101295989D02*
X189855782Y-100850993D01*
X189951948Y-99936032D02*
X189855782Y-100850993D01*
X190927949Y-95433386D02*
X191001119Y-94737221D01*
X191001119Y-94737221D02*
X195476468Y-95207599D01*
X194985184Y-99881852D02*
X190529728Y-99413562D01*
X195047901Y-99285139D02*
X194985184Y-99881852D01*
X195476468Y-95207599D02*
X195424203Y-95704860D01*
X189951948Y-99936032D02*
G75*
G02*
X190529728Y-99413561I550146J-27677D01*
G01*
X190925859Y-95453277D02*
G75*
G02*
X189080469Y-96747471I-1569780J275581D01*
G01*
%TO.C,S4*%
X128168351Y-108574845D02*
X128632256Y-108041186D01*
X128412493Y-112066318D02*
X128946153Y-112530222D01*
X128632256Y-108041186D02*
X130926646Y-107880744D01*
X128946153Y-112530222D02*
X131938845Y-112320953D01*
X131938845Y-112320953D02*
X132402749Y-111787292D01*
X132338573Y-110869533D02*
X132402749Y-111787292D01*
X132469041Y-105567517D02*
X136958079Y-105253613D01*
X132517870Y-106265812D02*
X132469041Y-105567517D01*
X136958079Y-105253613D02*
X136992957Y-105752395D01*
X137244079Y-109343627D02*
X137285941Y-109942164D01*
X137285941Y-109942164D02*
X132816852Y-110254671D01*
X132338573Y-110869533D02*
G75*
G02*
X132816852Y-110254671I546568J68293D01*
G01*
X132519265Y-106285763D02*
G75*
G02*
X130926646Y-107880743I-1593798J-1182D01*
G01*
%TO.C,S16*%
X183026793Y-139976994D02*
X183517986Y-139468347D01*
X183087864Y-143476461D02*
X183596514Y-143967659D01*
X183517986Y-139468347D02*
X185817628Y-139428204D01*
X183596514Y-143967659D02*
X186596057Y-143915301D01*
X186596057Y-143915301D02*
X187087255Y-143406651D01*
X187071193Y-142486795D02*
X187087255Y-143406651D01*
X187478974Y-137198870D02*
X191978288Y-137120334D01*
X187491191Y-137898763D02*
X187478974Y-137198870D01*
X191978288Y-137120334D02*
X191987015Y-137620258D01*
X192049843Y-141219709D02*
X192060322Y-141819618D01*
X192060322Y-141819618D02*
X187581004Y-141897799D01*
X187071193Y-142486795D02*
G75*
G02*
X187581004Y-141897798I549427J39573D01*
G01*
X187491540Y-137918760D02*
G75*
G02*
X185817628Y-139428204I-1591673J82228D01*
G01*
%TO.C,S2*%
X108235412Y-112271491D02*
X108556432Y-111641455D01*
X108556432Y-111641455D02*
X110743862Y-110930716D01*
X109316972Y-115600189D02*
X109947009Y-115921209D01*
X109947009Y-115921209D02*
X112800178Y-114994158D01*
X111680821Y-108313062D02*
X115960575Y-106922486D01*
X111897133Y-108978802D02*
X111680821Y-108313062D01*
X112800178Y-114994158D02*
X113121198Y-114364121D01*
X112836902Y-113489149D02*
X113121198Y-114364121D01*
X115960575Y-106922486D02*
X116115084Y-107398014D01*
X117227545Y-110821818D02*
X117412955Y-111392451D01*
X117412955Y-111392451D02*
X113152222Y-112776848D01*
X111903312Y-108997834D02*
G75*
G02*
X110743862Y-110930716I-1546166J-386716D01*
G01*
X112836902Y-113489149D02*
G75*
G02*
X113152222Y-112776848I513810J198491D01*
G01*
%TO.C,S17*%
X202323190Y-144739619D02*
X202718597Y-145325837D01*
X202718597Y-145325837D02*
X205663481Y-145898264D01*
X202991022Y-141303924D02*
X203577240Y-140908525D01*
X203577240Y-140908525D02*
X205834982Y-141347376D01*
X205663481Y-145898264D02*
X206249699Y-145502855D01*
X206425243Y-144599758D02*
X206249699Y-145502855D01*
X207789969Y-140199308D02*
X207923527Y-139512171D01*
X207923527Y-139512171D02*
X212340851Y-140370812D01*
X211444060Y-144984461D02*
X207046359Y-144129635D01*
X211558533Y-144395483D02*
X211444060Y-144984461D01*
X212340851Y-140370812D02*
X212245446Y-140861625D01*
X206425243Y-144599758D02*
G75*
G02*
X207046359Y-144129634I545619J-75495D01*
G01*
X207786146Y-140218943D02*
G75*
G02*
X205834982Y-141347376I-1539796J411361D01*
G01*
%TO.C,S11*%
X167295364Y-95463279D02*
X167740361Y-96012804D01*
X167661214Y-91982452D02*
X168210745Y-91537460D01*
X167740361Y-96012804D02*
X170723926Y-96326389D01*
X168210745Y-91537460D02*
X170498139Y-91777871D01*
X170723926Y-96326389D02*
X171273452Y-95881393D01*
X171369618Y-94966432D02*
X171273452Y-95881393D01*
X172345619Y-90463786D02*
X172418789Y-89767621D01*
X172418789Y-89767621D02*
X176894138Y-90237999D01*
X176402854Y-94912252D02*
X171947398Y-94443962D01*
X176465571Y-94315539D02*
X176402854Y-94912252D01*
X176894138Y-90237999D02*
X176841873Y-90735260D01*
X171369618Y-94966432D02*
G75*
G02*
X171947398Y-94443961I550146J-27677D01*
G01*
X172343529Y-90483677D02*
G75*
G02*
X170498139Y-91777871I-1569780J275581D01*
G01*
%TO.C,S10*%
X165309317Y-114359206D02*
X165754314Y-114908731D01*
X165675167Y-110878379D02*
X166224698Y-110433387D01*
X165754314Y-114908731D02*
X168737879Y-115222316D01*
X166224698Y-110433387D02*
X168512092Y-110673798D01*
X168737879Y-115222316D02*
X169287405Y-114777320D01*
X169383571Y-113862359D02*
X169287405Y-114777320D01*
X170359572Y-109359713D02*
X170432742Y-108663548D01*
X170432742Y-108663548D02*
X174908091Y-109133926D01*
X174416807Y-113808179D02*
X169961351Y-113339889D01*
X174479524Y-113211466D02*
X174416807Y-113808179D01*
X174908091Y-109133926D02*
X174855826Y-109631187D01*
X169383571Y-113862359D02*
G75*
G02*
X169961351Y-113339888I550146J-27677D01*
G01*
X170357482Y-109379604D02*
G75*
G02*
X168512092Y-110673798I-1569780J275581D01*
G01*
%TO.C,S5*%
X126842979Y-89621119D02*
X127306884Y-89087460D01*
X127087121Y-93112592D02*
X127620781Y-93576496D01*
X127306884Y-89087460D02*
X129601274Y-88927018D01*
X127620781Y-93576496D02*
X130613473Y-93367227D01*
X130613473Y-93367227D02*
X131077377Y-92833566D01*
X131013201Y-91915807D02*
X131077377Y-92833566D01*
X131143669Y-86613791D02*
X135632707Y-86299887D01*
X131192498Y-87312086D02*
X131143669Y-86613791D01*
X135632707Y-86299887D02*
X135667585Y-86798669D01*
X135918707Y-90389901D02*
X135960569Y-90988438D01*
X135960569Y-90988438D02*
X131491480Y-91300945D01*
X131013201Y-91915807D02*
G75*
G02*
X131491480Y-91300945I546568J68293D01*
G01*
X131193893Y-87332037D02*
G75*
G02*
X129601274Y-88927017I-1593798J-1182D01*
G01*
%TO.C,S6*%
X125517604Y-70667405D02*
X125981509Y-70133746D01*
X125761746Y-74158878D02*
X126295406Y-74622782D01*
X125981509Y-70133746D02*
X128275899Y-69973304D01*
X126295406Y-74622782D02*
X129288098Y-74413513D01*
X129288098Y-74413513D02*
X129752002Y-73879852D01*
X129687826Y-72962093D02*
X129752002Y-73879852D01*
X129818294Y-67660077D02*
X134307332Y-67346173D01*
X129867123Y-68358372D02*
X129818294Y-67660077D01*
X134307332Y-67346173D02*
X134342210Y-67844955D01*
X134593332Y-71436187D02*
X134635194Y-72034724D01*
X134635194Y-72034724D02*
X130166105Y-72347231D01*
X129687826Y-72962093D02*
G75*
G02*
X130166105Y-72347231I546568J68293D01*
G01*
X129868518Y-68378323D02*
G75*
G02*
X128275899Y-69973303I-1593798J-1182D01*
G01*
%TO.C,S12*%
X169281410Y-76567355D02*
X169726407Y-77116880D01*
X169647260Y-73086528D02*
X170196791Y-72641536D01*
X169726407Y-77116880D02*
X172709972Y-77430465D01*
X170196791Y-72641536D02*
X172484185Y-72881947D01*
X172709972Y-77430465D02*
X173259498Y-76985469D01*
X173355664Y-76070508D02*
X173259498Y-76985469D01*
X174331665Y-71567862D02*
X174404835Y-70871697D01*
X174404835Y-70871697D02*
X178880184Y-71342075D01*
X178388900Y-76016328D02*
X173933444Y-75548038D01*
X178451617Y-75419615D02*
X178388900Y-76016328D01*
X178880184Y-71342075D02*
X178827919Y-71839336D01*
X173355664Y-76070508D02*
G75*
G02*
X173933444Y-75548037I550146J-27677D01*
G01*
X174329575Y-71587753D02*
G75*
G02*
X172484185Y-72881947I-1569780J275581D01*
G01*
%TO.C,S7*%
X147103246Y-104610436D02*
X147603246Y-105110436D01*
X147103255Y-101110437D02*
X147603248Y-100610442D01*
X147603246Y-105110436D02*
X150603246Y-105110436D01*
X147603248Y-100610442D02*
X149903246Y-100610436D01*
X150603246Y-105110436D02*
X151103246Y-104610436D01*
X151103240Y-103690439D02*
X151103246Y-104610436D01*
X151603246Y-98410436D02*
X156103246Y-98410436D01*
X151603246Y-99110436D02*
X151603246Y-98410436D01*
X156103246Y-98410436D02*
X156103246Y-98910436D01*
X156103246Y-102510436D02*
X156103253Y-103110436D01*
X156103253Y-103110436D02*
X151623253Y-103110430D01*
X151103240Y-103690439D02*
G75*
G02*
X151623253Y-103110429I550034J29978D01*
G01*
X151603246Y-99130436D02*
G75*
G02*
X149903246Y-100610436I-1589995J109994D01*
G01*
%TO.C,S1*%
X114106742Y-130341565D02*
X114427762Y-129711529D01*
X114427762Y-129711529D02*
X116615192Y-129000790D01*
X115188302Y-133670263D02*
X115818339Y-133991283D01*
X115818339Y-133991283D02*
X118671508Y-133064232D01*
X117552151Y-126383136D02*
X121831905Y-124992560D01*
X117768463Y-127048876D02*
X117552151Y-126383136D01*
X118671508Y-133064232D02*
X118992528Y-132434195D01*
X118708232Y-131559223D02*
X118992528Y-132434195D01*
X121831905Y-124992560D02*
X121986414Y-125468088D01*
X123098875Y-128891892D02*
X123284285Y-129462525D01*
X123284285Y-129462525D02*
X119023552Y-130846922D01*
X117774642Y-127067908D02*
G75*
G02*
X116615192Y-129000790I-1546166J-386716D01*
G01*
X118708232Y-131559223D02*
G75*
G02*
X119023552Y-130846922I513810J198491D01*
G01*
%TD*%
M02*
