M48
; DRILL file KiCad 10.0.1 date 2026-06-11T23:49:42
; FORMAT={-:-/ absolute / metric / decimal}
; #@! TF.CreationDate,2026-06-11T23:49:42-04:00
; #@! TF.GenerationSoftware,Kicad,Pcbnew,10.0.1
; #@! TF.FileFunction,NonPlated,1,2,NPTH
FMAT,2
METRIC
; #@! TA.AperFunction,NonPlated,NPTH,ComponentDrill
T1C0.900
; #@! TA.AperFunction,NonPlated,NPTH,ComponentDrill
T2C3.000
; #@! TA.AperFunction,NonPlated,NPTH,ComponentDrill
T3C5.000
%
G90
G05
T1
X181.649Y-73.353
X184.633Y-73.666
T2
X90.609Y-105.981
X96.044Y-106.529
X96.48Y-124.052
X100.119Y-102.891
X101.915Y-124.599
X102.351Y-142.122
X105.991Y-120.961
X107.786Y-142.669
X111.862Y-139.031
X113.73Y-81.709
X115.056Y-100.662
X116.381Y-119.616
X118.872Y-83.555
X120.197Y-102.508
X121.522Y-121.462
X123.706Y-81.011
X125.031Y-99.965
X126.357Y-118.919
X135.34Y-73.941
X135.34Y-92.941
X135.34Y-111.941
X140.34Y-76.141
X140.34Y-95.141
X140.34Y-114.141
X145.34Y-73.941
X145.34Y-92.941
X145.34Y-111.941
X153.975Y-121.398
X155.961Y-102.502
X157.947Y-83.606
X158.718Y-124.109
X160.704Y-105.213
X162.69Y-86.317
X163.921Y-122.444
X165.907Y-103.548
X167.893Y-84.652
X171.256Y-150.86
X172.558Y-126.368
X174.544Y-107.472
X176.294Y-152.973
X176.53Y-88.576
X177.3Y-129.078
X179.286Y-110.182
X181.255Y-150.686
X181.272Y-91.287
X182.503Y-127.413
X184.489Y-108.517
X186.475Y-89.621
X191.369Y-151.571
X195.857Y-154.684
X201.185Y-153.479
T3
X94.205Y-100.87
X100.076Y-118.94
X105.948Y-137.01
X118.457Y-77.619
X119.782Y-96.573
X121.107Y-115.527
X140.34Y-70.191
X140.34Y-89.191
X140.34Y-108.191
X159.34Y-118.191
X161.326Y-99.295
X163.312Y-80.4
X176.19Y-147.024
X177.922Y-123.161
X179.908Y-104.265
X181.894Y-85.369
X196.992Y-148.844
M30
