%TF.GenerationSoftware,KiCad,Pcbnew,10.0.1*%
%TF.CreationDate,2026-06-11T23:50:18-04:00*%
%TF.ProjectId,pcb,7063622e-6b69-4636-9164-5f7063625858,v1.0.0*%
%TF.SameCoordinates,Original*%
%TF.FileFunction,Profile,NP*%
%FSLAX46Y46*%
G04 Gerber Fmt 4.6, Leading zero omitted, Abs format (unit mm)*
G04 Created by KiCad (PCBNEW 10.0.1) date 2026-06-11 23:50:18*
%MOMM*%
%LPD*%
G01*
G04 APERTURE LIST*
%TA.AperFunction,Profile*%
%ADD10C,0.150000*%
%TD*%
%TA.AperFunction,Profile*%
%ADD11C,0.120000*%
%TD*%
G04 APERTURE END LIST*
D10*
X80974322Y-94128488D02*
X99206320Y-150240834D01*
X80974322Y-94128488D02*
X108460804Y-85197595D01*
X99206320Y-150240834D02*
X119178513Y-143751483D01*
X107249649Y-67877108D02*
X108460804Y-85197595D01*
X107249649Y-67877108D02*
X129839997Y-66297440D01*
X119178513Y-143751483D02*
X165874778Y-157705350D01*
X129840001Y-59691407D02*
X129839997Y-66297440D01*
X150839984Y-59691409D02*
X129840001Y-59691407D01*
X150839992Y-68530866D02*
X150839984Y-59691409D01*
X150839992Y-68530866D02*
X193748026Y-73040683D01*
X165874778Y-157705350D02*
X185766649Y-157358138D01*
X185766649Y-157358138D02*
X205296019Y-161154268D01*
X189415428Y-114262570D02*
X191448398Y-94920168D01*
X191448398Y-94920168D02*
X191552916Y-93925643D01*
X191552916Y-93925643D02*
X193434441Y-76024248D01*
X193434441Y-76024248D02*
X193748026Y-73040683D01*
X205296019Y-161154268D02*
X213500805Y-118944283D01*
X213500805Y-118944283D02*
X189415428Y-114262570D01*
%TO.C,MCU1*%
D11*
X195446705Y-124307746D02*
X195247997Y-125330012D01*
X195790340Y-126134069D02*
X197361140Y-126439401D01*
X196250762Y-123765402D02*
X197821558Y-124070735D01*
X198122863Y-124517433D02*
X197807838Y-126138100D01*
X199775009Y-118680231D02*
X199455136Y-120325831D01*
X199997475Y-121129891D02*
X201643079Y-121449760D01*
X200579065Y-118137888D02*
X202224665Y-118457761D01*
X202112196Y-125292874D02*
X201797171Y-126913547D01*
X202767008Y-119261817D02*
X202447136Y-120907417D01*
X203669272Y-127665578D02*
X202098472Y-127360246D01*
X204129701Y-125296909D02*
X202558894Y-124991579D01*
X204672039Y-126100958D02*
X204473329Y-127123235D01*
X195247997Y-125330012D02*
G75*
G02*
X195790423Y-126133972I159672J-477236D01*
G01*
X196250762Y-123765402D02*
G75*
G02*
X195446802Y-124307829I-477236J-159673D01*
G01*
X197807838Y-126138100D02*
G75*
G02*
X197361138Y-126439401I-374001J72700D01*
G01*
X197821558Y-124070735D02*
G75*
G02*
X198122863Y-124517435I-72694J-374000D01*
G01*
X199455136Y-120325831D02*
G75*
G02*
X199997563Y-121129789I159673J-477235D01*
G01*
X200579065Y-118137888D02*
G75*
G02*
X199775112Y-118680320I-477235J-159673D01*
G01*
X201643079Y-121449760D02*
G75*
G02*
X202447041Y-120907517I477216J159574D01*
G01*
X202098474Y-127360246D02*
G75*
G02*
X201797171Y-126913547I72697J374000D01*
G01*
X202112196Y-125292883D02*
G75*
G02*
X202558894Y-124991579I374000J-72696D01*
G01*
X202767008Y-119261817D02*
G75*
G02*
X202224576Y-118457864I-159673J477235D01*
G01*
X203669232Y-127665457D02*
G75*
G02*
X204473329Y-127123236I477275J159552D01*
G01*
X204671916Y-126101009D02*
G75*
G02*
X204129699Y-125296907I-159551J477276D01*
G01*
%TD*%
M02*
