%TF.GenerationSoftware,KiCad,Pcbnew,10.0.4*%
%TF.CreationDate,2026-07-09T16:36:33-04:00*%
%TF.ProjectId,pcb,7063622e-6b69-4636-9164-5f7063625858,v1.0.0*%
%TF.SameCoordinates,Original*%
%TF.FileFunction,Paste,Top*%
%TF.FilePolarity,Positive*%
%FSLAX46Y46*%
G04 Gerber Fmt 4.6, Leading zero omitted, Abs format (unit mm)*
G04 Created by KiCad (PCBNEW 10.0.4) date 2026-07-09 16:36:33*
%MOMM*%
%LPD*%
G01*
G04 APERTURE LIST*
G04 Aperture macros list*
%AMRotRect*
0 Rectangle, with rotation*
0 The origin of the aperture is its center*
0 $1 length*
0 $2 width*
0 $3 Rotation angle, in degrees counterclockwise*
0 Add horizontal line*
21,1,$1,$2,0,0,$3*%
%AMOutline5P*
0 Free polygon, 5 corners , with rotation*
0 The origin of the aperture is its center*
0 number of corners: always 5*
0 $1 to $10 corner X, Y*
0 $11 Rotation angle, in degrees counterclockwise*
0 create outline with 5 corners*
4,1,5,$1,$2,$3,$4,$5,$6,$7,$8,$9,$10,$1,$2,$11*%
%AMOutline6P*
0 Free polygon, 6 corners , with rotation*
0 The origin of the aperture is its center*
0 number of corners: always 6*
0 $1 to $12 corner X, Y*
0 $13 Rotation angle, in degrees counterclockwise*
0 create outline with 6 corners*
4,1,6,$1,$2,$3,$4,$5,$6,$7,$8,$9,$10,$11,$12,$1,$2,$13*%
%AMOutline7P*
0 Free polygon, 7 corners , with rotation*
0 The origin of the aperture is its center*
0 number of corners: always 7*
0 $1 to $14 corner X, Y*
0 $15 Rotation angle, in degrees counterclockwise*
0 create outline with 7 corners*
4,1,7,$1,$2,$3,$4,$5,$6,$7,$8,$9,$10,$11,$12,$13,$14,$1,$2,$15*%
%AMOutline8P*
0 Free polygon, 8 corners , with rotation*
0 The origin of the aperture is its center*
0 number of corners: always 8*
0 $1 to $16 corner X, Y*
0 $17 Rotation angle, in degrees counterclockwise*
0 create outline with 8 corners*
4,1,8,$1,$2,$3,$4,$5,$6,$7,$8,$9,$10,$11,$12,$13,$14,$15,$16,$1,$2,$17*%
%AMFreePoly0*
4,1,6,0.600000,-1.000000,0.000000,-0.400000,-0.600000,-1.000000,-0.600000,0.250000,0.600000,0.250000,0.600000,-1.000000,0.600000,-1.000000,$1*%
%AMFreePoly1*
4,1,6,0.600000,-0.200000,0.600000,-0.400000,-0.600000,-0.400000,-0.600000,-0.200000,0.000000,0.400000,0.600000,-0.200000,0.600000,-0.200000,$1*%
G04 Aperture macros list end*
%ADD10RotRect,0.600000X1.200000X349.000000*%
%ADD11RotRect,0.900000X1.200000X4.000000*%
%ADD12RotRect,0.900000X1.200000X18.000000*%
%ADD13RotRect,1.000000X0.800000X174.000000*%
%ADD14RotRect,0.700000X1.500000X174.000000*%
%ADD15RotRect,0.900000X1.200000X349.000000*%
%ADD16RotRect,0.900000X1.200000X354.000000*%
%ADD17R,0.900000X1.200000*%
%ADD18RotRect,0.900000X1.200000X1.000000*%
%ADD19RotRect,0.600000X1.200000X169.000000*%
%ADD20RotRect,1.550000X1.000000X198.000000*%
%ADD21FreePoly0,274.000000*%
%ADD22FreePoly1,274.000000*%
%ADD23RotRect,0.600000X1.200000X79.000000*%
%ADD24Outline5P,-1.300000X1.300000X1.300000X1.300000X1.300000X-0.117000X0.117000X-1.300000X-1.300000X-1.300000X174.000000*%
%ADD25RotRect,2.600000X2.600000X174.000000*%
%ADD26Outline5P,-1.300000X1.300000X1.300000X1.300000X1.300000X-0.117000X0.117000X-1.300000X-1.300000X-1.300000X180.000000*%
%ADD27R,2.600000X2.600000*%
%ADD28Outline5P,-1.300000X1.300000X1.300000X1.300000X1.300000X-0.117000X0.117000X-1.300000X-1.300000X-1.300000X198.000000*%
%ADD29RotRect,2.600000X2.600000X198.000000*%
%ADD30Outline5P,-1.300000X1.300000X1.300000X1.300000X1.300000X-0.117000X0.117000X-1.300000X-1.300000X-1.300000X184.000000*%
%ADD31RotRect,2.600000X2.600000X184.000000*%
%ADD32Outline5P,-1.300000X1.300000X1.300000X1.300000X1.300000X-0.117000X0.117000X-1.300000X-1.300000X-1.300000X181.000000*%
%ADD33RotRect,2.600000X2.600000X181.000000*%
%ADD34Outline5P,-1.300000X1.300000X1.300000X1.300000X1.300000X-0.117000X0.117000X-1.300000X-1.300000X-1.300000X169.000000*%
%ADD35RotRect,2.600000X2.600000X169.000000*%
G04 APERTURE END LIST*
D10*
%TO.C,_1*%
X203594415Y-109637250D03*
X204477861Y-109808976D03*
%TD*%
D11*
%TO.C,D6*%
X125229868Y-61535229D03*
X128521830Y-61305033D03*
%TD*%
D12*
%TO.C,D1*%
X111618281Y-121550264D03*
X114756767Y-120530508D03*
%TD*%
D13*
%TO.C,PWR1*%
X188158121Y-62950923D03*
X195418131Y-63713981D03*
X188389129Y-60753030D03*
X195649138Y-61516088D03*
D14*
X193957856Y-64214083D03*
X190974291Y-63900492D03*
X189482508Y-63743702D03*
%TD*%
D12*
%TO.C,D3*%
X99875639Y-85410106D03*
X103014125Y-84390350D03*
%TD*%
D15*
%TO.C,D17*%
X205076677Y-132408458D03*
X208316047Y-133038128D03*
%TD*%
D16*
%TO.C,D11*%
X168963641Y-82939047D03*
X172245563Y-83283991D03*
%TD*%
D17*
%TO.C,D9*%
X147453245Y-53980433D03*
X150753245Y-53980433D03*
%TD*%
D16*
%TO.C,D14*%
X187545971Y-87908652D03*
X190827893Y-88253596D03*
%TD*%
D18*
%TO.C,D16*%
X183217394Y-130842276D03*
X186516892Y-130784684D03*
%TD*%
D19*
%TO.C,_2*%
X215275746Y-111907884D03*
X214392300Y-111736158D03*
%TD*%
D16*
%TO.C,D15*%
X189532020Y-69012736D03*
X192813942Y-69357680D03*
%TD*%
%TO.C,D10*%
X166977603Y-101834979D03*
X170259525Y-102179923D03*
%TD*%
%TO.C,D13*%
X185559933Y-106804579D03*
X188841855Y-107149523D03*
%TD*%
D11*
%TO.C,D5*%
X126555246Y-80488948D03*
X129847208Y-80258752D03*
%TD*%
D12*
%TO.C,D2*%
X105746963Y-103480188D03*
X108885449Y-102460432D03*
%TD*%
D20*
%TO.C,RST1*%
X115291193Y-75333243D03*
X115816522Y-76950039D03*
X110298146Y-76955583D03*
X110823475Y-78572379D03*
%TD*%
D17*
%TO.C,D8*%
X147453239Y-72980432D03*
X150753239Y-72980432D03*
%TD*%
D21*
%TO.C,JST1*%
X129770608Y-119790396D03*
X129631087Y-117795268D03*
D22*
X128757083Y-119861268D03*
X128617570Y-117866140D03*
%TD*%
D16*
%TO.C,D12*%
X170949680Y-64043132D03*
X174231602Y-64388076D03*
%TD*%
D17*
%TO.C,D7*%
X147453243Y-91980437D03*
X150753243Y-91980437D03*
%TD*%
D11*
%TO.C,D4*%
X127880607Y-99442653D03*
X131172569Y-99212457D03*
%TD*%
D23*
%TO.C,_4*%
X212771127Y-109332648D03*
X212942853Y-108449202D03*
%TD*%
D24*
%TO.C,S15*%
X186778644Y-79663279D03*
D25*
X198495335Y-78682634D03*
%TD*%
D26*
%TO.C,S9*%
X145828237Y-64860435D03*
D27*
X157378235Y-62660432D03*
%TD*%
D26*
%TO.C,S8*%
X145828236Y-83860439D03*
D27*
X157378234Y-81660436D03*
%TD*%
D24*
%TO.C,S13*%
X182806565Y-117455118D03*
D25*
X194523256Y-116474473D03*
%TD*%
D28*
%TO.C,S3*%
X101692269Y-96259763D03*
D29*
X111997132Y-90598290D03*
%TD*%
D24*
%TO.C,S14*%
X184792603Y-98559192D03*
D25*
X196509294Y-97578547D03*
%TD*%
D30*
%TO.C,S4*%
X127018525Y-110409521D03*
D31*
X138386921Y-107409192D03*
%TD*%
D32*
%TO.C,S16*%
X181782517Y-141748979D03*
D33*
X193292360Y-139347736D03*
%TD*%
D28*
%TO.C,S2*%
X107563595Y-114329837D03*
D29*
X117868458Y-108668364D03*
%TD*%
D34*
%TO.C,S17*%
X201405531Y-142778490D03*
D35*
X213163105Y-142822755D03*
%TD*%
D24*
%TO.C,S11*%
X166210273Y-93589592D03*
D25*
X177926964Y-92608947D03*
%TD*%
D24*
%TO.C,S10*%
X164224226Y-112485519D03*
D25*
X175940917Y-111504874D03*
%TD*%
D30*
%TO.C,S5*%
X125693153Y-91455795D03*
D31*
X137061549Y-88455466D03*
%TD*%
D30*
%TO.C,S6*%
X124367778Y-72502081D03*
D31*
X135736174Y-69501752D03*
%TD*%
D24*
%TO.C,S12*%
X168196319Y-74693668D03*
D25*
X179913010Y-73713023D03*
%TD*%
D26*
%TO.C,S7*%
X145828246Y-102860436D03*
D27*
X157378244Y-100660433D03*
%TD*%
D28*
%TO.C,S1*%
X113434925Y-132399911D03*
D29*
X123739788Y-126738438D03*
%TD*%
M02*
