M48
; DRILL file KiCad 10.0.4 date 2026-07-09T16:36:30
; FORMAT={-:-/ absolute / metric / decimal}
; #@! TF.CreationDate,2026-07-09T16:36:30-04:00
; #@! TF.GenerationSoftware,Kicad,Pcbnew,10.0.4
; #@! TF.FileFunction,Plated,1,2,PTH
FMAT,2
METRIC
; #@! TA.AperFunction,Plated,PTH,ViaDrill
T1C0.300
; #@! TA.AperFunction,Plated,PTH,ComponentDrill
T2C0.750
; #@! TA.AperFunction,Plated,PTH,ComponentDrill
T3C1.000
; #@! TA.AperFunction,Plated,PTH,ComponentDrill
T4C1.016
; #@! TA.AperFunction,Plated,PTH,ComponentDrill
T5C2.200
%
G90
G05
T1
X98.734Y-85.781
X103.919Y-92.513
X104.155Y-84.02
X104.166Y-93.274
X104.606Y-103.851
X109.79Y-110.584
X110.027Y-102.09
X110.037Y-111.344
X110.298Y-76.956
X110.477Y-121.921
X110.823Y-78.572
X115.291Y-75.333
X115.661Y-128.654
X115.817Y-76.95
X115.898Y-120.16
X115.908Y-129.414
X118.119Y-112.488
X124.033Y-61.619
X125.358Y-80.573
X126.684Y-99.526
X127.434Y-69.406
X127.49Y-70.204
X128.76Y-88.359
X128.815Y-89.157
X129.719Y-61.221
X129.76Y-121.274
X130.085Y-107.313
X130.141Y-108.111
X131.044Y-80.175
X132.37Y-99.129
X132.603Y-114.376
X146.253Y-53.98
X146.253Y-91.98
X146.253Y-72.98
X149.103Y-80.985
X149.103Y-100.785
X149.103Y-81.785
X149.103Y-99.985
X149.103Y-61.985
X149.103Y-62.785
X151.953Y-91.98
X151.953Y-53.98
X151.953Y-72.98
X160.009Y-117.933
X165.784Y-101.71
X167.698Y-110.764
X167.77Y-82.814
X167.782Y-109.969
X169.684Y-91.868
X169.756Y-63.918
X169.768Y-91.073
X171.453Y-102.305
X171.67Y-72.972
X171.754Y-72.177
X173.439Y-83.409
X175.425Y-64.514
X182.018Y-130.863
X184.367Y-106.679
X185.007Y-138.817
X185.021Y-139.617
X186.281Y-115.734
X186.353Y-87.783
X186.364Y-114.938
X187.717Y-130.764
X188.267Y-96.838
X188.339Y-68.887
X188.35Y-96.042
X190.035Y-107.275
X190.253Y-77.942
X190.336Y-77.146
X190.974Y-63.9
X192.021Y-88.379
X193.958Y-64.214
X194.007Y-69.483
X195.336Y-136.164
X200.926Y-136.232
X203.899Y-132.179
X205.016Y-141.367
X205.169Y-140.581
X205.636Y-109.993
X209.494Y-133.267
X213.366Y-106.911
X213.394Y-112.01
T2
X126.822Y-117.992
X126.961Y-119.987
T3
X199.547Y-121.707
X200.032Y-119.213
X200.516Y-116.72
X201.001Y-114.227
X201.486Y-111.733
X201.97Y-109.24
X202.455Y-106.747
X214.507Y-124.615
X214.992Y-122.121
X215.476Y-119.628
X215.961Y-117.135
X216.446Y-114.641
X216.93Y-112.148
X217.415Y-109.655
T4
X204.178Y-114.521
X204.542Y-112.651
X208.385Y-109.517
X208.87Y-107.024
X210.879Y-110.002
X211.363Y-107.509
X212.905Y-116.218
X213.268Y-114.348
T5
X114.881Y-82.564
X129.868Y-128.69
X182.098Y-64.642
X196.689Y-129.179
M30
