M48
; DRILL file KiCad 10.0.4 date 2026-07-09T16:36:30
; FORMAT={-:-/ absolute / metric / decimal}
; #@! TF.CreationDate,2026-07-09T16:36:30-04:00
; #@! TF.GenerationSoftware,Kicad,Pcbnew,10.0.4
; #@! TF.FileFunction,NonPlated,1,2,NPTH
FMAT,2
METRIC
; #@! TA.AperFunction,NonPlated,NPTH,ComponentDrill
T1C0.900
; #@! TA.AperFunction,NonPlated,NPTH,ComponentDrill
T2C3.000
; #@! TA.AperFunction,NonPlated,NPTH,ComponentDrill
T3C5.000
%
G90
G05
T1
X190.412Y-62.072
X193.396Y-62.385
T2
X99.372Y-94.7
X104.807Y-95.248
X105.243Y-112.771
X108.882Y-91.61
X110.678Y-113.318
X111.115Y-130.841
X114.754Y-109.68
X116.55Y-131.388
X120.625Y-127.75
X122.494Y-70.428
X123.819Y-89.381
X125.144Y-108.335
X127.635Y-72.274
X128.96Y-91.227
X130.286Y-110.181
X132.469Y-69.73
X133.795Y-88.684
X135.12Y-107.638
X144.103Y-81.66
X144.103Y-62.66
X144.103Y-100.66
X149.103Y-83.86
X149.103Y-64.86
X149.103Y-102.86
X154.103Y-81.66
X154.103Y-62.66
X154.103Y-100.66
X162.739Y-110.117
X164.725Y-91.221
X166.711Y-72.325
X167.481Y-112.828
X169.467Y-93.932
X171.453Y-75.036
X172.684Y-111.163
X174.67Y-92.267
X176.656Y-73.371
X180.019Y-139.579
X181.321Y-115.087
X183.307Y-96.191
X185.057Y-141.692
X185.293Y-77.295
X186.064Y-117.797
X188.05Y-98.902
X190.018Y-139.405
X190.036Y-80.006
X191.266Y-116.132
X193.252Y-97.236
X195.238Y-78.34
X200.132Y-140.29
X204.62Y-143.403
X209.948Y-142.198
T3
X102.968Y-89.589
X108.84Y-107.659
X114.711Y-125.729
X127.22Y-66.338
X128.545Y-85.292
X129.87Y-104.246
X149.103Y-77.91
X149.103Y-58.91
X149.103Y-96.91
X168.103Y-106.91
X170.089Y-88.015
X172.075Y-69.119
X184.953Y-135.743
X186.686Y-111.88
X188.672Y-92.984
X190.658Y-74.088
X205.756Y-137.563
M30
