%TF.GenerationSoftware,KiCad,Pcbnew,10.0.4*%
%TF.CreationDate,2026-07-09T16:36:33-04:00*%
%TF.ProjectId,pcb,7063622e-6b69-4636-9164-5f7063625858,v1.0.0*%
%TF.SameCoordinates,Original*%
%TF.FileFunction,Profile,NP*%
%FSLAX46Y46*%
G04 Gerber Fmt 4.6, Leading zero omitted, Abs format (unit mm)*
G04 Created by KiCad (PCBNEW 10.0.4) date 2026-07-09 16:36:33*
%MOMM*%
%LPD*%
G01*
G04 APERTURE LIST*
%TA.AperFunction,Profile*%
%ADD10C,0.150000*%
%TD*%
%TA.AperFunction,Profile*%
%ADD11C,0.120000*%
%TD*%
G04 APERTURE END LIST*
D10*
X89737564Y-82847515D02*
X107969563Y-138959862D01*
X89737564Y-82847515D02*
X117224048Y-73916623D01*
X107969563Y-138959862D02*
X127941756Y-132470515D01*
X116012893Y-56596136D02*
X117224048Y-73916623D01*
X116012893Y-56596136D02*
X138603243Y-55016468D01*
X127941756Y-132470515D02*
X174638025Y-146424378D01*
X138603244Y-48410438D02*
X138603243Y-55016468D01*
X159603228Y-48410435D02*
X138603244Y-48410438D01*
X159603236Y-57249895D02*
X159603228Y-48410435D01*
X159603236Y-57249895D02*
X202511270Y-61759713D01*
X174638025Y-146424378D02*
X194529893Y-146077168D01*
X194529893Y-146077168D02*
X214059264Y-149873298D01*
X198178671Y-102981598D02*
X200211643Y-83639196D01*
X200211643Y-83639196D02*
X200316160Y-82644672D01*
X200316160Y-82644672D02*
X202197685Y-64743276D01*
X202197685Y-64743276D02*
X202511270Y-61759713D01*
X214059264Y-149873298D02*
X222264050Y-107663311D01*
X222264050Y-107663311D02*
X198178671Y-102981598D01*
%TO.C,MCU1*%
D11*
X204209952Y-113026775D02*
X204011244Y-114049041D01*
X204553587Y-114853098D02*
X206124387Y-115158430D01*
X205014009Y-112484431D02*
X206584805Y-112789764D01*
X206886110Y-113236462D02*
X206571085Y-114857129D01*
X208538256Y-107399260D02*
X208218383Y-109044860D01*
X208760722Y-109848920D02*
X210406326Y-110168789D01*
X209342312Y-106856917D02*
X210987912Y-107176790D01*
X210875443Y-114011903D02*
X210560418Y-115632576D01*
X211530255Y-107980846D02*
X211210383Y-109626446D01*
X212432519Y-116384607D02*
X210861719Y-116079275D01*
X212892948Y-114015938D02*
X211322141Y-113710608D01*
X213435286Y-114819985D02*
X213236576Y-115842264D01*
X204011244Y-114049041D02*
G75*
G02*
X204553670Y-114853001I159672J-477236D01*
G01*
X205014009Y-112484431D02*
G75*
G02*
X204210049Y-113026858I-477236J-159673D01*
G01*
X206571085Y-114857129D02*
G75*
G02*
X206124385Y-115158430I-374001J72700D01*
G01*
X206584805Y-112789764D02*
G75*
G02*
X206886110Y-113236464I-72694J-374000D01*
G01*
X208218383Y-109044860D02*
G75*
G02*
X208760810Y-109848818I159673J-477235D01*
G01*
X209342312Y-106856917D02*
G75*
G02*
X208538359Y-107399349I-477235J-159673D01*
G01*
X210406326Y-110168789D02*
G75*
G02*
X211210288Y-109626546I477216J159574D01*
G01*
X210861721Y-116079275D02*
G75*
G02*
X210560418Y-115632576I72697J374000D01*
G01*
X210875443Y-114011912D02*
G75*
G02*
X211322141Y-113710608I374000J-72696D01*
G01*
X211530255Y-107980846D02*
G75*
G02*
X210987823Y-107176893I-159673J477235D01*
G01*
X212432479Y-116384486D02*
G75*
G02*
X213236576Y-115842265I477275J159552D01*
G01*
X213435163Y-114820038D02*
G75*
G02*
X212892946Y-114015936I-159551J477276D01*
G01*
%TD*%
M02*
