%TF.GenerationSoftware,KiCad,Pcbnew,10.0.4*%
%TF.CreationDate,2026-07-09T16:36:33-04:00*%
%TF.ProjectId,pcb,7063622e-6b69-4636-9164-5f7063625858,v1.0.0*%
%TF.SameCoordinates,Original*%
%TF.FileFunction,Copper,L2,Bot*%
%TF.FilePolarity,Positive*%
%FSLAX46Y46*%
G04 Gerber Fmt 4.6, Leading zero omitted, Abs format (unit mm)*
G04 Created by KiCad (PCBNEW 10.0.4) date 2026-07-09 16:36:33*
%MOMM*%
%LPD*%
G01*
G04 APERTURE LIST*
G04 Aperture macros list*
%AMHorizOval*
0 Thick line with rounded ends*
0 $1 width*
0 $2 $3 position (X,Y) of the first rounded end (center of the circle)*
0 $4 $5 position (X,Y) of the second rounded end (center of the circle)*
0 Add line between two ends*
20,1,$1,$2,$3,$4,$5,0*
0 Add two circle primitives to create the rounded ends*
1,1,$1,$2,$3*
1,1,$1,$4,$5*%
%AMRotRect*
0 Rectangle, with rotation*
0 The origin of the aperture is its center*
0 $1 length*
0 $2 width*
0 $3 Rotation angle, in degrees counterclockwise*
0 Add horizontal line*
21,1,$1,$2,0,0,$3*%
%AMOutline5P*
0 Free polygon, 5 corners , with rotation*
0 The origin of the aperture is its center*
0 number of corners: always 5*
0 $1 to $10 corner X, Y*
0 $11 Rotation angle, in degrees counterclockwise*
0 create outline with 5 corners*
4,1,5,$1,$2,$3,$4,$5,$6,$7,$8,$9,$10,$1,$2,$11*%
%AMOutline6P*
0 Free polygon, 6 corners , with rotation*
0 The origin of the aperture is its center*
0 number of corners: always 6*
0 $1 to $12 corner X, Y*
0 $13 Rotation angle, in degrees counterclockwise*
0 create outline with 6 corners*
4,1,6,$1,$2,$3,$4,$5,$6,$7,$8,$9,$10,$11,$12,$1,$2,$13*%
%AMOutline7P*
0 Free polygon, 7 corners , with rotation*
0 The origin of the aperture is its center*
0 number of corners: always 7*
0 $1 to $14 corner X, Y*
0 $15 Rotation angle, in degrees counterclockwise*
0 create outline with 7 corners*
4,1,7,$1,$2,$3,$4,$5,$6,$7,$8,$9,$10,$11,$12,$13,$14,$1,$2,$15*%
%AMOutline8P*
0 Free polygon, 8 corners , with rotation*
0 The origin of the aperture is its center*
0 number of corners: always 8*
0 $1 to $16 corner X, Y*
0 $17 Rotation angle, in degrees counterclockwise*
0 create outline with 8 corners*
4,1,8,$1,$2,$3,$4,$5,$6,$7,$8,$9,$10,$11,$12,$13,$14,$15,$16,$1,$2,$17*%
%AMFreePoly0*
4,1,6,0.600000,-1.000000,0.000000,-0.400000,-0.600000,-1.000000,-0.600000,0.250000,0.600000,0.250000,0.600000,-1.000000,0.600000,-1.000000,$1*%
%AMFreePoly1*
4,1,6,0.600000,-0.200000,0.600000,-0.400000,-0.600000,-0.400000,-0.600000,-0.200000,0.000000,0.400000,0.600000,-0.200000,0.600000,-0.200000,$1*%
G04 Aperture macros list end*
%TA.AperFunction,SMDPad,CuDef*%
%ADD10RotRect,0.600000X1.200000X349.000000*%
%TD*%
%TA.AperFunction,SMDPad,CuDef*%
%ADD11RotRect,0.900000X1.200000X4.000000*%
%TD*%
%TA.AperFunction,ComponentPad*%
%ADD12C,3.800000*%
%TD*%
%TA.AperFunction,SMDPad,CuDef*%
%ADD13RotRect,0.900000X1.200000X18.000000*%
%TD*%
%TA.AperFunction,SMDPad,CuDef*%
%ADD14RotRect,1.000000X0.800000X354.000000*%
%TD*%
%TA.AperFunction,SMDPad,CuDef*%
%ADD15RotRect,0.700000X1.500000X354.000000*%
%TD*%
%TA.AperFunction,SMDPad,CuDef*%
%ADD16RotRect,0.900000X1.200000X349.000000*%
%TD*%
%TA.AperFunction,SMDPad,CuDef*%
%ADD17RotRect,0.900000X1.200000X354.000000*%
%TD*%
%TA.AperFunction,SMDPad,CuDef*%
%ADD18R,0.900000X1.200000*%
%TD*%
%TA.AperFunction,SMDPad,CuDef*%
%ADD19RotRect,0.900000X1.200000X1.000000*%
%TD*%
%TA.AperFunction,SMDPad,CuDef*%
%ADD20RotRect,0.600000X1.200000X169.000000*%
%TD*%
%TA.AperFunction,ComponentPad*%
%ADD21HorizOval,1.800000X0.466273X-0.090634X-0.466273X0.090634X0*%
%TD*%
%TA.AperFunction,ComponentPad*%
%ADD22HorizOval,1.800000X-0.466273X0.090634X0.466273X-0.090634X0*%
%TD*%
%TA.AperFunction,ComponentPad*%
%ADD23C,1.397000*%
%TD*%
%TA.AperFunction,SMDPad,CuDef*%
%ADD24RotRect,0.600000X1.200000X79.000000*%
%TD*%
%TA.AperFunction,SMDPad,CuDef*%
%ADD25RotRect,1.550000X1.000000X198.000000*%
%TD*%
%TA.AperFunction,SMDPad,CuDef*%
%ADD26FreePoly0,274.000000*%
%TD*%
%TA.AperFunction,ComponentPad*%
%ADD27HorizOval,1.200000X0.274330X0.019183X-0.274330X-0.019183X0*%
%TD*%
%TA.AperFunction,SMDPad,CuDef*%
%ADD28FreePoly1,274.000000*%
%TD*%
%TA.AperFunction,SMDPad,CuDef*%
%ADD29Outline5P,-1.300000X1.300000X1.300000X1.300000X1.300000X-1.300000X-0.117000X-1.300000X-1.300000X-0.117000X174.000000*%
%TD*%
%TA.AperFunction,SMDPad,CuDef*%
%ADD30RotRect,2.600000X2.600000X174.000000*%
%TD*%
%TA.AperFunction,SMDPad,CuDef*%
%ADD31Outline5P,-1.300000X1.300000X1.300000X1.300000X1.300000X-1.300000X-0.117000X-1.300000X-1.300000X-0.117000X180.000000*%
%TD*%
%TA.AperFunction,SMDPad,CuDef*%
%ADD32R,2.600000X2.600000*%
%TD*%
%TA.AperFunction,SMDPad,CuDef*%
%ADD33Outline5P,-1.300000X1.300000X1.300000X1.300000X1.300000X-1.300000X-0.117000X-1.300000X-1.300000X-0.117000X198.000000*%
%TD*%
%TA.AperFunction,SMDPad,CuDef*%
%ADD34RotRect,2.600000X2.600000X198.000000*%
%TD*%
%TA.AperFunction,SMDPad,CuDef*%
%ADD35Outline5P,-1.300000X1.300000X1.300000X1.300000X1.300000X-1.300000X-0.117000X-1.300000X-1.300000X-0.117000X184.000000*%
%TD*%
%TA.AperFunction,SMDPad,CuDef*%
%ADD36RotRect,2.600000X2.600000X184.000000*%
%TD*%
%TA.AperFunction,SMDPad,CuDef*%
%ADD37Outline5P,-1.300000X1.300000X1.300000X1.300000X1.300000X-1.300000X-0.117000X-1.300000X-1.300000X-0.117000X181.000000*%
%TD*%
%TA.AperFunction,SMDPad,CuDef*%
%ADD38RotRect,2.600000X2.600000X181.000000*%
%TD*%
%TA.AperFunction,SMDPad,CuDef*%
%ADD39Outline5P,-1.300000X1.300000X1.300000X1.300000X1.300000X-1.300000X-0.117000X-1.300000X-1.300000X-0.117000X169.000000*%
%TD*%
%TA.AperFunction,SMDPad,CuDef*%
%ADD40RotRect,2.600000X2.600000X169.000000*%
%TD*%
%TA.AperFunction,ViaPad*%
%ADD41C,0.600000*%
%TD*%
%TA.AperFunction,Conductor*%
%ADD42C,0.200000*%
%TD*%
%TA.AperFunction,Conductor*%
%ADD43C,0.250000*%
%TD*%
G04 APERTURE END LIST*
D10*
%TO.P,_1,21*%
%TO.N,c0*%
X203594415Y-109637250D03*
%TO.P,_1,22*%
X204477861Y-109808976D03*
%TD*%
D11*
%TO.P,D6,1*%
%TO.N,r0*%
X125229868Y-61535229D03*
%TO.P,D6,2*%
%TO.N,ring_top*%
X128521830Y-61305033D03*
%TD*%
D12*
%TO.P,H2,*%
%TO.N,*%
X129867868Y-128690278D03*
%TD*%
%TO.P,H4,*%
%TO.N,*%
X196688852Y-129178644D03*
%TD*%
D13*
%TO.P,D1,1*%
%TO.N,r2*%
X111618281Y-121550264D03*
%TO.P,D1,2*%
%TO.N,pinky_bottom*%
X114756767Y-120530508D03*
%TD*%
D14*
%TO.P,PWR1,*%
%TO.N,*%
X188158121Y-62950923D03*
X195418131Y-63713981D03*
X188389129Y-60753030D03*
X195649138Y-61516088D03*
D15*
%TO.P,PWR1,1*%
%TO.N,N/C*%
X189482508Y-63743702D03*
%TO.P,PWR1,2*%
%TO.N,BAT_P_2*%
X192466074Y-64057288D03*
%TO.P,PWR1,3*%
%TO.N,BAT_P_1*%
X193957856Y-64214083D03*
%TD*%
D13*
%TO.P,D3,1*%
%TO.N,r0*%
X99875639Y-85410106D03*
%TO.P,D3,2*%
%TO.N,pinky_top*%
X103014125Y-84390350D03*
%TD*%
D16*
%TO.P,D17,1*%
%TO.N,r3*%
X205076677Y-132408458D03*
%TO.P,D17,2*%
%TO.N,space_cluster*%
X208316047Y-133038128D03*
%TD*%
D17*
%TO.P,D11,1*%
%TO.N,r1*%
X168963641Y-82939047D03*
%TO.P,D11,2*%
%TO.N,index_home*%
X172245563Y-83283991D03*
%TD*%
D18*
%TO.P,D9,1*%
%TO.N,r0*%
X147453245Y-53980433D03*
%TO.P,D9,2*%
%TO.N,middle_top*%
X150753245Y-53980433D03*
%TD*%
D17*
%TO.P,D14,1*%
%TO.N,r1*%
X187545971Y-87908652D03*
%TO.P,D14,2*%
%TO.N,inner_home*%
X190827893Y-88253596D03*
%TD*%
D19*
%TO.P,D16,1*%
%TO.N,r3*%
X183217394Y-130842276D03*
%TO.P,D16,2*%
%TO.N,layer_cluster*%
X186516892Y-130784684D03*
%TD*%
D20*
%TO.P,_2,21*%
%TO.N,GND2*%
X215275746Y-111907884D03*
%TO.P,_2,22*%
%TO.N,GND*%
X214392300Y-111736158D03*
%TD*%
D17*
%TO.P,D15,1*%
%TO.N,r0*%
X189532020Y-69012736D03*
%TO.P,D15,2*%
%TO.N,inner_top*%
X192813942Y-69357680D03*
%TD*%
%TO.P,D10,1*%
%TO.N,r2*%
X166977603Y-101834979D03*
%TO.P,D10,2*%
%TO.N,index_bottom*%
X170259525Y-102179923D03*
%TD*%
D21*
%TO.P,MCU1,1*%
%TO.N,P0*%
X201988722Y-106656091D03*
%TO.P,MCU1,2*%
%TO.N,c0*%
X201504070Y-109149430D03*
%TO.P,MCU1,3*%
%TO.N,P2*%
X201019415Y-111642763D03*
%TO.P,MCU1,4*%
%TO.N,r0*%
X200534760Y-114136096D03*
%TO.P,MCU1,5*%
%TO.N,r1*%
X200050105Y-116629430D03*
%TO.P,MCU1,6*%
%TO.N,r2*%
X199565450Y-119122763D03*
%TO.P,MCU1,7*%
%TO.N,r3*%
X199080789Y-121616098D03*
D22*
%TO.P,MCU1,8*%
%TO.N,c4*%
X214973342Y-124705299D03*
%TO.P,MCU1,9*%
%TO.N,c3*%
X215457994Y-122211960D03*
%TO.P,MCU1,10*%
%TO.N,c2*%
X215942649Y-119718627D03*
%TO.P,MCU1,11*%
%TO.N,c1*%
X216427304Y-117225294D03*
%TO.P,MCU1,12*%
%TO.N,3V3*%
X216911959Y-114731960D03*
%TO.P,MCU1,13*%
%TO.N,GND2*%
X217396614Y-112238627D03*
%TO.P,MCU1,14*%
%TO.N,5V*%
X217881275Y-109745292D03*
D23*
%TO.P,MCU1,15*%
%TO.N,SWCLK*%
X208869981Y-107023861D03*
%TO.P,MCU1,16*%
%TO.N,SWDIO*%
X211363306Y-107508517D03*
%TO.P,MCU1,17*%
%TO.N,RST*%
X208385325Y-109517192D03*
%TO.P,MCU1,18*%
%TO.N,GND2*%
X210878655Y-110001847D03*
%TO.P,MCU1,19*%
%TO.N,BAT_P_1*%
X204178186Y-114521373D03*
X212904851Y-116217665D03*
%TO.P,MCU1,20*%
%TO.N,BAT_N*%
X204541677Y-112651373D03*
X213268342Y-114347665D03*
%TD*%
D17*
%TO.P,D13,1*%
%TO.N,r2*%
X185559933Y-106804579D03*
%TO.P,D13,2*%
%TO.N,inner_bottom*%
X188841855Y-107149523D03*
%TD*%
D24*
%TO.P,_3,11*%
%TO.N,RST*%
X206881358Y-108187799D03*
%TO.P,_3,12*%
X207053084Y-107304353D03*
%TD*%
D11*
%TO.P,D5,1*%
%TO.N,r1*%
X126555246Y-80488948D03*
%TO.P,D5,2*%
%TO.N,ring_home*%
X129847208Y-80258752D03*
%TD*%
D13*
%TO.P,D2,1*%
%TO.N,r1*%
X105746963Y-103480188D03*
%TO.P,D2,2*%
%TO.N,pinky_home*%
X108885449Y-102460432D03*
%TD*%
D12*
%TO.P,H1,*%
%TO.N,*%
X114880546Y-82564041D03*
%TD*%
D25*
%TO.P,RST1,1*%
%TO.N,GND*%
X110298146Y-76955583D03*
%TO.P,RST1,2*%
%TO.N,RST*%
X110823475Y-78572379D03*
%TO.P,RST1,3*%
%TO.N,GND*%
X115291193Y-75333243D03*
%TO.P,RST1,4*%
%TO.N,RST*%
X115816522Y-76950039D03*
%TD*%
D18*
%TO.P,D8,1*%
%TO.N,r1*%
X147453239Y-72980432D03*
%TO.P,D8,2*%
%TO.N,middle_home*%
X150753239Y-72980432D03*
%TD*%
D26*
%TO.P,JST1,1*%
%TO.N,BAT_P_2*%
X129631087Y-117795268D03*
%TO.P,JST1,2*%
%TO.N,GND*%
X129770608Y-119790396D03*
D27*
%TO.P,JST1,11*%
%TO.N,JST1_1*%
X126961467Y-119986830D03*
%TO.P,JST1,12*%
%TO.N,JST1_2*%
X126821955Y-117991702D03*
D28*
%TO.P,JST1,31*%
%TO.N,JST1_1*%
X128757083Y-119861268D03*
%TO.P,JST1,32*%
%TO.N,JST1_2*%
X128617570Y-117866140D03*
%TD*%
D17*
%TO.P,D12,1*%
%TO.N,r0*%
X170949680Y-64043132D03*
%TO.P,D12,2*%
%TO.N,index_top*%
X174231602Y-64388076D03*
%TD*%
D18*
%TO.P,D7,1*%
%TO.N,r2*%
X147453243Y-91980437D03*
%TO.P,D7,2*%
%TO.N,middle_bottom*%
X150753243Y-91980437D03*
%TD*%
D12*
%TO.P,H3,*%
%TO.N,*%
X182098188Y-64641755D03*
%TD*%
D11*
%TO.P,D4,1*%
%TO.N,r2*%
X127880607Y-99442653D03*
%TO.P,D4,2*%
%TO.N,ring_bottom*%
X131172569Y-99212457D03*
%TD*%
D29*
%TO.P,S15,1*%
%TO.N,c4*%
X193292763Y-80347940D03*
D30*
%TO.P,S15,2*%
%TO.N,inner_top*%
X182036000Y-76952685D03*
%TD*%
D31*
%TO.P,S9,1*%
%TO.N,c2*%
X152378237Y-64860435D03*
D32*
%TO.P,S9,2*%
%TO.N,middle_top*%
X140828239Y-62660432D03*
%TD*%
D31*
%TO.P,S8,1*%
%TO.N,c2*%
X152378236Y-83860439D03*
D32*
%TO.P,S8,2*%
%TO.N,middle_home*%
X140828238Y-81660436D03*
%TD*%
D29*
%TO.P,S13,1*%
%TO.N,c4*%
X189320684Y-118139779D03*
D30*
%TO.P,S13,2*%
%TO.N,inner_bottom*%
X178063921Y-114744524D03*
%TD*%
D33*
%TO.P,S3,1*%
%TO.N,c0*%
X107921689Y-94235702D03*
D34*
%TO.P,S3,2*%
%TO.N,pinky_top*%
X96257149Y-95712524D03*
%TD*%
D29*
%TO.P,S14,1*%
%TO.N,c4*%
X191306722Y-99243853D03*
D30*
%TO.P,S14,2*%
%TO.N,inner_home*%
X180049959Y-95848598D03*
%TD*%
D35*
%TO.P,S4,1*%
%TO.N,c1*%
X133552569Y-109952616D03*
D36*
%TO.P,S4,2*%
%TO.N,ring_bottom*%
X121877243Y-108563660D03*
%TD*%
D37*
%TO.P,S16,1*%
%TO.N,c3*%
X188331519Y-141634666D03*
D38*
%TO.P,S16,2*%
%TO.N,layer_cluster*%
X176744885Y-139636573D03*
%TD*%
D33*
%TO.P,S2,1*%
%TO.N,c0*%
X113793015Y-112305776D03*
D34*
%TO.P,S2,2*%
%TO.N,pinky_home*%
X102128475Y-113782598D03*
%TD*%
D39*
%TO.P,S17,1*%
%TO.N,c4*%
X207835190Y-144028289D03*
D40*
%TO.P,S17,2*%
%TO.N,space_cluster*%
X196917167Y-139664866D03*
%TD*%
D29*
%TO.P,S11,1*%
%TO.N,c3*%
X172724392Y-94274253D03*
D30*
%TO.P,S11,2*%
%TO.N,index_home*%
X161467629Y-90878998D03*
%TD*%
D29*
%TO.P,S10,1*%
%TO.N,c3*%
X170738345Y-113170180D03*
D30*
%TO.P,S10,2*%
%TO.N,index_bottom*%
X159481582Y-109774925D03*
%TD*%
D35*
%TO.P,S5,1*%
%TO.N,c1*%
X132227197Y-90998890D03*
D36*
%TO.P,S5,2*%
%TO.N,ring_home*%
X120551871Y-89609934D03*
%TD*%
D35*
%TO.P,S6,1*%
%TO.N,c1*%
X130901822Y-72045176D03*
D36*
%TO.P,S6,2*%
%TO.N,ring_top*%
X119226496Y-70656220D03*
%TD*%
D29*
%TO.P,S12,1*%
%TO.N,c3*%
X174710438Y-75378329D03*
D30*
%TO.P,S12,2*%
%TO.N,index_top*%
X163453675Y-71983074D03*
%TD*%
D31*
%TO.P,S7,1*%
%TO.N,c2*%
X152378246Y-102860436D03*
D32*
%TO.P,S7,2*%
%TO.N,middle_bottom*%
X140828248Y-100660433D03*
%TD*%
D33*
%TO.P,S1,1*%
%TO.N,c0*%
X119664345Y-130375850D03*
D34*
%TO.P,S1,2*%
%TO.N,pinky_bottom*%
X107999805Y-131852672D03*
%TD*%
D41*
%TO.N,c0*%
X213393689Y-112010118D03*
X115908422Y-129414434D03*
X104165781Y-93274290D03*
X110037097Y-111344363D03*
%TO.N,GND*%
X115291191Y-75333242D03*
X129760140Y-121274063D03*
X200926136Y-136231689D03*
X110298150Y-76955587D03*
X205636087Y-109992849D03*
X195336379Y-136163872D03*
%TO.N,r0*%
X188338592Y-68887302D03*
X169756255Y-63917704D03*
X98734374Y-85780929D03*
X124032799Y-61618924D03*
X146253238Y-53980438D03*
%TO.N,ring_top*%
X127434249Y-69405614D03*
X129718916Y-61221333D03*
%TO.N,r2*%
X165784175Y-101709539D03*
X184366506Y-106679147D03*
X146253241Y-91980441D03*
X118118881Y-112487736D03*
X126683544Y-99526360D03*
X110477018Y-121921081D03*
%TO.N,pinky_bottom*%
X115661200Y-128653591D03*
X115898037Y-120159688D03*
%TO.N,BAT_P_1*%
X193957856Y-64214085D03*
%TO.N,BAT_P_2*%
X132603204Y-114376238D03*
X160009214Y-117932705D03*
X190974293Y-63900492D03*
%TO.N,pinky_top*%
X103918569Y-92513438D03*
X104155387Y-84019538D03*
%TO.N,r3*%
X203898723Y-132179485D03*
X182017592Y-130863224D03*
%TO.N,space_cluster*%
X209493996Y-133267101D03*
X205168931Y-140581223D03*
%TO.N,r1*%
X186352542Y-87783222D03*
X146253242Y-72980430D03*
X104605695Y-103851005D03*
X125358175Y-80572647D03*
X167770215Y-82813618D03*
%TO.N,index_home*%
X169767855Y-91072676D03*
X173438989Y-83409432D03*
%TO.N,middle_top*%
X151953239Y-53980431D03*
X149103240Y-61985426D03*
%TO.N,inner_home*%
X192021333Y-88379038D03*
X188350183Y-96042277D03*
%TO.N,layer_cluster*%
X185006848Y-138817264D03*
X187716710Y-130763750D03*
%TO.N,inner_top*%
X194007369Y-69483124D03*
X190336224Y-77146358D03*
%TO.N,index_bottom*%
X171452954Y-102305345D03*
X167781809Y-109968594D03*
%TO.N,c4*%
X188266568Y-96837900D03*
X190252612Y-77941981D03*
X205016288Y-141366523D03*
X186280518Y-115733813D03*
%TO.N,c3*%
X167698186Y-110764206D03*
X185020816Y-139617140D03*
X171670263Y-72972379D03*
X169684237Y-91868286D03*
%TO.N,c2*%
X149103240Y-62785433D03*
X149103232Y-100785431D03*
X149103233Y-81785432D03*
%TO.N,c1*%
X127490054Y-70203682D03*
X128815431Y-89157396D03*
X130140802Y-108111114D03*
%TO.N,RST*%
X110823484Y-78572386D03*
X115816522Y-76950037D03*
X213366112Y-106911185D03*
%TO.N,inner_bottom*%
X186364145Y-114938193D03*
X190035279Y-107274953D03*
%TO.N,ring_home*%
X128759615Y-88359337D03*
X131044280Y-80175035D03*
%TO.N,pinky_home*%
X109789884Y-110583510D03*
X110026719Y-102089608D03*
%TO.N,middle_home*%
X149103230Y-80985430D03*
X151953241Y-72980431D03*
%TO.N,index_top*%
X175425036Y-64513509D03*
X171753900Y-72176754D03*
%TO.N,middle_bottom*%
X149103233Y-99985431D03*
X151953238Y-91980433D03*
%TO.N,ring_bottom*%
X132369655Y-99128753D03*
X130085000Y-107313057D03*
%TD*%
%TO.N,c0*%
D42*
X204477860Y-109808975D02*
X204920308Y-110464940D01*
X114949229Y-113310851D02*
X113793023Y-112305772D01*
X213393689Y-112010118D02*
X213328898Y-112343491D01*
X111178371Y-110973537D02*
X110037097Y-111344363D01*
X203531138Y-109543446D02*
X203594387Y-109637250D01*
X213276454Y-112089215D02*
X213393689Y-112010118D01*
X215702081Y-115861862D02*
X217610470Y-116232825D01*
X217605826Y-126229728D02*
X215442251Y-127689089D01*
X105307036Y-92903469D02*
X104165781Y-93274290D01*
X219115352Y-118463912D02*
X217605826Y-126229728D01*
X217610470Y-116232825D02*
X219115352Y-118463912D01*
X134455451Y-111946847D02*
X114949229Y-113310851D01*
X117049684Y-129043612D02*
X115908422Y-129414434D01*
X113793025Y-112305777D02*
X111178371Y-110973537D01*
X215442251Y-127689089D02*
X134455451Y-111946847D01*
X213328898Y-112343491D02*
X215702081Y-115861862D01*
X107921698Y-94235695D02*
X105307036Y-92903469D01*
X201970335Y-109240060D02*
X203531138Y-109543446D01*
X119664339Y-130375850D02*
X117049684Y-129043612D01*
X204920308Y-110464940D02*
X213276454Y-112089215D01*
%TO.N,GND*%
X214281178Y-111571409D02*
X211219586Y-110976299D01*
X205659982Y-110028279D02*
X205636087Y-109992849D01*
X211066907Y-111079275D02*
X205659982Y-110028279D01*
X195336379Y-136163872D02*
X199753708Y-137022505D01*
X211219586Y-110976299D02*
X211066907Y-111079275D01*
X129865859Y-121152457D02*
X129760140Y-121274063D01*
X199753708Y-137022505D02*
X200926136Y-136231689D01*
X214392296Y-111736144D02*
X214281178Y-111571409D01*
X129770610Y-119790393D02*
X129865859Y-121152457D01*
%TO.N,r0*%
D43*
X99900754Y-83491772D02*
X98734374Y-85780929D01*
X150294101Y-56035442D02*
X148308236Y-56035435D01*
X146253238Y-53980438D02*
X145344722Y-55025558D01*
X128755949Y-56185562D02*
X124032799Y-61618924D01*
X188338592Y-68887302D02*
X189532017Y-69012747D01*
X124032799Y-61618924D02*
X117491752Y-69143537D01*
X118081990Y-77584328D02*
X99900754Y-83491772D01*
X171738654Y-66192374D02*
X169909715Y-63933831D01*
D42*
X201001032Y-114226730D02*
X198826986Y-113998229D01*
X190189780Y-71173328D02*
X188338592Y-68887302D01*
X198826986Y-113998229D02*
X194335793Y-108452076D01*
D43*
X169756255Y-63917704D02*
X158176370Y-63917703D01*
X169909715Y-63933831D02*
X169756255Y-63917704D01*
X188338592Y-68887302D02*
X187497547Y-67848697D01*
D42*
X194335793Y-108452076D02*
X197531399Y-78047893D01*
D43*
X187497547Y-67848697D02*
X171738654Y-66192374D01*
X98734374Y-85780929D02*
X99875638Y-85410111D01*
X158176370Y-63917703D02*
X150294101Y-56035442D01*
X146253238Y-53980438D02*
X147453239Y-53980439D01*
X169756255Y-63917704D02*
X170949684Y-64043132D01*
D42*
X197531399Y-78047893D02*
X192129597Y-71377218D01*
X192129597Y-71377218D02*
X190189780Y-71173328D01*
D43*
X148308236Y-56035435D02*
X146253238Y-53980438D01*
X117491752Y-69143537D02*
X118081990Y-77584328D01*
X145344722Y-55025558D02*
X128755949Y-56185562D01*
X124032799Y-61618924D02*
X125229871Y-61535230D01*
%TO.N,ring_top*%
D42*
X120946643Y-68677404D02*
X125217054Y-68378785D01*
X125217054Y-68378785D02*
X126475428Y-69472671D01*
X126475428Y-69472671D02*
X127434249Y-69405614D01*
D43*
X129718916Y-61221333D02*
X128521832Y-61305030D01*
D42*
X119226496Y-70656215D02*
X120946643Y-68677404D01*
%TO.N,r2*%
D43*
X126683544Y-99526360D02*
X117917675Y-109610337D01*
D42*
X185429548Y-107991893D02*
X184366506Y-106679147D01*
D43*
X184366506Y-106679147D02*
X185559939Y-106804570D01*
D42*
X183547709Y-105668015D02*
X167763951Y-104009080D01*
D43*
X132401090Y-92949078D02*
X146253241Y-91980441D01*
X165784175Y-101709539D02*
X166977603Y-101834970D01*
D42*
X193631854Y-108853990D02*
X185429548Y-107991893D01*
D43*
X117917675Y-109610337D02*
X118131087Y-112662313D01*
D42*
X148333238Y-94060435D02*
X146253241Y-91980441D01*
X158135075Y-94060431D02*
X148333238Y-94060435D01*
D43*
X110477018Y-121921081D02*
X111618280Y-121550254D01*
D42*
X167763951Y-104009080D02*
X165912764Y-101723050D01*
X165912764Y-101723050D02*
X165784175Y-101709539D01*
X198319784Y-114643100D02*
X193631854Y-108853990D01*
X165784175Y-101709539D02*
X158135075Y-94060431D01*
X184366506Y-106679147D02*
X183547709Y-105668015D01*
X200031718Y-119213401D02*
X199892364Y-119198759D01*
D43*
X126683544Y-99526360D02*
X127880615Y-99442656D01*
D42*
X200031724Y-119213396D02*
X198091282Y-116817154D01*
D43*
X126683544Y-99526360D02*
X132401090Y-92949078D01*
X118131087Y-112662313D02*
X118118881Y-112487736D01*
D42*
X184360017Y-106740861D02*
X184366506Y-106679147D01*
X198091282Y-116817154D02*
X198319784Y-114643100D01*
D43*
X146253241Y-91980441D02*
X147453245Y-91980421D01*
%TO.N,pinky_bottom*%
D42*
X109190136Y-129516492D02*
X113261456Y-128193642D01*
X114747073Y-128950599D02*
X115661200Y-128653591D01*
D43*
X115898037Y-120159688D02*
X114756773Y-120530504D01*
D42*
X113261456Y-128193642D02*
X114747073Y-128950599D01*
X107999806Y-131852664D02*
X109190136Y-129516492D01*
%TO.N,BAT_P_1*%
X203208509Y-114332885D02*
X203539156Y-112631855D01*
X204178181Y-114521369D02*
X203208509Y-114332885D01*
X212904848Y-116217667D02*
X212844327Y-116529013D01*
X212844327Y-116529013D02*
X212508045Y-116755841D01*
X198763821Y-70148956D02*
X193957854Y-64214085D01*
X203539156Y-112631855D02*
X202091869Y-110486147D01*
X199906002Y-110061253D02*
X199902007Y-110055343D01*
X204344490Y-115169004D02*
X204117662Y-114832726D01*
X193957854Y-64214085D02*
X193903869Y-64491846D01*
X194750925Y-108329105D02*
X198763821Y-70148956D01*
X212508045Y-116755841D02*
X204344490Y-115169004D01*
X193903869Y-64491846D02*
X193968602Y-64587832D01*
X204117662Y-114832726D02*
X204178181Y-114521369D01*
X195447662Y-109189502D02*
X194750925Y-108329105D01*
X202091869Y-110486147D02*
X199906002Y-110061253D01*
X199902007Y-110055343D02*
X195447662Y-109189502D01*
%TO.N,BAT_P_2*%
X133989603Y-112781374D02*
X132603204Y-114376238D01*
X190974293Y-63900492D02*
X192466073Y-64057286D01*
X160009214Y-117932705D02*
X159851045Y-117698220D01*
X134406191Y-112752240D02*
X133989603Y-112781374D01*
X132603204Y-114376238D02*
X129631093Y-117795266D01*
X159851045Y-117698220D02*
X134406191Y-112752240D01*
X190974295Y-63900493D02*
X190974293Y-63900492D01*
X192466073Y-64057286D02*
X192466078Y-64057286D01*
%TO.N,pinky_top*%
X97447491Y-93376353D02*
X101518809Y-92053499D01*
X103004440Y-92810452D02*
X103918569Y-92513438D01*
D43*
X104155387Y-84019538D02*
X103014118Y-84390352D01*
D42*
X101518809Y-92053499D02*
X103004440Y-92810452D01*
X96257144Y-95712520D02*
X97447491Y-93376353D01*
%TO.N,r3*%
D43*
X183088919Y-132451543D02*
X182017592Y-130863224D01*
X203898723Y-132179485D02*
X198930218Y-135530782D01*
X182017592Y-130863224D02*
X183217388Y-130842275D01*
X198930218Y-135530782D02*
X183088919Y-132451543D01*
X203898723Y-132179485D02*
X205076672Y-132408455D01*
%TO.N,space_cluster*%
D42*
X199090866Y-138198691D02*
X203293059Y-139015513D01*
D43*
X209493996Y-133267101D02*
X208316044Y-133038127D01*
D42*
X203293059Y-139015513D02*
X204225436Y-140397811D01*
X196917167Y-139664873D02*
X199090866Y-138198691D01*
X204225436Y-140397811D02*
X205168931Y-140581223D01*
%TO.N,r1*%
D43*
X186352542Y-87783222D02*
X185511500Y-86744621D01*
X146253242Y-72980430D02*
X131032789Y-74044749D01*
X186352542Y-87783222D02*
X187545971Y-87908667D01*
D42*
X193920671Y-108575041D02*
X195189370Y-96504177D01*
X200516376Y-116720068D02*
X193920671Y-108575041D01*
D43*
X105156062Y-103812521D02*
X104605695Y-103851005D01*
D42*
X188203725Y-90069249D02*
X186352542Y-87783222D01*
X195189370Y-96504177D02*
X190143555Y-90273134D01*
D43*
X167770215Y-82813618D02*
X159992038Y-75035434D01*
X125358175Y-80572647D02*
X105156062Y-103812521D01*
X148308247Y-75035434D02*
X146253242Y-72980430D01*
D42*
X190143555Y-90273134D02*
X188203725Y-90069249D01*
D43*
X146253242Y-72980430D02*
X147453235Y-72980429D01*
X131032789Y-74044749D02*
X125358175Y-80572647D01*
X159992038Y-75035434D02*
X148308247Y-75035434D01*
X104605695Y-103851005D02*
X105746971Y-103480188D01*
X125358175Y-80572647D02*
X126555248Y-80488936D01*
X185511500Y-86744621D02*
X169599144Y-85072166D01*
X167770215Y-82813618D02*
X168963640Y-82939060D01*
X169599144Y-85072166D02*
X167770215Y-82813618D01*
%TO.N,index_home*%
D42*
X167762645Y-89676421D02*
X168811959Y-90972206D01*
X168811959Y-90972206D02*
X169767855Y-91072676D01*
D43*
X173438989Y-83409432D02*
X172245566Y-83283996D01*
D42*
X163505266Y-89228951D02*
X167762645Y-89676421D01*
X161467628Y-90878999D02*
X163505266Y-89228951D01*
%TO.N,middle_top*%
X146963081Y-60806431D02*
X148142076Y-61985436D01*
X140828240Y-62660435D02*
X142682239Y-60806437D01*
X148142076Y-61985436D02*
X149103240Y-61985426D01*
D43*
X151953239Y-53980431D02*
X150753239Y-53980430D01*
D42*
X142682239Y-60806437D02*
X146963081Y-60806431D01*
%TO.N,inner_home*%
X182087600Y-94198560D02*
X186344983Y-94646029D01*
X186344983Y-94646029D02*
X187394285Y-95941805D01*
X180049966Y-95848611D02*
X182087600Y-94198560D01*
X187394285Y-95941805D02*
X188350183Y-96042277D01*
D43*
X192021333Y-88379038D02*
X190827896Y-88253607D01*
%TO.N,layer_cluster*%
X187716710Y-130763750D02*
X186516887Y-130784682D01*
D42*
X178566246Y-137750502D02*
X182846429Y-137675785D01*
X182846429Y-137675785D02*
X184045821Y-138834041D01*
X176744893Y-139636570D02*
X178566246Y-137750502D01*
X184045821Y-138834041D02*
X185006848Y-138817264D01*
%TO.N,GND2*%
X216836539Y-112211260D02*
X216930336Y-112147996D01*
X215275771Y-111907881D02*
X216836539Y-112211260D01*
%TO.N,inner_top*%
X189380330Y-77045894D02*
X190336224Y-77146358D01*
D43*
X194007369Y-69483124D02*
X192813944Y-69357690D01*
D42*
X182035999Y-76952678D02*
X184073651Y-75302641D01*
X188331014Y-75750116D02*
X189380330Y-77045894D01*
X184073651Y-75302641D02*
X188331014Y-75750116D01*
%TO.N,index_bottom*%
X165776606Y-108572335D02*
X166825916Y-109868121D01*
X166825916Y-109868121D02*
X167781809Y-109968594D01*
D43*
X171452954Y-102305345D02*
X170259526Y-102179914D01*
D42*
X159481592Y-109774924D02*
X161519228Y-108124865D01*
X161519228Y-108124865D02*
X165776606Y-108572335D01*
%TO.N,c4*%
X189459994Y-96963332D02*
X188266568Y-96837900D01*
X207835188Y-144028296D02*
X206194240Y-141595488D01*
X206194240Y-141595488D02*
X205016288Y-141366523D01*
X187473946Y-115859243D02*
X186280518Y-115733813D01*
X191495538Y-121364140D02*
X189320690Y-118139779D01*
X193292767Y-80347934D02*
X191446031Y-78067420D01*
X213100131Y-125563646D02*
X191495538Y-121364140D01*
X191306720Y-99243865D02*
X189459994Y-96963332D01*
X191446031Y-78067420D02*
X190252612Y-77941981D01*
X189320686Y-118139782D02*
X187473946Y-115859243D01*
X214507069Y-124614675D02*
X213100131Y-125563646D01*
%TO.N,c3*%
X216522719Y-125512827D02*
X215229590Y-126385057D01*
X188331525Y-141634672D02*
X186220618Y-139596192D01*
X174710436Y-75378339D02*
X172863702Y-73097813D01*
X172863702Y-73097813D02*
X171670263Y-72972379D01*
X170877658Y-91993730D02*
X169684237Y-91868286D01*
X216712401Y-124536979D02*
X216522719Y-125512827D01*
X170738349Y-113170167D02*
X168891619Y-110889639D01*
X215229590Y-126385057D02*
X174283410Y-118425923D01*
X186220618Y-139596192D02*
X185020816Y-139617140D01*
X214991716Y-122121334D02*
X215096802Y-122141758D01*
X174283410Y-118425923D02*
X170738350Y-113170167D01*
X172724401Y-94274242D02*
X170877658Y-91993730D01*
X168891619Y-110889639D02*
X167698186Y-110764206D01*
X215096802Y-122141758D02*
X216712401Y-124536979D01*
%TO.N,c2*%
X215581467Y-119648435D02*
X217513385Y-122512626D01*
X217513385Y-122512626D02*
X216883748Y-125751791D01*
X216883748Y-125751791D02*
X215315906Y-126809323D01*
X215315906Y-126809323D02*
X161321075Y-116313784D01*
X161321075Y-116313784D02*
X152348810Y-103011848D01*
X150303236Y-62785432D02*
X149103240Y-62785433D01*
X150303245Y-100785434D02*
X149103232Y-100785431D01*
X152378246Y-83860428D02*
X150303243Y-81785433D01*
X215476379Y-119627995D02*
X215581467Y-119648435D01*
X152348810Y-103011848D02*
X152378234Y-102860442D01*
X152378236Y-64860444D02*
X150303236Y-62785432D01*
X152378231Y-102860422D02*
X150303245Y-100785434D01*
X150303243Y-81785433D02*
X149103233Y-81785432D01*
%TO.N,c1*%
X134616880Y-111530506D02*
X133552568Y-109952607D01*
X130901824Y-72045169D02*
X128687136Y-70119976D01*
X217244807Y-125990760D02*
X215402220Y-127233585D01*
X133552569Y-109952601D02*
X131337883Y-108027407D01*
X215961030Y-117134665D02*
X216066124Y-117155093D01*
X215402220Y-127233585D02*
X134616880Y-111530506D01*
X131337883Y-108027407D02*
X130140802Y-108111114D01*
X132227191Y-90998890D02*
X130012499Y-89073688D01*
X130012499Y-89073688D02*
X128815431Y-89157396D01*
X128687136Y-70119976D02*
X127490054Y-70203682D01*
X218314371Y-120488266D02*
X217244807Y-125990760D01*
X216066124Y-117155093D02*
X218314371Y-120488266D01*
%TO.N,RST*%
X213366112Y-106911185D02*
X215944586Y-110733924D01*
X206881356Y-108187799D02*
X207686406Y-109381337D01*
X208462219Y-105927416D02*
X213342399Y-106876027D01*
X207686406Y-109381337D02*
X208385325Y-109517192D01*
X207053085Y-107304352D02*
X207148489Y-106813537D01*
X215944586Y-110733924D02*
X218579778Y-111246157D01*
X207148489Y-106813537D02*
X208462219Y-105927416D01*
X134430824Y-112349544D02*
X115888632Y-113646136D01*
X213342399Y-106876027D02*
X213366112Y-106911185D01*
X115888632Y-113646136D02*
X104279552Y-117418156D01*
X213223049Y-107007680D02*
X213366112Y-106911185D01*
X220400986Y-113946215D02*
X217966869Y-126468691D01*
X110823479Y-78572382D02*
X115816522Y-76950041D01*
X115816522Y-76950041D02*
X115816522Y-76950037D01*
X91676003Y-86790890D02*
X92895467Y-84397546D01*
X101101223Y-115798721D02*
X91676003Y-86790890D01*
X217966869Y-126468691D02*
X215528568Y-128113349D01*
X218579778Y-111246157D02*
X220400986Y-113946215D01*
X215528568Y-128113349D02*
X134430824Y-112349544D01*
X92895467Y-84397546D02*
X110823484Y-78572386D01*
X104279552Y-117418156D02*
X101101223Y-115798721D01*
%TO.N,BAT_N*%
X213102038Y-113700035D02*
X213328864Y-114036314D01*
X204602197Y-112340033D02*
X204938482Y-112113202D01*
X213328864Y-114036314D02*
X213268336Y-114347663D01*
X204541676Y-112651374D02*
X204602197Y-112340033D01*
X204938482Y-112113202D02*
X213102038Y-113700035D01*
%TO.N,inner_bottom*%
X184358938Y-113541944D02*
X185408249Y-114837730D01*
D43*
X190035279Y-107274953D02*
X188841857Y-107149521D01*
D42*
X180101557Y-113094474D02*
X184358938Y-113541944D01*
X185408249Y-114837730D02*
X186364145Y-114938193D01*
X178063919Y-114744518D02*
X180101557Y-113094474D01*
%TO.N,ring_home*%
D43*
X131044280Y-80175035D02*
X129847207Y-80258750D01*
D42*
X122272023Y-87631123D02*
X126542428Y-87332508D01*
X127800805Y-88426399D02*
X128759615Y-88359337D01*
X126542428Y-87332508D02*
X127800805Y-88426399D01*
X120551869Y-89609939D02*
X122272023Y-87631123D01*
%TO.N,pinky_home*%
X103318818Y-111446424D02*
X107390136Y-110123577D01*
D43*
X110026719Y-102089608D02*
X108885451Y-102460437D01*
D42*
X108875763Y-110880527D02*
X109789884Y-110583510D01*
X102128470Y-113782590D02*
X103318818Y-111446424D01*
X107390136Y-110123577D02*
X108875763Y-110880527D01*
%TO.N,middle_home*%
X146963075Y-79806431D02*
X148142075Y-80985431D01*
X142682235Y-79806436D02*
X146963075Y-79806431D01*
X148142075Y-80985431D02*
X149103230Y-80985430D01*
X140828232Y-81660434D02*
X142682235Y-79806436D01*
D43*
X151953241Y-72980431D02*
X150753243Y-72980435D01*
%TO.N,JST1_1*%
X128757078Y-119861262D02*
X126961469Y-119986816D01*
%TO.N,JST1_2*%
X128617575Y-117866135D02*
X126821958Y-117991689D01*
%TO.N,index_top*%
D42*
X163453662Y-71983081D02*
X165491312Y-70333031D01*
X169748701Y-70780504D02*
X170797988Y-72076281D01*
X170797988Y-72076281D02*
X171753900Y-72176754D01*
X165491312Y-70333031D02*
X169748701Y-70780504D01*
D43*
X175425036Y-64513509D02*
X174231609Y-64388075D01*
%TO.N,middle_bottom*%
X151953238Y-91980433D02*
X150753233Y-91980439D01*
D42*
X146963076Y-98806431D02*
X148142079Y-99985434D01*
X140828244Y-100660438D02*
X142682241Y-98806431D01*
X148142079Y-99985434D02*
X149103233Y-99985431D01*
X142682241Y-98806431D02*
X146963076Y-98806431D01*
%TO.N,ring_bottom*%
X127867801Y-106286217D02*
X129126168Y-107380105D01*
X123597395Y-106584831D02*
X127867801Y-106286217D01*
X121877238Y-108563653D02*
X123597395Y-106584831D01*
X129126168Y-107380105D02*
X130085000Y-107313057D01*
D43*
X132369655Y-99128753D02*
X131172579Y-99212458D01*
%TD*%
M02*
