%TF.GenerationSoftware,KiCad,Pcbnew,10.0.1*%
%TF.CreationDate,2026-06-11T23:50:18-04:00*%
%TF.ProjectId,pcb,7063622e-6b69-4636-9164-5f7063625858,v1.0.0*%
%TF.SameCoordinates,Original*%
%TF.FileFunction,Paste,Top*%
%TF.FilePolarity,Positive*%
%FSLAX46Y46*%
G04 Gerber Fmt 4.6, Leading zero omitted, Abs format (unit mm)*
G04 Created by KiCad (PCBNEW 10.0.1) date 2026-06-11 23:50:18*
%MOMM*%
%LPD*%
G01*
G04 APERTURE LIST*
G04 Aperture macros list*
%AMRotRect*
0 Rectangle, with rotation*
0 The origin of the aperture is its center*
0 $1 length*
0 $2 width*
0 $3 Rotation angle, in degrees counterclockwise*
0 Add horizontal line*
21,1,$1,$2,0,0,$3*%
%AMOutline5P*
0 Free polygon, 5 corners , with rotation*
0 The origin of the aperture is its center*
0 number of corners: always 5*
0 $1 to $10 corner X, Y*
0 $11 Rotation angle, in degrees counterclockwise*
0 create outline with 5 corners*
4,1,5,$1,$2,$3,$4,$5,$6,$7,$8,$9,$10,$1,$2,$11*%
%AMOutline6P*
0 Free polygon, 6 corners , with rotation*
0 The origin of the aperture is its center*
0 number of corners: always 6*
0 $1 to $12 corner X, Y*
0 $13 Rotation angle, in degrees counterclockwise*
0 create outline with 6 corners*
4,1,6,$1,$2,$3,$4,$5,$6,$7,$8,$9,$10,$11,$12,$1,$2,$13*%
%AMOutline7P*
0 Free polygon, 7 corners , with rotation*
0 The origin of the aperture is its center*
0 number of corners: always 7*
0 $1 to $14 corner X, Y*
0 $15 Rotation angle, in degrees counterclockwise*
0 create outline with 7 corners*
4,1,7,$1,$2,$3,$4,$5,$6,$7,$8,$9,$10,$11,$12,$13,$14,$1,$2,$15*%
%AMOutline8P*
0 Free polygon, 8 corners , with rotation*
0 The origin of the aperture is its center*
0 number of corners: always 8*
0 $1 to $16 corner X, Y*
0 $17 Rotation angle, in degrees counterclockwise*
0 create outline with 8 corners*
4,1,8,$1,$2,$3,$4,$5,$6,$7,$8,$9,$10,$11,$12,$13,$14,$15,$16,$1,$2,$17*%
%AMFreePoly0*
4,1,6,0.600000,-1.000000,0.000000,-0.400000,-0.600000,-1.000000,-0.600000,0.250000,0.600000,0.250000,0.600000,-1.000000,0.600000,-1.000000,$1*%
%AMFreePoly1*
4,1,6,0.600000,-0.200000,0.600000,-0.400000,-0.600000,-0.400000,-0.600000,-0.200000,0.000000,0.400000,0.600000,-0.200000,0.600000,-0.200000,$1*%
G04 Aperture macros list end*
%ADD10RotRect,0.600000X1.200000X349.000000*%
%ADD11RotRect,0.900000X1.200000X4.000000*%
%ADD12RotRect,0.900000X1.200000X18.000000*%
%ADD13RotRect,1.000000X0.800000X174.000000*%
%ADD14RotRect,0.700000X1.500000X174.000000*%
%ADD15RotRect,0.900000X1.200000X349.000000*%
%ADD16RotRect,0.900000X1.200000X354.000000*%
%ADD17R,0.900000X1.200000*%
%ADD18RotRect,0.900000X1.200000X1.000000*%
%ADD19RotRect,0.600000X1.200000X169.000000*%
%ADD20RotRect,0.600000X1.200000X79.000000*%
%ADD21RotRect,1.550000X1.000000X198.000000*%
%ADD22FreePoly0,274.000000*%
%ADD23FreePoly1,274.000000*%
%ADD24Outline5P,-1.300000X1.300000X1.300000X1.300000X1.300000X-0.117000X0.117000X-1.300000X-1.300000X-1.300000X174.000000*%
%ADD25RotRect,2.600000X2.600000X174.000000*%
%ADD26Outline5P,-1.300000X1.300000X1.300000X1.300000X1.300000X-0.117000X0.117000X-1.300000X-1.300000X-1.300000X180.000000*%
%ADD27R,2.600000X2.600000*%
%ADD28Outline5P,-1.300000X1.300000X1.300000X1.300000X1.300000X-0.117000X0.117000X-1.300000X-1.300000X-1.300000X198.000000*%
%ADD29RotRect,2.600000X2.600000X198.000000*%
%ADD30Outline5P,-1.300000X1.300000X1.300000X1.300000X1.300000X-0.117000X0.117000X-1.300000X-1.300000X-1.300000X184.000000*%
%ADD31RotRect,2.600000X2.600000X184.000000*%
%ADD32Outline5P,-1.300000X1.300000X1.300000X1.300000X1.300000X-0.117000X0.117000X-1.300000X-1.300000X-1.300000X181.000000*%
%ADD33RotRect,2.600000X2.600000X181.000000*%
%ADD34Outline5P,-1.300000X1.300000X1.300000X1.300000X1.300000X-0.117000X0.117000X-1.300000X-1.300000X-1.300000X169.000000*%
%ADD35RotRect,2.600000X2.600000X169.000000*%
G04 APERTURE END LIST*
D10*
%TO.C,_1*%
X194831166Y-120918223D03*
X195714616Y-121089951D03*
%TD*%
D11*
%TO.C,D6*%
X116466622Y-72816200D03*
X119758584Y-72586004D03*
%TD*%
D12*
%TO.C,D1*%
X102855035Y-132831236D03*
X105993521Y-131811480D03*
%TD*%
D13*
%TO.C,PWR1*%
X179394875Y-74231895D03*
X186654885Y-74994953D03*
X179625883Y-72034002D03*
X186885892Y-72797060D03*
D14*
X185194610Y-75495054D03*
X182211045Y-75181464D03*
X180719262Y-75024674D03*
%TD*%
D12*
%TO.C,D3*%
X91112394Y-96691081D03*
X94250880Y-95671325D03*
%TD*%
D15*
%TO.C,D17*%
X196313435Y-143689429D03*
X199552805Y-144319099D03*
%TD*%
D16*
%TO.C,D11*%
X160200398Y-94220019D03*
X163482320Y-94564963D03*
%TD*%
D17*
%TO.C,D9*%
X138690001Y-65261405D03*
X141990001Y-65261405D03*
%TD*%
D16*
%TO.C,D14*%
X178782727Y-99189624D03*
X182064649Y-99534568D03*
%TD*%
D18*
%TO.C,D16*%
X174454147Y-142123249D03*
X177753645Y-142065657D03*
%TD*%
D19*
%TO.C,_2*%
X206512503Y-123188856D03*
X205629053Y-123017128D03*
%TD*%
D16*
%TO.C,D15*%
X180768776Y-80293711D03*
X184050698Y-80638655D03*
%TD*%
%TO.C,D10*%
X158214359Y-113115951D03*
X161496281Y-113460895D03*
%TD*%
%TO.C,D13*%
X176796691Y-118085551D03*
X180078613Y-118430495D03*
%TD*%
D20*
%TO.C,_3*%
X198118113Y-119468772D03*
X198289841Y-118585322D03*
%TD*%
D11*
%TO.C,D5*%
X117792002Y-91769918D03*
X121083964Y-91539722D03*
%TD*%
D12*
%TO.C,D2*%
X96983719Y-114761160D03*
X100122205Y-113741404D03*
%TD*%
D21*
%TO.C,RST1*%
X106527951Y-86614216D03*
X107053280Y-88231012D03*
X101534904Y-88236556D03*
X102060233Y-89853352D03*
%TD*%
D17*
%TO.C,D8*%
X138689995Y-84261404D03*
X141989995Y-84261404D03*
%TD*%
D22*
%TO.C,JST1*%
X121007363Y-131071367D03*
X120867842Y-129076239D03*
D23*
X119993838Y-131142239D03*
X119854325Y-129147111D03*
%TD*%
D16*
%TO.C,D12*%
X162186437Y-75324105D03*
X165468359Y-75669049D03*
%TD*%
D17*
%TO.C,D7*%
X138689997Y-103261409D03*
X141989997Y-103261409D03*
%TD*%
D11*
%TO.C,D4*%
X119117365Y-110723624D03*
X122409327Y-110493428D03*
%TD*%
D24*
%TO.C,S15*%
X178015400Y-90944252D03*
D25*
X189732091Y-89963607D03*
%TD*%
D26*
%TO.C,S9*%
X137064992Y-76141407D03*
D27*
X148614990Y-73941404D03*
%TD*%
D26*
%TO.C,S8*%
X137064992Y-95141409D03*
D27*
X148614990Y-92941406D03*
%TD*%
D24*
%TO.C,S13*%
X174043322Y-128736088D03*
D25*
X185760013Y-127755443D03*
%TD*%
D28*
%TO.C,S3*%
X92929023Y-107540735D03*
D29*
X103233886Y-101879262D03*
%TD*%
D24*
%TO.C,S14*%
X176029361Y-109840164D03*
D25*
X187746052Y-108859519D03*
%TD*%
D30*
%TO.C,S4*%
X118255279Y-121690492D03*
D31*
X129623676Y-118690163D03*
%TD*%
D32*
%TO.C,S16*%
X173019273Y-153029951D03*
D33*
X184529116Y-150628708D03*
%TD*%
D28*
%TO.C,S2*%
X98800350Y-125610810D03*
D29*
X109105213Y-119949337D03*
%TD*%
D34*
%TO.C,S17*%
X192642287Y-154059462D03*
D35*
X204399861Y-154103727D03*
%TD*%
D24*
%TO.C,S11*%
X157447030Y-104870564D03*
D25*
X169163721Y-103889919D03*
%TD*%
D24*
%TO.C,S10*%
X155460985Y-123766490D03*
D25*
X167177676Y-122785845D03*
%TD*%
D30*
%TO.C,S5*%
X116929909Y-102736766D03*
D31*
X128298306Y-99736437D03*
%TD*%
D30*
%TO.C,S6*%
X115604535Y-83783052D03*
D31*
X126972932Y-80782723D03*
%TD*%
D24*
%TO.C,S12*%
X159433076Y-85974642D03*
D25*
X171149767Y-84993997D03*
%TD*%
D26*
%TO.C,S7*%
X137065003Y-114141408D03*
D27*
X148615001Y-111941405D03*
%TD*%
D28*
%TO.C,S1*%
X104671682Y-143680882D03*
D29*
X114976545Y-138019409D03*
%TD*%
M02*
