%TF.GenerationSoftware,KiCad,Pcbnew,10.0.4*%
%TF.CreationDate,2026-07-09T16:36:33-04:00*%
%TF.ProjectId,pcb,7063622e-6b69-4636-9164-5f7063625858,v1.0.0*%
%TF.SameCoordinates,Original*%
%TF.FileFunction,Soldermask,Top*%
%TF.FilePolarity,Negative*%
%FSLAX46Y46*%
G04 Gerber Fmt 4.6, Leading zero omitted, Abs format (unit mm)*
G04 Created by KiCad (PCBNEW 10.0.4) date 2026-07-09 16:36:33*
%MOMM*%
%LPD*%
G01*
G04 APERTURE LIST*
G04 Aperture macros list*
%AMHorizOval*
0 Thick line with rounded ends*
0 $1 width*
0 $2 $3 position (X,Y) of the first rounded end (center of the circle)*
0 $4 $5 position (X,Y) of the second rounded end (center of the circle)*
0 Add line between two ends*
20,1,$1,$2,$3,$4,$5,0*
0 Add two circle primitives to create the rounded ends*
1,1,$1,$2,$3*
1,1,$1,$4,$5*%
%AMRotRect*
0 Rectangle, with rotation*
0 The origin of the aperture is its center*
0 $1 length*
0 $2 width*
0 $3 Rotation angle, in degrees counterclockwise*
0 Add horizontal line*
21,1,$1,$2,0,0,$3*%
%AMOutline5P*
0 Free polygon, 5 corners , with rotation*
0 The origin of the aperture is its center*
0 number of corners: always 5*
0 $1 to $10 corner X, Y*
0 $11 Rotation angle, in degrees counterclockwise*
0 create outline with 5 corners*
4,1,5,$1,$2,$3,$4,$5,$6,$7,$8,$9,$10,$1,$2,$11*%
%AMOutline6P*
0 Free polygon, 6 corners , with rotation*
0 The origin of the aperture is its center*
0 number of corners: always 6*
0 $1 to $12 corner X, Y*
0 $13 Rotation angle, in degrees counterclockwise*
0 create outline with 6 corners*
4,1,6,$1,$2,$3,$4,$5,$6,$7,$8,$9,$10,$11,$12,$1,$2,$13*%
%AMOutline7P*
0 Free polygon, 7 corners , with rotation*
0 The origin of the aperture is its center*
0 number of corners: always 7*
0 $1 to $14 corner X, Y*
0 $15 Rotation angle, in degrees counterclockwise*
0 create outline with 7 corners*
4,1,7,$1,$2,$3,$4,$5,$6,$7,$8,$9,$10,$11,$12,$13,$14,$1,$2,$15*%
%AMOutline8P*
0 Free polygon, 8 corners , with rotation*
0 The origin of the aperture is its center*
0 number of corners: always 8*
0 $1 to $16 corner X, Y*
0 $17 Rotation angle, in degrees counterclockwise*
0 create outline with 8 corners*
4,1,8,$1,$2,$3,$4,$5,$6,$7,$8,$9,$10,$11,$12,$13,$14,$15,$16,$1,$2,$17*%
%AMFreePoly0*
4,1,6,0.600000,-1.000000,0.000000,-0.400000,-0.600000,-1.000000,-0.600000,0.250000,0.600000,0.250000,0.600000,-1.000000,0.600000,-1.000000,$1*%
%AMFreePoly1*
4,1,6,0.600000,-0.200000,0.600000,-0.400000,-0.600000,-0.400000,-0.600000,-0.200000,0.000000,0.400000,0.600000,-0.200000,0.600000,-0.200000,$1*%
G04 Aperture macros list end*
%ADD10RotRect,0.600000X1.200000X349.000000*%
%ADD11RotRect,0.900000X1.200000X4.000000*%
%ADD12C,3.800000*%
%ADD13RotRect,0.900000X1.200000X18.000000*%
%ADD14RotRect,1.000000X0.800000X174.000000*%
%ADD15C,0.900000*%
%ADD16RotRect,0.700000X1.500000X174.000000*%
%ADD17RotRect,0.900000X1.200000X349.000000*%
%ADD18RotRect,0.900000X1.200000X354.000000*%
%ADD19R,0.900000X1.200000*%
%ADD20RotRect,0.900000X1.200000X1.000000*%
%ADD21RotRect,0.600000X1.200000X169.000000*%
%ADD22HorizOval,1.800000X0.466273X-0.090634X-0.466273X0.090634X0*%
%ADD23HorizOval,1.800000X-0.466273X0.090634X0.466273X-0.090634X0*%
%ADD24C,1.397000*%
%ADD25RotRect,1.550000X1.000000X198.000000*%
%ADD26FreePoly0,274.000000*%
%ADD27HorizOval,1.200000X0.274330X0.019183X-0.274330X-0.019183X0*%
%ADD28FreePoly1,274.000000*%
%ADD29RotRect,0.600000X1.200000X79.000000*%
%ADD30C,3.000000*%
%ADD31C,5.000000*%
%ADD32Outline5P,-1.300000X1.300000X1.300000X1.300000X1.300000X-0.117000X0.117000X-1.300000X-1.300000X-1.300000X174.000000*%
%ADD33RotRect,2.600000X2.600000X174.000000*%
%ADD34Outline5P,-1.300000X1.300000X1.300000X1.300000X1.300000X-0.117000X0.117000X-1.300000X-1.300000X-1.300000X180.000000*%
%ADD35R,2.600000X2.600000*%
%ADD36Outline5P,-1.300000X1.300000X1.300000X1.300000X1.300000X-0.117000X0.117000X-1.300000X-1.300000X-1.300000X198.000000*%
%ADD37RotRect,2.600000X2.600000X198.000000*%
%ADD38Outline5P,-1.300000X1.300000X1.300000X1.300000X1.300000X-0.117000X0.117000X-1.300000X-1.300000X-1.300000X184.000000*%
%ADD39RotRect,2.600000X2.600000X184.000000*%
%ADD40Outline5P,-1.300000X1.300000X1.300000X1.300000X1.300000X-0.117000X0.117000X-1.300000X-1.300000X-1.300000X181.000000*%
%ADD41RotRect,2.600000X2.600000X181.000000*%
%ADD42Outline5P,-1.300000X1.300000X1.300000X1.300000X1.300000X-0.117000X0.117000X-1.300000X-1.300000X-1.300000X169.000000*%
%ADD43RotRect,2.600000X2.600000X169.000000*%
G04 APERTURE END LIST*
D10*
%TO.C,_1*%
X203594415Y-109637250D03*
X204477861Y-109808976D03*
%TD*%
D11*
%TO.C,D6*%
X125229868Y-61535229D03*
X128521830Y-61305033D03*
%TD*%
D12*
%TO.C,H2*%
X129867868Y-128690278D03*
%TD*%
%TO.C,H4*%
X196688852Y-129178644D03*
%TD*%
D13*
%TO.C,D1*%
X111618281Y-121550264D03*
X114756767Y-120530508D03*
%TD*%
D14*
%TO.C,PWR1*%
X188158121Y-62950923D03*
X195418131Y-63713981D03*
D15*
X193395935Y-62385328D03*
X190412369Y-62071740D03*
D14*
X188389129Y-60753030D03*
X195649138Y-61516088D03*
D16*
X193957856Y-64214083D03*
X190974291Y-63900492D03*
X189482508Y-63743702D03*
%TD*%
D13*
%TO.C,D3*%
X99875639Y-85410106D03*
X103014125Y-84390350D03*
%TD*%
D17*
%TO.C,D17*%
X205076677Y-132408458D03*
X208316047Y-133038128D03*
%TD*%
D18*
%TO.C,D11*%
X168963641Y-82939047D03*
X172245563Y-83283991D03*
%TD*%
D19*
%TO.C,D9*%
X147453245Y-53980433D03*
X150753245Y-53980433D03*
%TD*%
D18*
%TO.C,D14*%
X187545971Y-87908652D03*
X190827893Y-88253596D03*
%TD*%
D20*
%TO.C,D16*%
X183217394Y-130842276D03*
X186516892Y-130784684D03*
%TD*%
D21*
%TO.C,_2*%
X215275746Y-111907884D03*
X214392300Y-111736158D03*
%TD*%
D18*
%TO.C,D15*%
X189532020Y-69012736D03*
X192813942Y-69357680D03*
%TD*%
%TO.C,D10*%
X166977603Y-101834979D03*
X170259525Y-102179923D03*
%TD*%
D22*
%TO.C,MCU1*%
X201988722Y-106656091D03*
X201504070Y-109149430D03*
X201019415Y-111642763D03*
X200534760Y-114136096D03*
X200050105Y-116629430D03*
X199565450Y-119122763D03*
X199080789Y-121616098D03*
D23*
X214973342Y-124705299D03*
X215457994Y-122211960D03*
X215942649Y-119718627D03*
X216427304Y-117225294D03*
X216911959Y-114731960D03*
X217396614Y-112238627D03*
X217881275Y-109745292D03*
D24*
X208869981Y-107023861D03*
X211363306Y-107508517D03*
X208385325Y-109517192D03*
X210878655Y-110001847D03*
X204178186Y-114521373D03*
X212904851Y-116217665D03*
X204541677Y-112651373D03*
X213268342Y-114347665D03*
%TD*%
D18*
%TO.C,D13*%
X185559933Y-106804579D03*
X188841855Y-107149523D03*
%TD*%
D11*
%TO.C,D5*%
X126555246Y-80488948D03*
X129847208Y-80258752D03*
%TD*%
D13*
%TO.C,D2*%
X105746963Y-103480188D03*
X108885449Y-102460432D03*
%TD*%
D12*
%TO.C,H1*%
X114880546Y-82564041D03*
%TD*%
D25*
%TO.C,RST1*%
X115291193Y-75333243D03*
X115816522Y-76950039D03*
X110298146Y-76955583D03*
X110823475Y-78572379D03*
%TD*%
D19*
%TO.C,D8*%
X147453239Y-72980432D03*
X150753239Y-72980432D03*
%TD*%
D26*
%TO.C,JST1*%
X129770608Y-119790396D03*
X129631087Y-117795268D03*
D27*
X126961467Y-119986830D03*
X126821955Y-117991702D03*
D28*
X128757083Y-119861268D03*
X128617570Y-117866140D03*
%TD*%
D18*
%TO.C,D12*%
X170949680Y-64043132D03*
X174231602Y-64388076D03*
%TD*%
D19*
%TO.C,D7*%
X147453243Y-91980437D03*
X150753243Y-91980437D03*
%TD*%
D12*
%TO.C,H3*%
X182098188Y-64641755D03*
%TD*%
D11*
%TO.C,D4*%
X127880607Y-99442653D03*
X131172569Y-99212457D03*
%TD*%
D29*
%TO.C,_4*%
X212771127Y-109332648D03*
X212942853Y-108449202D03*
%TD*%
D30*
%TO.C,S15*%
X195238276Y-78340303D03*
X190035704Y-80005609D03*
D31*
X190657648Y-74088204D03*
D30*
X185293057Y-77295019D03*
D32*
X186778644Y-79663279D03*
D33*
X198495335Y-78682634D03*
%TD*%
D30*
%TO.C,S9*%
X154103237Y-62660435D03*
D31*
X149103237Y-58910435D03*
D30*
X149103236Y-64860445D03*
X144103237Y-62660435D03*
D34*
X145828237Y-64860435D03*
D35*
X157378235Y-62660432D03*
%TD*%
D30*
%TO.C,S8*%
X154103236Y-81660439D03*
D31*
X149103236Y-77910439D03*
D30*
X149103235Y-83860449D03*
X144103236Y-81660439D03*
D34*
X145828236Y-83860439D03*
D35*
X157378234Y-81660436D03*
%TD*%
D30*
%TO.C,S13*%
X191266197Y-116132142D03*
X186063625Y-117797448D03*
D31*
X186685569Y-111880043D03*
D30*
X181320978Y-115086858D03*
D32*
X182806565Y-117455118D03*
D33*
X194523256Y-116474473D03*
%TD*%
D30*
%TO.C,S3*%
X108882424Y-91610323D03*
X104806984Y-95247738D03*
D31*
X102968328Y-89588946D03*
D30*
X99371859Y-94700493D03*
D36*
X101692269Y-96259763D03*
D37*
X111997132Y-90598290D03*
%TD*%
D30*
%TO.C,S14*%
X193252235Y-97236216D03*
X188049663Y-98901522D03*
D31*
X188671607Y-92984117D03*
D30*
X183307016Y-96190932D03*
D32*
X184792603Y-98559192D03*
D33*
X196509294Y-97578547D03*
%TD*%
D30*
%TO.C,S4*%
X135119903Y-107637645D03*
D31*
X129870496Y-104245562D03*
D30*
X130285546Y-110181082D03*
X125144256Y-108335213D03*
D38*
X127018525Y-110409521D03*
D39*
X138386921Y-107409192D03*
%TD*%
D30*
%TO.C,S16*%
X190017861Y-139404896D03*
D31*
X184953176Y-135742729D03*
D30*
X185057017Y-141691836D03*
X180019384Y-139579420D03*
D40*
X181782517Y-141748979D03*
D41*
X193292360Y-139347736D03*
%TD*%
D30*
%TO.C,S2*%
X114753750Y-109680397D03*
X110678310Y-113317812D03*
D31*
X108839654Y-107659020D03*
D30*
X105243185Y-112770567D03*
D36*
X107563595Y-114329837D03*
D37*
X117868458Y-108668364D03*
%TD*%
D30*
%TO.C,S17*%
X209948276Y-142197855D03*
D31*
X205755674Y-137562708D03*
D30*
X204620358Y-143403396D03*
X200132004Y-140289765D03*
D42*
X201405531Y-142778490D03*
D43*
X213163105Y-142822755D03*
%TD*%
D30*
%TO.C,S11*%
X174669905Y-92266616D03*
X169467333Y-93931922D03*
D31*
X170089277Y-88014517D03*
D30*
X164724686Y-91221332D03*
D32*
X166210273Y-93589592D03*
D33*
X177926964Y-92608947D03*
%TD*%
D30*
%TO.C,S10*%
X172683858Y-111162543D03*
X167481286Y-112827849D03*
D31*
X168103230Y-106910444D03*
D30*
X162738639Y-110117259D03*
D32*
X164224226Y-112485519D03*
D33*
X175940917Y-111504874D03*
%TD*%
D30*
%TO.C,S5*%
X133794531Y-88683919D03*
D31*
X128545124Y-85291836D03*
D30*
X128960174Y-91227356D03*
X123818884Y-89381487D03*
D38*
X125693153Y-91455795D03*
D39*
X137061549Y-88455466D03*
%TD*%
D30*
%TO.C,S6*%
X132469156Y-69730205D03*
D31*
X127219749Y-66338122D03*
D30*
X127634799Y-72273642D03*
X122493509Y-70427773D03*
D38*
X124367778Y-72502081D03*
D39*
X135736174Y-69501752D03*
%TD*%
D30*
%TO.C,S12*%
X176655951Y-73370692D03*
X171453379Y-75035998D03*
D31*
X172075323Y-69118593D03*
D30*
X166710732Y-72325408D03*
D32*
X168196319Y-74693668D03*
D33*
X179913010Y-73713023D03*
%TD*%
D30*
%TO.C,S7*%
X154103246Y-100660436D03*
D31*
X149103246Y-96910436D03*
D30*
X149103245Y-102860446D03*
X144103246Y-100660436D03*
D34*
X145828246Y-102860436D03*
D35*
X157378244Y-100660433D03*
%TD*%
D30*
%TO.C,S1*%
X120625080Y-127750471D03*
X116549640Y-131387886D03*
D31*
X114710984Y-125729094D03*
D30*
X111114515Y-130840641D03*
D36*
X113434925Y-132399911D03*
D37*
X123739788Y-126738438D03*
%TD*%
M02*
